<?xml version="1.0" encoding="utf-8"?>
<!-- Generator: Adobe Illustrator 26.0.1, SVG Export Plug-In . SVG Version: 6.00 Build 0)  -->
<svg version="1.1" id="Layer_1" xmlns="http://www.w3.org/2000/svg" xmlns:xlink="http://www.w3.org/1999/xlink" x="0px" y="0px"
	 viewBox="0 0 623.5 134.4" style="enable-background:new 0 0 623.5 134.4;" xml:space="preserve">
<style type="text/css">
	.st0{fill:#FFFFFF;}
	.st1{fill:#EB6923;}
	.st2{fill:#243C83;}
</style>
<rect x="-107" y="-237.1" class="st0" width="841.9" height="595.3"/>
<g>
	<g>
		<path class="st1" d="M320.2,96.6c-0.7-0.6-1.9-0.7-3.6,0c-0.8,0.3-1.6,0.9-2.6,1.8c-0.9,0.8-2,2-3,3.5c-1.1,1.5-2.2,3.3-3.4,5.5
			c-1.2,0.5-2.4,0.9-3.6,1.3c-1.1,0.4-2.2,0.7-3.4,1c0.3-0.5,0.7-1.1,1-1.7c0.4-0.7,0.7-1.5,1-2.2c0.3-0.8,0.5-1.6,0.7-2.3
			c0.2-0.8,0.3-1.5,0.3-2.2c0-0.8-0.1-1.6-0.4-2.2s-0.7-1.2-1.1-1.6c-0.5-0.4-1.1-0.7-1.7-1c-1.4-0.4-3.1-0.4-5,0
			c-1,0.2-1.9,0.5-2.9,0.9c-0.9,0.4-1.9,0.9-2.7,1.4s-1.6,1.1-2.3,1.8c-0.7,0.7-1.2,1.4-1.6,2.1c-0.4,0.8-0.6,1.5-0.6,2.4
			c0,0.7,0.1,1.3,0.4,1.9s0.6,0.9,1.1,1.2c0.5,0.3,1,0.6,1.6,0.7c0.6,0.1,1.2,0.2,1.9,0.2c0.6,0,1.2,0,1.8-0.1s1-0.2,1.5-0.3
			c0.4-0.1,0.8-0.2,1-0.3c0.4-0.1,0.4-0.2,0.5-0.2l0.1,0l-0.4-0.9l-0.1,0c-0.4,0.1-0.7,0.3-1,0.4c-0.3,0.1-0.7,0.2-1.1,0.2
			c-0.8,0.1-1.6,0.2-2.5,0c-0.4-0.1-0.9-0.2-1.2-0.5c-0.4-0.2-0.7-0.5-0.9-0.9c-0.2-0.4-0.4-0.8-0.4-1.4c0-0.6,0.1-1.2,0.4-1.8
			s0.6-1.2,1.1-1.8c0.5-0.6,1-1.1,1.6-1.7c0.6-0.5,1.4-1,2.2-1.4c0.8-0.4,1.7-0.7,2.6-0.9c0.9-0.2,1.9-0.4,2.9-0.4
			c0.5,0,1,0.1,1.5,0.2c0.4,0.2,0.8,0.4,1.1,0.7c0.3,0.3,0.5,0.6,0.7,1c0.2,0.4,0.2,0.9,0.2,1.3c0,0.6-0.1,1.4-0.3,2.2
			c-0.2,0.8-0.5,1.6-0.8,2.5s-0.7,1.8-1.2,2.7c-0.4,0.9-0.9,1.8-1.5,2.7c-1,0.3-2,0.6-3,0.9s-2,0.6-3,1c-1,0.3-2.1,0.7-3.1,1.1
			c-1,0.4-2.1,0.9-3.1,1.4c-0.7,0.3-1.3,0.7-1.8,1.1c-0.5,0.4-0.9,0.8-1.3,1.2c-0.3,0.4-0.6,0.8-0.7,1.2s-0.2,0.8-0.2,1.1
			c0,0.3,0,0.5,0.1,0.9c0.1,0.3,0.3,0.6,0.5,0.9s0.6,0.5,1,0.7c0.4,0.2,1,0.3,1.6,0.3c0.7,0,1.5-0.1,2.4-0.4s1.7-0.7,2.6-1.1
			s1.8-1.1,2.7-1.8s1.8-1.4,2.6-2.2c0.9-0.8,1.7-1.7,2.5-2.6c0.8-0.9,1.5-1.8,2.1-2.8c1.2-0.3,2.4-0.7,3.6-1.1
			c1.1-0.4,2.3-0.8,3.5-1.2c-0.7,1.6-1.3,3.1-1.5,4.4c-0.3,1.3-0.4,2.4-0.4,3.3c0,0.8,0.1,1.5,0.3,2.2c0.2,0.7,0.5,1.2,0.9,1.7
			c0.4,0.5,1,0.8,1.6,1.1c0.6,0.3,1.4,0.4,2.3,0.4c0.9,0,1.6-0.2,2.4-0.5s1.4-0.8,1.9-1.4c0.5-0.6,1-1.2,1.2-2
			c0.3-0.7,0.5-1.5,0.5-2.3c0-0.7-0.1-1.3-0.3-1.8c-0.2-0.5-0.4-1-0.7-1.3c-0.3-0.4-0.6-0.6-0.9-0.8c-0.3-0.2-0.7-0.4-1-0.5
			s-0.6-0.2-0.9-0.2c-0.3,0-0.5-0.1-0.6-0.1l-0.1,0l0,1h0.1c0,0,0.2,0,0.3,0c0.2,0,0.4,0.1,0.6,0.1c0.2,0.1,0.5,0.2,0.8,0.4
			c0.3,0.2,0.5,0.4,0.8,0.6s0.4,0.6,0.6,1.1c0.1,0.4,0.2,1,0.2,1.6c0,0.7-0.1,1.4-0.4,2c-0.3,0.6-0.6,1.2-1.1,1.6s-1,0.8-1.6,1.1
			s-1.2,0.4-1.9,0.4c-0.5,0-1-0.1-1.4-0.2c-0.4-0.1-0.8-0.4-1.1-0.6c-0.3-0.3-0.5-0.6-0.7-1.1c-0.2-0.4-0.2-0.9-0.2-1.5
			c0-0.5,0-1,0.1-1.6c0.1-0.6,0.3-1.3,0.5-2.1c0.2-0.8,0.5-1.7,1-2.7c0.4-1,0.9-2.1,1.5-3.4c1.3-0.6,2.7-1.3,4-2.1
			c1.3-0.8,2.7-1.8,4-2.8c0.9-0.7,1.6-1.5,2.2-2.2c0.5-0.8,0.8-1.5,0.8-2.2C320.8,97.4,320.6,96.9,320.2,96.6z M319.8,98
			c0,0.2,0,0.4-0.1,0.7c-0.1,0.3-0.2,0.6-0.4,0.9c-0.2,0.3-0.5,0.7-0.8,1c-0.3,0.4-0.7,0.7-1.2,1.1c-1.2,0.9-2.3,1.7-3.5,2.5
			c-1,0.6-2.1,1.2-3.1,1.8c0.4-0.7,0.7-1.3,1.1-2c0.4-0.7,0.9-1.5,1.4-2.1c0.5-0.7,0.9-1.3,1.4-1.9c0.5-0.6,1-1.1,1.5-1.5
			s1-0.8,1.4-1c0.5-0.2,0.9-0.4,1.3-0.4c0.4,0,0.7,0.1,0.8,0.3C319.7,97.5,319.8,97.8,319.8,98z M297.1,111.8
			c-0.8,1.2-1.7,2.3-2.6,3.4c-1,1.1-2,2-3,2.9c-1,0.8-2,1.4-3,1.9c-1,0.5-1.9,0.7-2.8,0.7c-0.5,0-0.9-0.1-1.2-0.3
			c-0.3-0.2-0.4-0.5-0.4-0.8c0-0.6,0.2-1.1,0.6-1.6c0.4-0.5,1-1,1.6-1.5c0.7-0.5,1.5-1,2.3-1.4c0.9-0.4,1.8-0.8,2.7-1.2
			c0.9-0.4,1.8-0.7,2.7-1c0.9-0.3,1.7-0.5,2.4-0.7L297.1,111.8z"/>
		<path class="st1" d="M333,114.1c-1.3,2-2.6,3.5-4,4.4c-1.3,0.9-2.7,1.4-4.1,1.4c-0.4,0-0.8-0.1-1.1-0.2c-0.3-0.1-0.6-0.3-0.8-0.6
			c-0.2-0.2-0.4-0.5-0.5-0.9s-0.2-0.7-0.2-1c0-0.1,0-0.2,0-0.4c0-0.1,0-0.2,0-0.3c0.6,0,1.2-0.1,1.8-0.2c0.7-0.1,1.3-0.3,2-0.5
			c0.6-0.2,1.3-0.5,1.9-0.8c0.6-0.3,1.1-0.7,1.6-1.1c0.5-0.4,0.8-0.9,1.1-1.4c0.3-0.5,0.4-1,0.4-1.6c0-0.4-0.1-0.8-0.2-1.1
			c-0.1-0.3-0.4-0.5-0.6-0.7c-0.2-0.2-0.5-0.3-0.8-0.4c-0.3-0.1-0.6-0.1-0.9-0.1c-0.5,0-1,0.1-1.5,0.3c-0.6,0.2-1.2,0.5-1.8,0.9
			s-1.2,0.8-1.8,1.3s-1.1,1.1-1.5,1.7c-0.5,0.6-0.8,1.3-1.1,2c-0.3,0.7-0.4,1.5-0.4,2.3c0,0.8,0.1,1.4,0.5,1.9
			c0.3,0.5,0.7,0.9,1.1,1.2c0.5,0.3,1,0.5,1.5,0.6s1,0.2,1.5,0.2c0.6,0,1.3-0.1,2.1-0.3s1.5-0.6,2.2-1.1c0.7-0.5,1.5-1.1,2.2-1.9
			c0.7-0.8,1.5-1.8,2.2-2.9l0-0.1L333,114L333,114.1z M322.6,115.6c0.3-0.8,0.7-1.6,1.2-2.3c0.5-0.8,1.1-1.5,1.7-2
			c0.6-0.6,1.2-1,1.8-1.3c0.6-0.3,1.1-0.5,1.6-0.5c0.2,0,0.4,0.1,0.5,0.2c0.1,0.1,0.2,0.4,0.2,0.6c0,0.3-0.1,0.6-0.2,0.9
			c-0.1,0.4-0.4,0.7-0.6,1.1c-0.3,0.4-0.6,0.8-1,1.1c-0.4,0.4-0.9,0.7-1.4,1s-1.1,0.6-1.8,0.8C323.9,115.4,323.3,115.6,322.6,115.6z
			"/>
		<path class="st1" d="M349.5,115c-0.2,0.3-0.5,0.7-0.7,1s-0.5,0.7-0.9,1.1c-0.3,0.4-0.6,0.7-0.9,0.9c-0.3,0.3-0.6,0.5-1,0.7
			c-0.3,0.2-0.6,0.2-0.9,0.2c-0.2,0-0.4,0-0.5-0.1c-0.1-0.1-0.2-0.3-0.2-0.6c0-0.3,0.1-0.7,0.2-1.2c0.2-0.5,0.4-1,0.6-1.5
			c0.2-0.5,0.5-1.1,0.8-1.7c0.3-0.6,0.6-1.1,0.9-1.6c0.3-0.5,0.6-1,0.8-1.4c0.3-0.4,0.5-0.8,0.6-1.1l0-0.1l-0.7-0.3l-0.2,0.2
			c-0.2,0.2-0.4,0.4-0.6,0.6c-0.2,0.2-0.4,0.4-0.6,0.6c-0.1-0.6-0.5-1-0.9-1.3c-0.5-0.3-1.3-0.5-2.3-0.5c-0.5,0-1,0.1-1.5,0.2
			c-0.6,0.1-1.2,0.4-1.8,0.7s-1.3,0.7-1.9,1.3c-0.6,0.5-1.3,1.2-1.9,1.9c-0.7,0.9-1.2,1.7-1.5,2.5c-0.3,0.8-0.4,1.5-0.4,2.1
			c0,0.5,0.1,0.9,0.2,1.3c0.2,0.4,0.4,0.7,0.7,1s0.6,0.5,1,0.6c0.4,0.1,0.8,0.2,1.2,0.2c0.4,0,0.8,0,1.3-0.1s0.9-0.3,1.4-0.5
			c0.5-0.2,1-0.6,1.5-1c0.4-0.4,0.9-0.8,1.4-1.4v0c0,0.1,0,0.2,0,0.3c0,0.6,0.2,1.1,0.5,1.5s0.8,0.6,1.5,0.6c0.5,0,0.9-0.1,1.3-0.3
			s0.9-0.4,1.2-0.7c0.4-0.3,0.8-0.6,1.1-1c0.4-0.4,0.7-0.8,1-1.1c0.3-0.4,0.6-0.8,0.8-1.2c0.2-0.4,0.5-0.8,0.7-1.1l0-0.1l-0.7-0.5
			L349.5,115z M345.7,111.7c-0.2,0.2-0.4,0.5-0.5,0.8c-0.2,0.3-0.4,0.7-0.7,1c-0.2,0.4-0.5,0.7-0.6,1c-0.2,0.3-0.4,0.6-0.5,0.8
			c-0.4,0.5-0.8,1-1.2,1.5c-0.4,0.5-0.9,0.9-1.3,1.3c-0.5,0.4-0.9,0.7-1.5,1s-1.1,0.4-1.6,0.4c-0.5,0-0.9-0.1-1.1-0.5
			c-0.3-0.3-0.4-0.7-0.4-1.3c0-0.7,0.2-1.5,0.6-2.3c0.4-0.9,1-1.7,1.7-2.6c0.5-0.6,1-1,1.5-1.4s1-0.7,1.5-0.9s0.9-0.4,1.3-0.5
			c0.4-0.1,0.8-0.1,1.1-0.1c0.5,0,0.8,0.1,1,0.2c0.2,0.1,0.4,0.3,0.5,0.5c0.1,0.2,0.2,0.4,0.2,0.6
			C345.7,111.5,345.7,111.7,345.7,111.7z"/>
		<path class="st1" d="M354.9,114c0.2-0.2,0.4-0.3,0.6-0.5c0.2-0.2,0.5-0.4,0.8-0.7c0.3-0.3,0.6-0.6,1-1.1c0.4-0.5,0.9-1,1.5-1.6
			c0.6-0.6,1.2-1.4,2-2.4c0.4-0.5,0.8-1,1.2-1.5c0.4-0.5,0.8-1.1,1.1-1.7c0.4-0.6,0.7-1.2,1-1.7c0.3-0.6,0.6-1.1,0.8-1.7
			c0.2-0.5,0.4-1,0.6-1.5c0.1-0.5,0.2-0.9,0.2-1.2c0-0.5-0.1-0.9-0.4-1c-0.3-0.2-0.6-0.3-1-0.3c-0.5,0-1.1,0.2-1.7,0.5
			c-0.6,0.3-1.2,0.8-1.9,1.4c-0.6,0.6-1.3,1.3-2,2c-0.7,0.8-1.3,1.7-1.9,2.6c-0.6,0.9-1.2,1.9-1.8,2.9c-0.5,1-1,2.1-1.4,3.1
			c-0.4,1-0.7,2.1-1,3.1c-0.2,1-0.4,2-0.4,3c0,0.8,0.1,1.4,0.3,2s0.5,1,0.8,1.4c0.3,0.4,0.7,0.6,1.1,0.8c0.4,0.2,0.9,0.2,1.3,0.2
			c0.5,0,1.1-0.1,1.6-0.4c0.5-0.3,1-0.6,1.5-1s0.9-0.8,1.3-1.3c0.4-0.5,0.8-0.9,1-1.3s0.5-0.8,0.7-1c0.2-0.4,0.3-0.5,0.3-0.5
			l0.1-0.1l-0.8-0.6l-0.7,1c-0.2,0.4-0.5,0.7-0.8,1.1s-0.6,0.8-1,1.1c-0.3,0.4-0.7,0.7-1.1,1c-0.4,0.3-0.7,0.5-1.1,0.7
			c-0.4,0.2-0.7,0.3-1.1,0.3c-0.5,0-0.9-0.2-1.2-0.6c-0.3-0.4-0.4-1.1-0.4-2c0-0.3,0-0.6,0-1c0-0.3,0-0.7,0.1-1.1
			C354.6,114.4,354.7,114.2,354.9,114z M361.7,104.8c-0.6,0.9-1.3,1.8-2.1,2.7s-1.6,1.9-2.4,2.8c-0.8,0.9-1.6,1.7-2.5,2.5
			c0.2-1,0.6-2.1,1-3.1c0.5-1.2,1-2.3,1.6-3.4c0.6-1.1,1.3-2.2,2-3.1c0.7-1,1.4-1.8,2-2.6s1.2-1.3,1.8-1.7c0.5-0.4,1-0.6,1.3-0.6
			c0,0,0.1,0,0.2,0.2c0.1,0.2,0.1,0.2,0.1,0.3c0,0.4-0.1,1-0.4,1.6c-0.2,0.6-0.6,1.3-1,2.1C362.9,103.1,362.3,103.9,361.7,104.8z"/>
		<path class="st1" d="M373.7,114.6L373,114l-0.1,0.1c0,0.1-0.2,0.3-0.4,0.5c-0.2,0.3-0.4,0.6-0.7,1c-0.3,0.4-0.6,0.8-1,1.3
			c-0.4,0.5-0.8,0.9-1.2,1.2c-0.4,0.4-0.9,0.7-1.3,0.9c-0.9,0.5-1.8,0.5-2.4-0.1c-0.3-0.3-0.5-0.7-0.5-1.4c0-0.5,0.1-1.2,0.3-1.9
			c0.2-0.7,0.4-1.5,0.8-2.4c0.3-0.8,0.7-1.7,1.1-2.6c0.4-0.9,0.9-1.8,1.4-2.7h5.5l0.4-1h-5.3c0.5-0.8,0.9-1.6,1.4-2.4
			c0.5-0.8,1-1.6,1.4-2.4l0.1-0.1l-0.9-0.5l0,0c-0.4,0.4-0.9,0.8-1.3,1.4c-0.4,0.5-0.9,1.1-1.2,1.6c-0.4,0.5-0.7,1-1,1.5
			c-0.2,0.4-0.4,0.7-0.5,0.9h-2.9l-0.4,1h2.7c-0.6,1.1-1.1,2.1-1.5,3c-0.4,1-0.8,1.9-1,2.7s-0.4,1.5-0.5,2c-0.1,0.6-0.2,1-0.2,1.4
			c0,0.5,0.1,1,0.2,1.4c0.1,0.4,0.3,0.8,0.6,1.1c0.3,0.3,0.6,0.5,1,0.7s0.8,0.3,1.3,0.3c0.8,0,1.6-0.2,2.3-0.6
			c0.7-0.4,1.3-0.9,1.9-1.5c0.6-0.6,1.1-1.2,1.6-1.9C372.9,115.9,373.3,115.3,373.7,114.6L373.7,114.6z"/>
		<path class="st1" d="M389.3,114.1c-0.4,0.6-0.8,1.2-1.2,1.9c-0.4,0.6-0.9,1.2-1.3,1.8c-0.4,0.5-0.9,1-1.3,1.3
			c-0.4,0.3-0.8,0.5-1.1,0.5c-0.3,0-0.4-0.1-0.5-0.2c-0.1-0.2-0.2-0.4-0.2-0.6c0-0.4,0.1-0.8,0.2-1.2s0.4-0.9,0.6-1.4
			c0.2-0.5,0.5-1,0.8-1.4c0.3-0.5,0.5-1,0.8-1.4c0.2-0.5,0.5-0.9,0.6-1.4c0.2-0.4,0.2-0.9,0.2-1.2c0-0.2,0-0.5-0.1-0.7
			c-0.1-0.2-0.2-0.5-0.3-0.6c-0.2-0.2-0.4-0.4-0.6-0.5c-0.3-0.1-0.6-0.2-1-0.2c-0.6,0-1.2,0.1-1.8,0.4c-0.6,0.3-1.3,0.6-1.9,1.1
			c-0.6,0.5-1.3,1-1.9,1.6c-0.4,0.4-0.9,0.9-1.3,1.4l1.6-3.4c0.6-0.6,1.3-1.2,2-1.9c0.7-0.7,1.4-1.4,2-2.1c0.7-0.7,1.3-1.5,1.9-2.2
			c0.6-0.7,1.1-1.5,1.6-2.1c0.5-0.7,0.8-1.4,1.1-2c0.3-0.6,0.4-1.2,0.4-1.7c0-0.5-0.1-0.9-0.4-1.2c-0.3-0.3-0.7-0.4-1.2-0.4
			c-0.4,0-0.9,0.1-1.3,0.3c-0.4,0.2-0.8,0.5-1.2,0.9c-0.4,0.4-0.8,0.8-1.2,1.2c-0.4,0.5-0.7,1-1,1.5c-0.3,0.5-0.6,1-0.9,1.5
			c-0.3,0.5-0.5,1-0.7,1.4c-1.4,2.8-2.7,5.6-4,8.4c-1.3,2.8-2.6,5.7-4,8.6l0,0.1l1.7,0.6l2.5-4.5c0.6-0.8,1.2-1.5,1.9-2.3
			c0.7-0.8,1.4-1.5,2-2.1s1.4-1.1,2.1-1.5c0.7-0.4,1.3-0.6,1.9-0.6c0.4,0,0.5,0.2,0.5,0.5c0,0.2-0.1,0.5-0.3,0.8
			c-0.2,0.4-0.4,0.7-0.7,1.2c-0.3,0.4-0.6,0.9-0.9,1.4c-0.3,0.5-0.6,1-0.9,1.5c-0.3,0.5-0.5,1-0.7,1.6s-0.3,1.1-0.3,1.6
			c0,0.5,0.1,0.8,0.2,1.1c0.1,0.3,0.4,0.5,0.6,0.7c0.2,0.2,0.5,0.3,0.8,0.4c0.3,0.1,0.6,0.1,0.9,0.1c0.5,0,0.9-0.1,1.3-0.4
			c0.4-0.2,0.9-0.6,1.2-1c0.4-0.4,0.8-0.8,1.1-1.3c0.3-0.5,0.7-0.9,0.9-1.3c0.3-0.4,0.5-0.8,0.7-1.2c0.2-0.4,0.4-0.6,0.5-0.8
			l0.1-0.1L389.3,114.1L389.3,114.1z M380.8,107.2c0.8-1.7,1.5-3.2,2.1-4.4c0.6-1.3,1.2-2.4,1.6-3.2c0.5-0.8,0.9-1.4,1.3-1.8
			c0.4-0.3,0.8-0.5,1.3-0.5c0.1,0,0.3,0,0.4,0.1s0.1,0.2,0.1,0.4c0,0.3-0.1,0.8-0.4,1.4c-0.3,0.6-0.8,1.4-1.3,2.2
			c-0.6,0.9-1.4,1.8-2.2,2.9C382.8,105.2,381.9,106.2,380.8,107.2z"/>
		<path class="st1" d="M418,115c-0.2,0.3-0.5,0.7-0.7,1s-0.5,0.7-0.8,1.1c-0.3,0.4-0.6,0.7-0.9,0.9c-0.3,0.3-0.6,0.5-1,0.7
			s-0.6,0.2-0.9,0.2c-0.2,0-0.3,0-0.5-0.1c-0.1-0.1-0.2-0.3-0.2-0.6c0-0.3,0.1-0.7,0.2-1.2c0.2-0.5,0.4-1,0.6-1.5
			c0.2-0.5,0.5-1.1,0.8-1.7c0.3-0.6,0.6-1.1,0.9-1.6c0.3-0.5,0.6-1,0.8-1.4c0.3-0.4,0.5-0.8,0.6-1.1l0-0.1l-0.7-0.3l-0.2,0.2
			c-0.2,0.2-0.4,0.4-0.6,0.6s-0.4,0.4-0.6,0.6c-0.1-0.6-0.5-1-0.9-1.3c-0.5-0.3-1.3-0.5-2.3-0.5c-0.5,0-1,0.1-1.5,0.2
			c-0.6,0.1-1.2,0.4-1.8,0.7s-1.3,0.7-1.9,1.3c-0.7,0.5-1.3,1.2-1.9,1.9c-0.7,0.9-1.2,1.7-1.5,2.5c-0.3,0.8-0.4,1.5-0.4,2.1
			c0,0.5,0.1,0.9,0.2,1.3c0.2,0.4,0.4,0.7,0.7,1s0.6,0.5,1,0.6c0.4,0.1,0.8,0.2,1.2,0.2c0.4,0,0.8,0,1.3-0.1s0.9-0.3,1.4-0.5
			c0.5-0.2,1-0.6,1.5-1c0.4-0.4,0.9-0.8,1.3-1.4v0c0,0.1,0,0.2,0,0.3c0,0.6,0.2,1.1,0.5,1.5s0.8,0.6,1.5,0.6c0.5,0,0.9-0.1,1.3-0.3
			c0.4-0.2,0.8-0.4,1.2-0.7c0.4-0.3,0.8-0.6,1.1-1c0.3-0.4,0.7-0.8,1-1.1s0.6-0.8,0.8-1.2c0.2-0.4,0.5-0.8,0.7-1.1l0-0.1l-0.7-0.5
			L418,115z M414.2,111.7c-0.2,0.2-0.3,0.5-0.5,0.8c-0.2,0.3-0.4,0.7-0.7,1c-0.2,0.4-0.5,0.7-0.7,1c-0.2,0.3-0.4,0.6-0.5,0.8
			c-0.4,0.5-0.8,1-1.2,1.5c-0.4,0.5-0.8,0.9-1.3,1.3s-0.9,0.7-1.5,1s-1.1,0.4-1.6,0.4c-0.5,0-0.9-0.1-1.1-0.5
			c-0.3-0.3-0.4-0.7-0.4-1.3c0-0.7,0.2-1.5,0.6-2.3c0.4-0.9,1-1.7,1.7-2.6c0.5-0.6,1-1,1.5-1.4s1-0.7,1.5-0.9
			c0.5-0.2,0.9-0.4,1.3-0.5c0.4-0.1,0.8-0.1,1.1-0.1c0.5,0,0.8,0.1,1,0.2s0.4,0.3,0.5,0.5c0.1,0.2,0.2,0.4,0.2,0.6
			C414.1,111.5,414.2,111.7,414.2,111.7z"/>
		<path class="st1" d="M437.7,114.1c-0.4,0.6-0.9,1.3-1.4,2c-0.5,0.7-1,1.3-1.6,1.9c-0.5,0.6-1,1.1-1.5,1.5
			c-0.5,0.4-0.9,0.6-1.3,0.6c-0.1,0-0.2,0-0.3-0.1c-0.1-0.1-0.1-0.2-0.1-0.4c0-0.3,0.1-0.6,0.2-1c0.2-0.4,0.4-0.8,0.6-1.2
			c0.2-0.4,0.5-0.9,0.8-1.3c0.3-0.5,0.6-0.9,0.8-1.4c0.2-0.5,0.5-0.9,0.6-1.4s0.2-0.9,0.2-1.4c0-0.6-0.1-1-0.3-1.4
			c-0.2-0.4-0.4-0.6-0.6-0.9c-0.2-0.2-0.5-0.4-0.8-0.4c-0.3-0.1-0.5-0.1-0.8-0.1c-0.2,0-0.5,0-0.8,0.1c-0.3,0.1-0.6,0.2-1,0.4
			c-0.3,0.2-0.7,0.4-1.2,0.7c-0.3,0.2-0.7,0.5-1.1,0.9c0-0.2,0-0.4,0-0.6c0-0.4,0-0.7-0.2-0.9c-0.1-0.3-0.2-0.5-0.4-0.7
			c-0.2-0.2-0.4-0.3-0.6-0.4c-0.2-0.1-0.5-0.1-0.7-0.1c-0.5,0-0.9,0.1-1.3,0.4c-0.4,0.3-0.8,0.7-1.2,1.2c-0.4,0.5-0.9,1.1-1.3,1.8
			s-1,1.5-1.5,2.3l0,0.1l0.8,0.6l0.1-0.1c0.2-0.2,0.3-0.5,0.6-0.9c0.2-0.4,0.5-0.7,0.7-1.1c0.3-0.4,0.5-0.8,0.8-1.2
			c0.3-0.4,0.6-0.8,0.8-1.1c0.3-0.3,0.5-0.6,0.8-0.8c0.2-0.2,0.5-0.3,0.7-0.3c0.2,0,0.3,0,0.4,0.1c0.1,0,0.1,0.2,0.1,0.5
			c0,0.2-0.1,0.6-0.2,1s-0.3,0.9-0.7,1.5c-0.2,0.4-0.5,0.9-0.7,1.3c-0.3,0.5-0.5,0.9-0.8,1.3c-0.3,0.4-0.5,0.8-0.8,1.2
			c-0.3,0.4-0.6,0.8-0.8,1.1l-2,2.6l1.6,0.6l0,0c0.1-0.2,0.3-0.3,0.4-0.6c0.2-0.2,0.3-0.4,0.5-0.7c0.2-0.2,0.4-0.5,0.6-0.7
			c0.2-0.2,0.4-0.5,0.5-0.7c0.4-0.5,0.9-1.1,1.3-1.7c0.8-1,1.5-1.9,2.2-2.6c0.7-0.8,1.3-1.4,1.8-2c0.6-0.5,1.1-0.9,1.5-1.2
			c0.8-0.5,1.5-0.5,1.8-0.1c0.2,0.2,0.2,0.5,0.2,0.8c0,0.3-0.1,0.6-0.3,1c-0.2,0.4-0.4,0.8-0.7,1.3c-0.3,0.5-0.6,1-0.9,1.4
			c-0.3,0.5-0.7,1-0.9,1.5s-0.5,1-0.7,1.5c-0.2,0.5-0.3,0.9-0.3,1.4c0,0.3,0,0.5,0.2,0.8c0.1,0.2,0.2,0.4,0.4,0.6s0.4,0.3,0.7,0.4
			s0.5,0.1,0.8,0.1c0.5,0,1.1-0.1,1.6-0.4c0.5-0.3,1-0.6,1.5-1.1s0.9-0.9,1.4-1.4c0.4-0.5,0.8-1,1.1-1.5c0.3-0.5,0.6-0.9,0.8-1.3
			c0.2-0.4,0.4-0.6,0.5-0.7l0.1-0.1L437.7,114.1L437.7,114.1z"/>
		<path class="st1" d="M457.6,99c-0.5,0.5-1.1,1.1-1.6,1.8c-0.5,0.6-1,1.3-1.5,1.9c-0.5,0.6-0.9,1.3-1.4,1.9
			c-0.4,0.6-0.8,1.2-1.2,1.8c-0.3,0.6-0.7,1.1-0.9,1.5c-0.2,0.4-0.4,0.8-0.6,1c-0.2-0.1-0.5-0.3-0.8-0.4c-0.4-0.2-1-0.3-1.7-0.3
			c-0.5,0-1.1,0.1-1.7,0.3s-1.2,0.5-1.8,0.8c-0.6,0.3-1.2,0.8-1.7,1.2s-1,1-1.5,1.6s-0.8,1.3-1,2c-0.2,0.7-0.4,1.5-0.4,2.2
			c0,0.7,0.1,1.3,0.4,1.8c0.3,0.5,0.6,0.9,1,1.1s0.8,0.5,1.2,0.6s0.8,0.2,1.2,0.2c0.7,0,1.5-0.2,2.2-0.7c0.7-0.4,1.5-1,2.3-1.8
			c0.1,0.4,0.2,0.6,0.3,0.9c0.2,0.3,0.4,0.5,0.6,0.7c0.2,0.2,0.5,0.3,0.8,0.3c0.3,0.1,0.5,0.1,0.8,0.1c0.5,0,1-0.1,1.4-0.3
			c0.4-0.2,0.8-0.5,1.2-0.8c0.4-0.3,0.7-0.6,1-1c0.3-0.4,0.6-0.8,0.8-1.1c0.2-0.4,0.4-0.7,0.6-1c0.2-0.3,0.3-0.6,0.5-0.7l0-0.1
			l-0.8-0.6l-0.1,0.1c-0.2,0.2-0.3,0.5-0.5,0.8c-0.2,0.3-0.4,0.6-0.6,1c-0.2,0.3-0.5,0.7-0.7,1c-0.2,0.3-0.5,0.6-0.8,0.9
			c-0.3,0.3-0.6,0.5-0.9,0.6c-0.3,0.2-0.6,0.2-0.9,0.2c-0.3,0-0.5-0.1-0.7-0.3s-0.3-0.6-0.3-1.2c0-0.3,0-0.7,0.1-1.1
			c0.1-0.5,0.2-1,0.4-1.6c0.2-0.6,0.4-1.3,0.7-2.1s0.7-1.7,1.2-2.7c0.3-0.6,0.7-1.3,1-2c0.4-0.7,0.8-1.4,1.2-2.1
			c0.4-0.7,0.8-1.3,1.3-2c0.4-0.6,0.8-1.2,1.2-1.8c0.4-0.5,0.7-1,1-1.4c0.3-0.4,0.5-0.7,0.6-0.8l0.1-0.1L457.6,99L457.6,99z
			 M444.3,118.9c-1,0.3-1.7,0.1-2.2-0.5c-0.3-0.4-0.5-1-0.5-1.8c0-0.6,0.1-1.2,0.3-1.7c0.2-0.6,0.5-1.2,0.8-1.7
			c0.3-0.5,0.7-1.1,1.2-1.5c0.4-0.5,0.9-0.9,1.4-1.2c0.5-0.4,1-0.6,1.6-0.8c0.5-0.2,1.1-0.3,1.6-0.3c0.3,0,0.6,0.1,0.9,0.2
			c0.2,0.1,0.4,0.2,0.6,0.4c-0.7,1.3-1.1,2.5-1.5,3.6c-0.3,1-0.5,2-0.6,2.7c-0.5,0.5-0.9,1-1.3,1.3c-0.4,0.4-0.8,0.7-1.2,0.9
			C445,118.6,444.7,118.8,444.3,118.9z"/>
		<path class="st1" d="M500.6,101.9c-0.4-0.6-0.9-1.2-1.6-1.8c-0.7-0.5-1.5-1-2.6-1.4c0.1-0.2,0.3-0.3,0.4-0.5
			c0.2-0.2,0.3-0.4,0.5-0.6l0-0.1l-0.6-0.7l-0.1,0.1c-0.3,0.3-0.5,0.5-0.8,0.7s-0.5,0.5-0.7,0.7c-0.6-0.2-1.3-0.3-2.1-0.4
			c-0.8-0.1-1.6-0.1-2.5-0.1c-1.5,0-2.9,0.1-4.3,0.5c-1.3,0.3-2.6,0.7-3.8,1.2c-1.2,0.5-2.3,1.1-3.3,1.7c-1,0.7-2,1.4-2.8,2.1
			c-0.8,0.7-1.6,1.5-2.2,2.2s-1.2,1.5-1.6,2.2c-0.7,1.1-1.2,2.2-1.6,3.3s-0.5,2.2-0.5,3.3c0,0.9,0.1,1.8,0.4,2.7s0.7,1.6,1.2,2.2
			c0.5,0.6,1.2,1.1,2.1,1.5s1.8,0.5,3,0.5c1.5,0,2.8-0.2,4-0.6s2.2-1.1,3.2-2s1.9-2.1,2.8-3.5c0.9-1.4,1.8-3.2,2.7-5.2
			c0.4-0.9,0.8-1.8,1.2-2.6s0.9-1.7,1.4-2.6c0.5-0.9,1-1.7,1.6-2.6c0.5-0.8,1.2-1.7,1.8-2.5c1.3,0.5,2.3,1.2,2.9,2.1
			c0.7,0.9,1,2,1,3.1c0,0.7-0.1,1.3-0.3,1.8s-0.5,1-0.8,1.4c-0.3,0.4-0.7,0.8-1.1,1c-0.4,0.3-0.8,0.5-1.1,0.6
			c-0.2-0.1-0.5-0.3-0.8-0.4c-0.3-0.1-0.6-0.3-0.9-0.4s-0.7-0.2-1-0.3c-0.3-0.1-0.7-0.1-1-0.1c-0.4,0-0.7,0-0.9,0.1
			s-0.4,0.2-0.5,0.3s-0.2,0.3-0.2,0.4s0,0.2,0,0.3c0,0.3,0.1,0.6,0.3,0.8c0.2,0.2,0.5,0.4,0.8,0.5c0.3,0.1,0.7,0.2,1.1,0.3
			c0.7,0.1,1.4,0.1,2.1,0c0.3,0,0.6-0.1,0.8-0.1c0.3,0.3,0.6,0.6,0.9,0.9c0.3,0.4,0.6,0.8,0.8,1.2s0.5,0.9,0.6,1.3
			c0.2,0.5,0.2,1,0.2,1.5c0,0.8-0.2,1.5-0.5,2.1s-0.8,1.2-1.3,1.7s-1.2,0.9-1.9,1.1s-1.5,0.4-2.3,0.4c-1.3,0-2.4-0.3-3.3-1
			c-0.9-0.7-1.6-1.6-2-2.9l0-0.1l-1,0.3l0,0.1c0.2,0.7,0.6,1.4,1,2c0.4,0.6,0.9,1.2,1.5,1.6c0.6,0.5,1.2,0.8,2,1.1
			c0.7,0.3,1.5,0.4,2.4,0.4c1,0,2-0.2,2.8-0.5c0.9-0.4,1.7-0.8,2.3-1.4s1.2-1.3,1.5-2.1c0.4-0.8,0.6-1.6,0.6-2.5
			c0-1-0.3-2.1-0.8-3.1c-0.5-1-1.2-1.9-2.2-2.7c0.5-0.2,0.9-0.4,1.3-0.7c0.5-0.3,0.9-0.8,1.2-1.2c0.4-0.5,0.7-1,0.9-1.5
			c0.2-0.6,0.3-1.2,0.3-1.8c0-0.4-0.1-1-0.2-1.6C501.2,103.1,501,102.5,500.6,101.9z M494.4,99.1c-0.7,0.7-1.3,1.5-1.9,2.2
			c-0.6,0.8-1.2,1.7-1.8,2.6c-0.8,1.2-1.5,2.5-2.1,3.8c-0.6,1.3-1.2,2.5-1.8,3.7c-0.6,1.2-1.2,2.4-1.8,3.4c-0.6,1.1-1.3,2-2,2.8
			c-0.7,0.8-1.6,1.4-2.6,1.9c-1,0.5-2.1,0.7-3.4,0.7c-0.8,0-1.4-0.1-2-0.3s-1.1-0.5-1.5-0.9s-0.7-0.9-0.9-1.5
			c-0.2-0.6-0.3-1.2-0.3-1.9c0-1.4,0.2-2.8,0.8-4.2s1.2-2.7,2.1-3.9c0.9-1.2,2-2.4,3.2-3.5c1.2-1,2.6-2,4-2.7c1.4-0.8,3-1.4,4.5-1.8
			c1.6-0.4,3.2-0.6,4.8-0.6c0.5,0,1,0,1.5,0.1C493.7,99,494,99.1,494.4,99.1z M492.2,109.5c0,0,0.1-0.1,0.5-0.1c0.2,0,0.4,0,0.6,0.1
			c0.2,0,0.5,0.1,0.7,0.2c0.2,0.1,0.5,0.1,0.7,0.2c0.1,0.1,0.2,0.1,0.4,0.2c-0.1,0-0.2,0-0.3,0c-0.2,0-0.3,0-0.4,0
			c-0.3,0-0.5,0-0.8,0c-0.3,0-0.5-0.1-0.7-0.1s-0.4-0.1-0.5-0.2c-0.1,0-0.2-0.1-0.2-0.2C492.1,109.6,492.1,109.6,492.2,109.5z"/>
		<path class="st1" d="M517.8,114.1c-1.3,2-2.6,3.5-4,4.4c-1.3,0.9-2.7,1.4-4.1,1.4c-0.4,0-0.8-0.1-1.1-0.2
			c-0.3-0.1-0.6-0.3-0.8-0.6c-0.2-0.2-0.4-0.5-0.5-0.9s-0.2-0.7-0.2-1c0-0.1,0-0.2,0-0.4c0-0.1,0-0.2,0-0.3c0.6,0,1.2-0.1,1.8-0.2
			c0.7-0.1,1.3-0.3,2-0.5c0.7-0.2,1.3-0.5,1.9-0.8c0.6-0.3,1.1-0.7,1.6-1.1c0.5-0.4,0.8-0.9,1.1-1.4c0.3-0.5,0.4-1,0.4-1.6
			c0-0.4-0.1-0.8-0.2-1.1c-0.2-0.3-0.4-0.5-0.6-0.7c-0.2-0.2-0.5-0.3-0.8-0.4c-0.3-0.1-0.6-0.1-0.9-0.1c-0.5,0-1,0.1-1.5,0.3
			c-0.6,0.2-1.2,0.5-1.8,0.9c-0.6,0.4-1.2,0.8-1.8,1.3s-1.1,1.1-1.5,1.7s-0.8,1.3-1.1,2c-0.3,0.7-0.4,1.5-0.4,2.3
			c0,0.8,0.2,1.4,0.5,1.9c0.3,0.5,0.7,0.9,1.1,1.2c0.5,0.3,1,0.5,1.5,0.6c0.5,0.1,1,0.2,1.5,0.2c0.7,0,1.3-0.1,2.1-0.3
			s1.5-0.6,2.2-1.1c0.7-0.5,1.5-1.1,2.2-1.9c0.7-0.8,1.5-1.8,2.2-2.9l0-0.1l-0.7-0.6L517.8,114.1z M507.5,115.6
			c0.3-0.8,0.7-1.6,1.2-2.3c0.5-0.8,1.1-1.5,1.7-2c0.6-0.6,1.2-1,1.8-1.3c0.6-0.3,1.1-0.5,1.6-0.5c0.2,0,0.3,0.1,0.5,0.2
			s0.2,0.4,0.2,0.6c0,0.3-0.1,0.6-0.2,0.9c-0.2,0.4-0.4,0.7-0.6,1.1s-0.6,0.8-1,1.1c-0.4,0.4-0.9,0.7-1.4,1s-1.1,0.6-1.8,0.8
			C508.8,115.4,508.1,115.6,507.5,115.6z"/>
		<path class="st1" d="M534.4,115c-0.2,0.3-0.5,0.7-0.7,1s-0.5,0.7-0.8,1.1c-0.3,0.4-0.6,0.7-0.9,0.9c-0.3,0.3-0.6,0.5-1,0.7
			s-0.6,0.2-0.9,0.2c-0.2,0-0.3,0-0.5-0.1c-0.1-0.1-0.2-0.3-0.2-0.6c0-0.3,0.1-0.7,0.2-1.2c0.2-0.5,0.4-1,0.6-1.5
			c0.2-0.5,0.5-1.1,0.8-1.7c0.3-0.6,0.6-1.1,0.9-1.6c0.3-0.5,0.6-1,0.8-1.4c0.3-0.4,0.5-0.8,0.6-1.1l0-0.1l-0.7-0.3l-0.2,0.2
			c-0.2,0.2-0.4,0.4-0.6,0.6s-0.4,0.4-0.6,0.6c-0.1-0.6-0.5-1-0.9-1.3c-0.5-0.3-1.3-0.5-2.3-0.5c-0.5,0-1,0.1-1.5,0.2
			c-0.6,0.1-1.2,0.4-1.8,0.7s-1.3,0.7-1.9,1.3c-0.7,0.5-1.3,1.2-1.9,1.9c-0.7,0.9-1.2,1.7-1.5,2.5c-0.3,0.8-0.4,1.5-0.4,2.1
			c0,0.5,0.1,0.9,0.2,1.3c0.2,0.4,0.4,0.7,0.7,1s0.6,0.5,1,0.6c0.4,0.1,0.8,0.2,1.2,0.2c0.4,0,0.8,0,1.3-0.1s0.9-0.3,1.4-0.5
			c0.5-0.2,1-0.6,1.5-1c0.4-0.4,0.9-0.8,1.3-1.4v0c0,0.1,0,0.2,0,0.3c0,0.6,0.2,1.1,0.5,1.5s0.8,0.6,1.5,0.6c0.5,0,0.9-0.1,1.3-0.3
			c0.4-0.2,0.8-0.4,1.2-0.7c0.4-0.3,0.8-0.6,1.1-1c0.3-0.4,0.7-0.8,1-1.1s0.6-0.8,0.8-1.2c0.2-0.4,0.5-0.8,0.7-1.1l0-0.1L535,114
			L534.4,115z M530.5,111.7c-0.2,0.2-0.3,0.5-0.5,0.8c-0.2,0.3-0.4,0.7-0.7,1c-0.2,0.4-0.5,0.7-0.7,1c-0.2,0.3-0.4,0.6-0.5,0.8
			c-0.4,0.5-0.8,1-1.2,1.5c-0.4,0.5-0.8,0.9-1.3,1.3s-0.9,0.7-1.5,1s-1.1,0.4-1.6,0.4c-0.5,0-0.9-0.1-1.1-0.5
			c-0.3-0.3-0.4-0.7-0.4-1.3c0-0.7,0.2-1.5,0.6-2.3c0.4-0.9,1-1.7,1.7-2.6c0.5-0.6,1-1,1.5-1.4s1-0.7,1.5-0.9
			c0.5-0.2,0.9-0.4,1.3-0.5c0.4-0.1,0.8-0.1,1.1-0.1c0.5,0,0.8,0.1,1,0.2s0.4,0.3,0.5,0.5c0.1,0.2,0.2,0.4,0.2,0.6
			C530.5,111.5,530.5,111.7,530.5,111.7z"/>
		<path class="st1" d="M551.8,114.1c-0.4,0.5-0.8,1.1-1.3,1.7c-0.5,0.6-1,1.2-1.5,1.7s-1,1-1.5,1.3c-0.5,0.3-0.9,0.5-1.2,0.5
			c-0.1,0-0.2,0-0.3-0.1c0-0.1-0.1-0.2-0.1-0.3c0-0.3,0.1-0.8,0.4-1.4c0.3-0.6,0.6-1.3,1.1-2.1c0.5-0.8,1-1.8,1.5-2.8
			c0.6-1,1.2-2.1,1.8-3.3l0-0.1l-1.4-0.6l0,0.1c-0.3,0.5-0.7,1.1-1.2,1.9c-0.5,0.7-1,1.5-1.6,2.3c-0.6,0.8-1.2,1.6-1.9,2.4
			c-0.7,0.8-1.3,1.5-2,2.1s-1.3,1.1-1.9,1.5c-0.6,0.4-1.2,0.6-1.7,0.6c-0.4,0-0.7-0.1-0.9-0.4c-0.2-0.3-0.2-0.6-0.2-1
			c0-0.6,0.2-1.3,0.4-2c0.3-0.7,0.7-1.5,1.1-2.2c0.4-0.7,0.9-1.5,1.4-2.2c0.5-0.7,0.9-1.3,1.3-1.9l0.1-0.1l-0.8-0.6l-0.1,0
			c-0.5,0.5-1.2,1.1-1.8,1.7c-0.6,0.6-1.2,1.3-1.7,2.1c-0.5,0.7-0.9,1.5-1.3,2.2s-0.5,1.5-0.5,2.3c0,0.5,0.1,0.9,0.2,1.3
			s0.3,0.7,0.6,1c0.2,0.3,0.6,0.5,0.9,0.6s0.7,0.2,1.2,0.2c0.5,0,1-0.1,1.5-0.3c0.5-0.2,1-0.5,1.5-0.8s1-0.8,1.5-1.2
			c0.3-0.3,0.7-0.7,1.1-1.1c-0.1,0.2-0.1,0.3-0.2,0.5c-0.1,0.3-0.1,0.6-0.1,0.9c0,0.2,0,0.5,0.1,0.7c0.1,0.2,0.2,0.4,0.4,0.6
			c0.2,0.2,0.4,0.3,0.6,0.4s0.5,0.1,0.8,0.1c0.5,0,1-0.1,1.4-0.4c0.5-0.2,0.9-0.6,1.4-1s0.9-0.8,1.2-1.3s0.8-0.9,1-1.3
			s0.6-0.8,0.8-1.1c0.2-0.3,0.3-0.5,0.4-0.6l0-0.1L551.8,114.1L551.8,114.1z"/>
		<path class="st1" d="M562.5,116.6c0.5-0.7,0.9-1.3,1.3-1.9l0-0.1l-0.8-0.6l-0.1,0.1c0,0.1-0.2,0.3-0.4,0.5c-0.2,0.3-0.4,0.6-0.7,1
			c-0.3,0.4-0.6,0.8-1,1.3c-0.4,0.5-0.8,0.9-1.2,1.2c-0.4,0.4-0.9,0.7-1.3,0.9c-0.4,0.2-0.8,0.4-1.3,0.4c-0.5,0-0.8-0.1-1.1-0.4
			s-0.5-0.7-0.5-1.4c0-0.5,0.1-1.2,0.3-1.9c0.2-0.7,0.4-1.5,0.8-2.4c0.3-0.8,0.7-1.7,1.1-2.6c0.4-0.9,0.9-1.8,1.3-2.7h5.5l0.4-1
			h-5.3c0.5-0.8,0.9-1.6,1.4-2.4c0.5-0.8,1-1.6,1.4-2.4l0.1-0.1l-0.9-0.5l0,0c-0.4,0.4-0.9,0.8-1.3,1.4c-0.4,0.5-0.8,1.1-1.2,1.6
			c-0.4,0.5-0.7,1-1,1.5c-0.2,0.4-0.4,0.7-0.5,0.9h-2.9l-0.4,1h2.7c-0.6,1.1-1.1,2.1-1.5,3c-0.4,1-0.8,1.9-1,2.7s-0.4,1.5-0.5,2
			c-0.1,0.6-0.2,1-0.2,1.4c0,0.5,0.1,1,0.2,1.4c0.1,0.4,0.3,0.8,0.6,1.1c0.3,0.3,0.6,0.5,1,0.7s0.8,0.3,1.3,0.3
			c0.8,0,1.6-0.2,2.3-0.6c0.7-0.4,1.3-0.9,1.9-1.5C561.5,117.9,562,117.3,562.5,116.6z"/>
		<path class="st1" d="M580,114L580,114c-0.9,1.3-2,2.5-3.3,3.6c-1.2,1-2.5,2-3.9,2.7l0.2-0.5c0.3-0.7,0.7-1.4,1-2.1
			c0.5-1,1-1.9,1.4-2.9c0.5-0.9,0.9-1.8,1.3-2.6c0.4-0.8,0.8-1.6,1.1-2.2s0.6-1.1,0.8-1.5s0.3-0.6,0.3-0.6l0-0.1l-0.9-0.5l0,0.1
			c-0.3,0.5-0.7,1.1-1,1.6c-0.3,0.6-0.7,1.1-1,1.7c-0.4,0.6-0.8,1.2-1.3,1.9c-0.5,0.6-0.9,1.2-1.4,1.8s-1,1.1-1.5,1.7
			c-0.5,0.5-1,1-1.5,1.4c-0.5,0.4-0.9,0.7-1.4,0.9c-0.4,0.2-0.8,0.3-1.2,0.3c-0.2,0-0.4,0-0.5-0.1c-0.1-0.1-0.2-0.2-0.3-0.3
			s-0.2-0.3-0.2-0.5c0-0.2-0.1-0.4-0.1-0.6c0-0.4,0.1-0.9,0.2-1.4c0.1-0.5,0.3-1,0.5-1.5c0.2-0.5,0.5-1,0.7-1.5
			c0.3-0.5,0.5-0.9,0.8-1.3c0.3-0.4,0.5-0.8,0.7-1.1c0.2-0.3,0.4-0.6,0.5-0.7l0.1-0.1l-0.8-0.6l-0.1,0c-0.5,0.4-1,0.9-1.5,1.5
			c-0.5,0.6-1,1.2-1.5,1.8c-0.4,0.6-0.8,1.3-1.1,2c-0.3,0.7-0.4,1.4-0.4,2c0,0.5,0.1,0.9,0.2,1.3c0.1,0.4,0.3,0.8,0.6,1
			c0.2,0.3,0.6,0.5,0.9,0.7c0.7,0.3,1.5,0.3,2.4,0c0.4-0.2,0.8-0.4,1.3-0.7c0.4-0.3,0.9-0.6,1.3-1c0.2-0.2,0.5-0.4,0.7-0.7
			c-0.1,0.1-0.1,0.2-0.2,0.4c-0.2,0.4-0.5,0.9-0.7,1.4c-0.2,0.5-0.5,1-0.8,1.5s-0.5,1-0.7,1.4c-0.9,0.4-1.7,0.9-2.6,1.4
			c-0.8,0.5-1.7,1-2.5,1.6s-1.5,1.2-2.2,1.8s-1.2,1.2-1.7,1.9s-0.9,1.2-1.1,1.9c-0.3,0.6-0.4,1.2-0.4,1.8c0,0.7,0.2,1.3,0.6,1.7
			c0.4,0.4,0.9,0.6,1.5,0.6c0.9,0,1.8-0.3,2.7-0.9c0.9-0.6,1.8-1.5,2.6-2.6c0.9-1.1,1.7-2.4,2.6-4c0.8-1.5,1.7-3.2,2.7-5.1
			c2-1.1,3.7-2.2,5.1-3.4c1.4-1.2,2.6-2.5,3.5-3.9l0-0.1L580,114z M568.9,123.6c-0.3,0.7-0.7,1.4-1,2.1c-0.4,0.8-0.8,1.6-1.2,2.3
			c-0.4,0.7-0.9,1.4-1.3,2.1c-0.4,0.6-0.9,1.2-1.3,1.7c-0.4,0.5-0.9,0.9-1.3,1.1c-0.4,0.3-0.9,0.4-1.3,0.4c-0.3,0-0.5-0.1-0.7-0.3
			c-0.2-0.2-0.3-0.4-0.3-0.7c0-0.5,0.2-1.1,0.7-1.8c0.4-0.7,1.1-1.5,1.8-2.3s1.7-1.6,2.8-2.5C566.7,125,567.8,124.3,568.9,123.6z"/>
	</g>
	<g>
		<polygon class="st2" points="150,69.3 126,26.3 126,83.7 133.4,83.7 133.4,56 149.8,85.6 166.3,55.7 166.3,83.7 173.8,83.7 
			173.7,26.4 		"/>
		<path class="st2" d="M242.5,89.7c0,5-1.8,9.3-5.3,12.8c-3.5,3.5-7.8,5.3-12.8,5.3c-4,0-7.5-1.2-10.7-3.5c-3.1-2.2-5.4-5-6.8-8.1
			l-0.3-0.6H199l0.4,1.3c1.7,5.2,4.8,9.5,9.3,13c4.6,3.5,9.9,5.3,15.7,5.3c7,0,13.1-2.5,18-7.4c5-5,7.5-11,7.5-18v-58h-7.4
			L242.5,89.7L242.5,89.7z"/>
		<path class="st2" d="M282.8,30.8c-7.3,0-13.7,2.6-18.9,7.8s-7.8,11.5-7.8,18.9c0,7.4,2.6,13.7,7.8,18.9s11.5,7.8,18.9,7.8
			s13.7-2.6,18.9-7.8s7.8-11.6,7.8-18.9c0-7.3-2.6-13.7-7.8-18.9C296.5,33.5,290.2,30.8,282.8,30.8z M282.8,77
			c-5.4,0-10-1.9-13.8-5.7c-3.8-3.8-5.7-8.4-5.7-13.8c0-5.4,1.9-10,5.7-13.8c3.8-3.8,8.5-5.6,13.8-5.6s10,1.9,13.8,5.6
			c3.8,3.8,5.7,8.4,5.7,13.8c0,5.4-1.9,10-5.7,13.8S288.2,77,282.8,77z"/>
		<path class="st2" d="M344.6,66.3L344.6,66.3c4.9-3.4,7.3-8.5,7.3-15.2c0-7.9-3.4-13.6-10.1-16.8c-3.3-1.6-6.6-2.5-10-2.5h-17.2
			v51.9h7.2v-19l19.6,19h10.5l-14.5-14C339.9,69,342.3,67.9,344.6,66.3z M322,38.9h10c2.3,0,4.6,0.5,6.7,1.6c4.1,2,6.1,5.4,6.1,10.5
			c0,5-2,8.5-6.1,10.5c-2.1,1.1-4.3,1.6-6.6,1.6h-10V38.9z"/>
		<polygon class="st2" points="443.7,31.7 436.4,31.7 436.4,83.7 476.9,83.7 476.9,76.5 443.7,76.5 		"/>
		<rect x="484.8" y="31.7" class="st2" width="7.2" height="52"/>
		<polygon class="st2" points="540.2,68.9 506.7,35.8 500,29.1 500,83.7 507.3,83.7 507.3,46.5 540.7,79.6 544.8,83.7 547.4,83.7 
			547.4,31.7 540.2,31.7 		"/>
		<rect x="555.4" y="31.7" class="st2" width="7.2" height="52"/>
		<polygon class="st2" points="226.8,83.7 235.2,83.7 206.8,29.5 202.6,37.3 178.2,83.7 186.8,83.7 194.4,69.3 212.3,69.3 
			208.8,62.4 198,62.4 206.7,45.8 		"/>
		<path class="st2" d="M421.8,64.4c-1.4,3.7-3.7,6.8-6.8,9.1c-3.4,2.5-7.3,3.7-11.6,3.7c-5.5,0-10-1.9-13.9-5.7
			c-3.9-3.8-5.7-8.4-5.7-13.9c0-5.5,1.9-10,5.7-13.9c3.8-3.9,8.4-5.7,13.9-5.7c4.4,0,8.2,1.3,11.8,3.9c3.1,2.4,5.3,5.5,6.8,9.5h7.6
			c-1.7-6.2-4.9-11.2-9.6-14.9c-4.8-3.8-10.4-5.7-16.6-5.7c-7.4,0-13.8,2.6-19,7.8c-5.2,5.3-7.8,11.6-7.8,19c0,7.4,2.6,13.8,7.8,19
			c5.2,5.2,11.6,7.8,19,7.8c6,0,11.5-1.9,16.3-5.5c4.6-3.5,7.8-8.4,9.7-14.5L421.8,64.4L421.8,64.4z"/>
		<path class="st2" d="M615.7,64.4c-1.4,3.7-3.7,6.8-6.8,9.1c-3.4,2.5-7.3,3.7-11.6,3.7c-5.5,0-10-1.9-13.9-5.7
			c-3.8-3.8-5.7-8.4-5.7-13.9c0-5.5,1.9-10,5.7-13.9c3.8-3.9,8.4-5.7,13.9-5.7c4.4,0,8.2,1.3,11.8,3.9c3.1,2.4,5.3,5.5,6.8,9.5h7.6
			c-1.7-6.2-4.9-11.2-9.6-14.9c-4.8-3.8-10.4-5.7-16.6-5.7c-7.4,0-13.8,2.6-19,7.8c-5.2,5.3-7.8,11.6-7.8,19c0,7.4,2.6,13.8,7.8,19
			c5.2,5.2,11.6,7.8,19,7.8c6,0,11.5-1.9,16.3-5.5c4.6-3.5,7.8-8.4,9.7-14.5L615.7,64.4L615.7,64.4z"/>
	</g>
	<g>
		<path class="st1" d="M55.1,47.6c-4.7,0-8.5-3.8-8.5-8.5s3.8-8.5,8.5-8.5c4.7,0,8.5,3.8,8.5,8.5S59.8,47.6,55.1,47.6z"/>
		<path class="st2" d="M99.9,27.9l-1.4-2.7l-3.8,1c-10.1,2.7-21,13-30,28.5c-3.6,6.1-6.6,12.7-8.9,19.2l-0.6,1.7l-0.6-1.7
			c-2.4-6.7-5.6-13.5-9.4-19.8C36,38.4,24.6,28.1,14.1,25.7l-3-0.7l-1.3,2.6c-3.6,7.1-5.4,14.8-5.4,22.8c0,27.8,22.6,50.4,50.4,50.4
			c1.2,0,2.4,0,3.6-0.1h0c0.1-3.5,0.4-7.1,1.1-10.9c0.1-0.8,0.3-1.7,0.4-2.6l0.2-1c1.4-6.8,3.7-12.9,5.4-16.7
			c1.7-3.8,2.7-5.9,3.4-6.8l-0.2-0.2l0.2,0.1c7.4-14,16.7-24.5,24.9-28.2l0.6-0.3l0.2,0.6c2,5,2.9,10.2,2.9,15.7
			c0,19.5-13.5,36.7-32.3,41.5c-0.4,1.6-0.8,4.1-1,7.9c23.3-4.5,40.8-25.7,40.8-49.5C105.2,42.5,103.4,34.9,99.9,27.9z M50.7,93.1
			C28.6,91,11.9,72.6,11.9,50.4c0-5.5,1-10.9,3.1-15.9l0.2-0.6l0.6,0.2c16.8,7.2,34,38.6,35.6,58.3l0.1,0.7L50.7,93.1z"/>
		<path class="st1" d="M22.8,21.7c13-14.5,34.3-18.6,52-9.2c4.6,2.4,8.6,5.6,12,9.5c2.4-1.5,4.7-2.6,7-3.3
			c-4.2-5.3-9.4-9.6-15.5-12.9C56.8-5.6,30.6,0.3,15.7,18.5C18.1,19.2,20.4,20.3,22.8,21.7z"/>
	</g>
</g>
</svg>
