<svg xmlns="http://www.w3.org/2000/svg" viewBox="0 0 119.42 147.89"><defs><style>.cls-1{fill:#422e2b;}.cls-2{fill:none;}.cls-3{fill:#e2bda3;}.cls-4{fill:#e4c5a9;}.cls-5{fill:#f5d3b8;}.cls-6{fill:#3d3d3d;}.cls-7{fill:#50abd7;}</style></defs><g id="Layer_2" data-name="Layer 2"><g id="Layer_1-2" data-name="Layer 1"><path class="cls-1" d="M86.35,51.66s4.73-4.87,6.85-.23-.87,17.41-6.91,17.11c-.56,3.61-4.6,16.73-13.74,23.72,3.78,4,7.79,6.38,12,6.38,25.52,0,22.8-18.12,22.65-35.42s-10-50-34.58-60C49.22-6.26,40.69,8.1,39.89,9.58c-1-.43-5.48-1.38-13.55,8.42a69.65,69.65,0,0,0-10,17.3A89.64,89.64,0,0,0,9.43,69.83c-.26,15,.5,28.81,22.77,28.81,4.44,0,8.68-2.69,12.67-7.13-6.51-5.26-10.43-13.86-12.15-23-6,.11-9.62-12.52-7.52-17.11s6.84.23,6.84.23c.11-.9.23-2.52.37-3.37C35.11,31.68,44.21,26,44.21,26c8.08,9.29,14.12,10.72,23.48,11.48s13.9,5.45,17.15,10.05a7.91,7.91,0,0,1,1,1.93"/><polygon class="cls-2" points="79.54 107.99 79.54 107.99 79.54 107.99 79.54 107.99"/><path class="cls-3" d="M79.54,108l-.06.07Z"/><path class="cls-4" d="M81.25,102.64h0L77.56,87.42l0-.1c-.14-.06-.27-.13-.4-.2l-35.89.6L41,89.06a18.39,18.39,0,0,0,3,2.66S48.08,98.44,58.19,98s12.44-4.84,17.07-2.75S80.67,107,79.54,108a5.93,5.93,0,0,0,1.87-4.09v0A4.69,4.69,0,0,0,81.25,102.64Z"/><path class="cls-5" d="M80,105.84c0-3.24-1.28-9-4.74-10.6-4.63-2.09-7,2.3-17.07,2.75s-14.27-6.27-14.27-6.27A18.09,18.09,0,0,1,41,89.12v0A.41.41,0,0,1,41,89l-2.9,13.66h0a4.52,4.52,0,0,0-.16,1.21c0,3.17,3.14,6,8,7.86C72.79,117.32,80,105.9,80,105.84Z"/><path class="cls-4" d="M79.48,108.06l.06-.07h0a3.46,3.46,0,0,0,.46-2.15c0,.06-7.21,11.48-34,5.9A39.58,39.58,0,0,0,59.67,114C68.48,114,76.06,111.56,79.48,108.06Z"/><path class="cls-5" d="M87.17,59.16A36.44,36.44,0,0,0,87,52.77,55.73,55.73,0,0,1,87.17,59.16Z"/><path class="cls-5" d="M77.49,87.12h-.35c.13.07.26.14.4.2Z"/><path class="cls-6" d="M31.53,54.58c0,.14,0,.28,0,.41C31.52,54.85,31.52,54.72,31.53,54.58Z"/><path class="cls-6" d="M31.53,54.55c.06-1.2.16-2.38.29-3.54-.06.47-.1.93-.15,1.39C31.61,53.13,31.56,53.85,31.53,54.55Z"/><path class="cls-6" d="M87.17,59.16c-.2,3.6-.75,7.13-1.11,9.47,0,0,.11-.48.26-1.33A61,61,0,0,0,87.17,59.16Z"/><path class="cls-5" d="M92.07,53.24C93.75,56.91,91,66.8,86.32,67.3c-.15.85-.26,1.33-.26,1.33,6,.3,9.76-12.48,7.65-17.11S86.86,51,86.86,51c.06.47.11.93.15,1.39C88.15,51.63,90.74,50.32,92.07,53.24Z"/><path class="cls-4" d="M87.17,59.16a61,61,0,0,1-.85,8.14c4.65-.5,7.43-10.39,5.75-14.06-1.33-2.92-3.92-1.61-5.06-.84l0,.37A36.44,36.44,0,0,1,87.17,59.16Z"/><path class="cls-5" d="M26.61,53.24c1.33-2.92,3.92-1.61,5.06-.84,0-.46.09-.92.15-1.39,0,0-4.73-4.12-6.85.51s1.56,17.23,7.52,17.11c-.08-.45-.16-.89-.23-1.34C27.67,66.65,25,56.88,26.61,53.24Z"/><path class="cls-4" d="M26.61,53.24C25,56.88,27.67,66.65,32.26,67.29A60.33,60.33,0,0,1,31.51,55c0-.13,0-.27,0-.41v0c0-.7.08-1.42.14-2.15C30.53,51.63,27.94,50.32,26.61,53.24Z"/><path class="cls-5" d="M44.7,91.6A23.22,23.22,0,0,0,57,96.69a20.82,20.82,0,0,0,15.35-4.34l0,0c9.13-7,13.38-20.09,13.94-23.7.36-2.34.9-5.87,1.11-9.47a53.64,53.64,0,0,0-.14-6.39,14.91,14.91,0,0,0-.94-3.23c-6.66-7.66-16.52-7.74-27-9.17S43.75,29.8,43.75,29.8c-5.35,2.92-11,17.05-11.57,18.58-.14.85-.26,1.73-.36,2.63-.13,1.16-.23,2.34-.29,3.54v0c0,.14,0,.27,0,.41a60.27,60.27,0,0,0,.85,12.31c.15.85.26,1.33.26,1.33h-.13c1.72,9.11,5.64,17.71,12.15,23"/><path class="cls-5" d="M32.36,67.3h-.1c.07.45.15.89.23,1.34h.13S32.51,68.15,32.36,67.3Z"/><path class="cls-5" d="M31.53,54.55v0Z"/><path class="cls-5" d="M32.26,67.29h.1A60.27,60.27,0,0,1,31.51,55,60.33,60.33,0,0,0,32.26,67.29Z"/><path class="cls-4" d="M43.77,30s5.16,9.14,15.6,10.57,20.31,1.51,27,9.17a8.4,8.4,0,0,0-1-1.92c-3.25-4.61-8.54-10-17.9-10.8S52.08,34.79,44,25.51c0,0-9.1,6.42-11.8,23C32.8,47,38.42,32.89,43.77,30Z"/><path class="cls-7" d="M119.42,124.44a77.14,77.14,0,0,0-3.53-7.62c-5.28-9.59-32.81-13.95-34.61-14.23v0h0a4.76,4.76,0,0,1,.16,1.25v0A6,6,0,0,1,79.58,108h0a.13.13,0,0,0-.06.07c-3.42,3.5-11,5.93-19.81,5.93A39.59,39.59,0,0,1,46,111.73C41.11,109.87,38,107,38,103.87a4.47,4.47,0,0,1,.16-1.21h0v-.07c-1.81.28-29.32,4.64-34.6,14.23A77.14,77.14,0,0,0,0,124.44a87.74,87.74,0,0,0,119.42,0Z"/></g></g></svg>