<svg xmlns="http://www.w3.org/2000/svg" viewBox="0 0 132.02 145.37"><defs><style>.cls-1{fill:#423030;}.cls-2{fill:#50abd7;}.cls-3{fill:#f5d3b8;}.cls-4{fill:#e4c5a9;}</style></defs><g id="Layer_2" data-name="Layer 2"><g id="Layer_1-2" data-name="Layer 1"><path class="cls-1" d="M65.66,0C60.91.18,36,2.18,28,25.51a131.56,131.56,0,0,0-6.89,43.24,46.8,46.8,0,0,0,.82,9.32c.5,2.79,1.21,4.77,2.07,5.66h0c2.77,4.8,8.11,7.91,18.28,7.91a12.49,12.49,0,0,0,6.88-2.29,4.82,4.82,0,0,0,2.29-1.77A28.53,28.53,0,0,0,54,85c-.32-.26-.63-.53-.94-.8,2-6.1,1.49-15.22,1.49-15.22L65.33,30.9,66.05,11l.72,19.93L77.52,69S77,79.17,79.37,85.21c-.21.17-.41.35-.63.51A25.68,25.68,0,0,0,80.6,87.5,4.9,4.9,0,0,0,83,89.37H83a12.44,12.44,0,0,0,6.83,2.27c10.22,0,15.56-3.14,18.32-8a11.47,11.47,0,0,0,1.91-5,49.81,49.81,0,0,0,1-11.6,132.28,132.28,0,0,0-6.92-41.54C96.12,2.18,71.19.18,66.45,0"/><path class="cls-2" d="M66,145.37a87.55,87.55,0,0,0,66-29.93c-1-2.31-2-4.42-3-6.15-5.93-10.77-36.82-15.66-38.84-16v0h0a5.47,5.47,0,0,1,.18,1.39v0a6.74,6.74,0,0,1-2.1,4.59h0l-.07.08C84.4,103.37,75.89,106.1,66,106.1a44.44,44.44,0,0,1-15.36-2.53c-5.52-2.09-9-5.26-9-8.83a5.12,5.12,0,0,1,.19-1.35h0v-.07c-2,.31-32.91,5.2-38.84,16C2,111,1,113.13,0,115.44A87.54,87.54,0,0,0,66,145.37Z"/><path class="cls-3" d="M91.9,94.69H92a2.61,2.61,0,0,1-.28-.17l-.09-.07-.18-.14-.1-.09-.15-.14L91.07,94s-.09-.09-.13-.15a.64.64,0,0,1-.1-.13,1,1,0,0,1-.12-.16.71.71,0,0,1-.1-.14,1.63,1.63,0,0,1-.11-.17l-.09-.15a1.62,1.62,0,0,1-.1-.18l-.09-.17-.09-.17a1.54,1.54,0,0,1-.08-.19L90,92.18c0-.07-.06-.14-.08-.2a1.34,1.34,0,0,1-.07-.18l-.08-.21a1.09,1.09,0,0,1,0-.17,1.55,1.55,0,0,1-.08-.23s0-.1-.05-.15l-.07-.25c0-.05,0-.09,0-.14s0-.18-.07-.27l0-.12c0-.1,0-.19-.07-.29a.29.29,0,0,0,0-.09l-.06-.32a25.39,25.39,0,0,1-.46-4.43c-1.17-2.78-45.28-.07-45.28-.07a29.84,29.84,0,0,1-.91,4.37,1.21,1.21,0,0,0-.05.18c0,.1-.07.21-.1.31s0,.16-.08.24a1.55,1.55,0,0,1-.08.23,1.18,1.18,0,0,1-.07.2,1.72,1.72,0,0,1-.07.21A1.19,1.19,0,0,1,42,91c0,.07-.05.14-.07.21a1.19,1.19,0,0,0-.08.2l-.09.21c0,.1-.09.19-.13.29a2.72,2.72,0,0,0-.11.25l-.1.19-.09.19a1.74,1.74,0,0,0-.1.19l-.1.18-.11.18a1.74,1.74,0,0,1-.11.18l-.1.17-.21.3-.1.14c-.05.06-.09.12-.14.17l-.12.14-.13.15-.12.13-.18.2,0,.06h0A4.34,4.34,0,0,0,39.64,96c0,3.24,3.79,6.14,9.72,8a55.57,55.57,0,0,0,16.51,2.31c10.62,0,19.77-2.49,23.89-6.08l.08-.07h0A5.73,5.73,0,0,0,92.1,96v0a4.28,4.28,0,0,0-.2-1.28Z"/><path class="cls-4" d="M97.3,36C96.74,11.2,66.79,11.26,66,11.27S35.24,11.2,34.67,36c-.39,17.26-.09,16.67.52,19.52s2,9.24,2.32,12.46S40.05,78.45,42,86.28c2.09,8.25,9.25,14.82,9.9,15.5a21.86,21.86,0,0,0,2,1.41c1.23,1.06,6.15,4.8,11,4.81h2.27c4.79,0,9.5-3.4,10.84-4.81.62-.65,1.89-1.23,2.54-1.91A54.27,54.27,0,0,0,89.19,89c3.38-6.49,5-17.85,5.27-21.08s1.71-9.61,2.32-12.46S97.7,53.23,97.3,36Z"/><path class="cls-3" d="M97.3,34.22C96.74,9.45,66.79,9.51,66,9.52s-30.75-.07-31.32,24.7c-.39,17.26-.09,16.67.52,19.52s2,9.24,2.32,12.46.28,13.17,4.63,20.06a90,90,0,0,0,9,12.12c.65.68,2.1,2.47,2.78,3.06,1.27,1.09,6.48,5,11.5,4.79h1.15c5,.27,10.08-3.32,11.48-4.79.62-.65,2.14-2.38,2.79-3.06a90,90,0,0,0,9-12.12c4.35-6.89,4.33-16.83,4.62-20.06s1.71-9.61,2.32-12.46S97.7,51.48,97.3,34.22Z"/><path class="cls-1" d="M100.05,46.49c1.14-.8,2-1.49,2-1.49s-3-22-5.43-25.74S79.05,7,64,6.72,38.05,15,34.5,19.26c-2.47,3-3.65,15.15-4.15,22.35l-.53.19c-5.23,1.8,2.23,16.2.42,16.85S33.05,64,33.05,64s0-4,9.53-7.14c7.47-2.46,19.05-10.2,22.83-13.43,2.42,2.13,11.54,9.65,20,12.43C94.92,59,98.92,60,98.92,60s1.63-1.7-.18-2.35C97.41,57.18,100,51.37,100.05,46.49Z"/><path class="cls-3" d="M32.53,60.49C30.85,63.75,33.64,72.55,38.28,73c.15.75.26,1.18.26,1.18-6,.27-9.76-11.11-7.65-15.23s7.85-.44,7.85-.44c-.06.41-1.1.82-1.14,1.23C36.45,59.06,33.86,57.89,32.53,60.49Z"/><path class="cls-4" d="M37.43,65.75A49.88,49.88,0,0,0,38.28,73c-4.64-.45-7.43-9.25-5.75-12.51,1.33-2.6,3.92-1.43,5.07-.75,0,.11,0,.22,0,.33A28.78,28.78,0,0,0,37.43,65.75Z"/><path class="cls-3" d="M99.51,60.49c1.67,3.26-1.11,12.06-5.76,12.51-.15.75-.26,1.18-.26,1.18,6,.27,9.77-11.11,7.65-15.23s-7.84-.44-7.84-.44c0,.41,1.1.82,1.14,1.23C95.58,59.06,98.17,57.89,99.51,60.49Z"/><path class="cls-4" d="M94.6,65.75A47.18,47.18,0,0,1,93.75,73c4.65-.45,7.43-9.25,5.76-12.51-1.34-2.6-3.93-1.43-5.07-.75l0,.33A28.8,28.8,0,0,1,94.6,65.75Z"/><polygon class="cls-3" points="91.09 21.91 92.39 21.54 90.86 21.2 93.26 20.77 92.05 20.44 92.7 20.04 92.34 19.68 91.87 19.35 89.09 19.21 88.66 18.91 92.18 18.2 90.6 18.01 91.18 17.57 87.43 17.72 91.32 16.8 88.94 16.81 90.72 16.15 89.13 16.07 90.72 15.4 88.74 15.43 89.19 14.96 87.07 15.09 89.37 14.17 87.73 14.21 90.44 13.12 88 13.4 88.82 12.78 87.07 12.93 88.29 12.16 86.72 12.29 88.81 11.17 84.42 12.36 85.72 11.51 86.51 10.8 84.08 11.4 86.47 10 87.62 9.06 84.29 10.15 82.74 10.49 83.58 9.69 86.48 7.77 82.08 9.66 83.96 8.21 84 7.73 81.68 8.65 83.16 7.3 83.79 6.42 82.83 6.55 80.01 8.01 79.68 7.8 79.97 7.13 80.03 6.59 80.11 6.02 78.38 6.95 79.52 5.45 77.78 6.47 77.52 6.19 79.57 3.6 78.67 3.88 79.14 2.69 76.59 4.87 75.74 5.22 76.56 3.56 76 3.54 75.17 3.92 74.17 4.62 74.42 3.48 73.53 4.07 74.56 1.42 73.39 2.52 72.44 3.36 72.07 3.1 71.72 2.76 71.51 2.02 71.65 0.2 70.31 2.53 70.43 0.47 69.57 1.65 69.35 0.36 68.87 0 68.04 1.71 67.53 1.81 67.08 1.37 66.55 1.67 66.04 2.19 65.56 1.58 65.04 1.01 64.49 0.46 64.26 3.61 63.72 2.81 62.86 0.37 62.7 2.37 62.12 1.91 61.4 1.08 61.45 3.06 60.32 1.07 60.31 2.56 59.35 1.38 59.96 4.06 59.39 3.84 59.09 4.19 57.37 1.87 57.74 3.49 56.1 1.65 57.01 3.96 56.19 3.53 54.42 1.83 55.52 4.08 55.76 5.07 55.57 5.47 53.42 3.62 53.51 4.38 53.45 4.93 51.85 3.93 52.54 5.2 52.94 6.12 52.85 6.56 52.05 6.38 50.55 5.66 49.04 5.01 50.79 6.86 48.91 5.98 50.48 7.58 50.38 7.96 49.78 8.01 49.74 8.42 47.6 7.56 46.05 7.12 48.89 9.19 49.09 9.7 47.28 9.15 47.75 9.8 46.49 9.59 43.81 8.76 43.39 9.02 45.56 10.39 47.11 11.43 43.01 10.17 43.71 10.86 45.75 12.02 44.26 11.86 41.25 11.22 41.98 11.88 45.23 13.3 42.14 12.73 44.48 13.79 41.48 13.33 41.52 13.73 41.47 14.1 40.82 14.33 42.33 15.05 43.91 15.74 42.79 15.86 41.21 15.92 42.35 16.49 43.45 17.01 39.98 16.83 41.6 17.43 41.8 17.8 40.32 17.98 42.88 18.61 42.02 18.86 42.08 19.21 41.02 19.47 42.44 19.91 41.75 20.21 42.49 20.58 40.29 20.84 41.72 21.23 39.86 21.55 42.27 21.91 43.45 22.23 37.83 22.67 40.59 22.96 41.29 23.29 38.85 23.76 39.83 24.07 43.19 24.19 40.82 24.71 38.71 25.27 39.7 25.54 38.55 26.05 43.02 25.86 39.92 26.63 40.22 26.95 43.34 26.82 39.78 27.78 40.8 27.97 39.17 28.67 40.34 28.82 40.19 29.24 39.96 29.69 44.33 29.02 42.69 29.79 42.28 30.27 43.45 30.33 44.09 30.51 44.51 30.75 44.18 31.23 43.26 31.92 44.05 32.04 45.63 31.85 44.9 32.51 46.27 32.36 45.91 32.89 43.62 34.27 44.88 34.15 47.27 33.47 46.69 34.14 43.97 35.92 47.64 34.49 45.3 36.17 48.12 35.08 47.08 36.11 47.67 36.23 48.92 35.92 47.02 37.61 50.58 35.73 48.39 37.71 50.54 36.67 51.09 36.74 50.47 37.72 51.55 37.37 51.81 37.66 50.91 38.98 53.48 37.22 51.49 39.64 51.56 40.2 54.5 37.81 54.44 38.46 52.3 41.49 53.67 40.63 56.03 38.42 54.84 40.64 54.96 41.26 56.07 40.49 56.64 40.44 57.57 39.79 56.5 42.51 57.39 41.94 57.65 42.51 59.25 40.31 59.52 40.8 60.43 39.74 59.62 43.21 60.45 42.37 60.96 42.43 61.63 41.87 62.4 40.66 62.51 42.49 62.89 43.3 63.42 43.35 64.22 40.65 64.51 43 65.11 40.62 65.56 40.64 66.01 40.73 66.67 44 67.15 43.15 67.68 43.2 67.75 40.33 68.5 41.86 69.24 42.96 69.88 43.33 69.76 41.06 70.26 41.11 70.74 41.1 72.12 43.3 72.43 42.69 71.54 39.57 73.53 42.62 73.83 42.1 72.87 39.44 74.49 41.31 75.08 41.35 74.43 39.57 75.57 40.44 75.04 39 77.39 41.28 77.41 40.56 76.02 38.3 78.25 40.14 78.92 40.19 78.92 39.55 77.36 37.47 77.69 37.26 78.67 37.62 80.96 39.04 79.38 37.2 82.71 39.31 81.75 38.02 82.75 38.23 82.65 37.64 83.29 37.57 82.89 36.81 84.91 37.59 84.26 36.7 84.17 36.18 82.68 34.89 82.09 34.16 84.31 34.92 86.14 35.41 84.45 34.15 85.4 34.18 83.79 33.05 86.58 33.87 83.85 32.32 86.76 33.12 87.04 32.82 85.31 31.78 87.75 32.28 85.6 31.15 89.69 32.12 88.85 31.45 89.44 31.23 86.83 30.09 88.86 30.28 90.79 30.4 88.53 29.45 87.24 28.78 87.78 28.55 88.2 28.29 91.6 28.6 90.31 27.98 89.68 27.49 90.64 27.29 90.25 26.86 90.85 26.58 90.61 26.18 88.63 25.59 87.24 25.1 90.35 25.08 91.89 24.85 87.66 24.17 90.39 24.02 87.62 23.52 92.76 23.41 89.57 22.94 92.7 22.66 90.91 22.27 91.09 21.91"/></g></g></svg>