<svg xmlns="http://www.w3.org/2000/svg" viewBox="0 0 70.45 91.07"><defs><style>.cls-1{fill:#50abd7;}.cls-2{fill:#f5d3b8;}.cls-3{fill:#e4c5a9;}.cls-4{fill:#422e2b;}</style></defs><g id="Layer_2" data-name="Layer 2"><g id="Layer_1-2" data-name="Layer 1"><path class="cls-1" d="M0,71.56c2.54-6.28,12.07-7.69,17.47-9.49,4.83-1.61,7.07-3.86,7.76-4.68a.35.35,0,0,1,.28-.13.46.46,0,0,1,.27.11c15.81,15.58,24.69,5.7,24.69,5.7a.48.48,0,0,1,0-.13c0-.19.24-.35,1,1.13,1,2,3,1,10.42,3.43,5.88,1.93,8,13.33,8.56,17.54-8.15,4.48-17.51,6-27.47,6A57,57,0,0,1,0,71.56Z"/><path class="cls-2" d="M29.42,47.13c3.42.65,8.89-2,8.89-3.25a9.35,9.35,0,0,0-2.73-7.15A8.56,8.56,0,0,1,33,28c.88-2.6,5.27-1,6.64-.35s4.79-4.75,6.16-4.1,2,3.65,2.19.49,2.6,1,3.28-.94a12,12,0,0,0,.49-2.7v-.13c.18-2,.19-4.36.19-5.62,0-2,0-2.6,3.94-2.9s6.32,1.6,7.69,2.25A1.45,1.45,0,0,0,65,14c.87,2.34,2.66,7.43,2.59,9.43-.08,2.62-1.08,3.62-.08,8.62s-2,26-8,27A12,12,0,0,1,50.64,57c-.13,1-.21,2.07-.25,3.27,0,.81,0,1.71.1,2.66a.48.48,0,0,0,0,.13S41.59,73,25.78,57.37a.46.46,0,0,0-.27-.11,108.08,108.08,0,0,0,.7-11.86l.18.33c0-.06,0-.12,0-.17A5.67,5.67,0,0,0,29.42,47.13Z"/><path class="cls-3" d="M50.64,57a48.63,48.63,0,0,1-8.17-7.89l-3-4s6.1,10,11.05,13Z"/><path class="cls-3" d="M42.47,37.7s0,3.5-2.33,2.34L37,38.47C38.81,39.25,41.69,40.05,42.47,37.7Z"/><path class="cls-3" d="M41.47,31.07s-1.78,1.72-.39,2.86l1.39,1.14S40.47,33.07,41.47,31.07Z"/><path class="cls-4" d="M16.33,22.51h0S19.57,6,34.88,1.47,57.57,4,62.77,7.12,65.57,15,65.57,15l-2.7,1.37c-4.65,5-15.8,16.35-20.41,13.84a12.9,12.9,0,0,1-3.88-3.14c-2.25-.69-5.12-1.08-5.82,1.14C31.57,32,37,38.47,37,38.47l2.47,6.6a39.11,39.11,0,0,1,1.8,6.5,8.62,8.62,0,0,1,0,1.9,4.46,4.46,0,0,1-.72,2.88c-2,2.38-11.69,5.32-19-1.37C13,47.15,14.31,30,16.33,22.51Z"/></g></g></svg>