<svg xmlns="http://www.w3.org/2000/svg" viewBox="0 0 85.95 89.82"><defs><style>.cls-1{fill:#50abd7;}.cls-2{fill:#f5d3b8;}.cls-3{fill:#e4c5a9;}.cls-4{fill:#423030;}.cls-5{fill:#edbc94;}.cls-6{fill:#382828;}.cls-7{fill:#493434;}</style></defs><g id="Layer_2" data-name="Layer 2"><g id="Layer_1-2" data-name="Layer 1"><path class="cls-1" d="M43,89.82A57,57,0,0,0,86,70.34c-.65-1.51-1.3-2.88-1.93-4-3.86-7-24-10.19-25.28-10.39v0h0a3.42,3.42,0,0,1,.12.9v0a4.33,4.33,0,0,1-1.37,3h0l0,.05c-2.5,2.56-8,4.34-14.48,4.34a28.91,28.91,0,0,1-10-1.65c-3.59-1.36-5.88-3.43-5.88-5.75A3.79,3.79,0,0,1,27.2,56h0v0c-1.33.2-21.43,3.39-25.29,10.39-.62,1.13-1.27,2.5-1.92,4A57,57,0,0,0,43,89.82Z"/><path class="cls-2" d="M59.83,56.83h.05l-.18-.11-.06,0-.12-.1s0,0-.06-.06l-.1-.09-.07-.07-.09-.1-.06-.09a.39.39,0,0,1-.08-.1L59,56l-.07-.11-.06-.1-.06-.12-.06-.11-.06-.11a.61.61,0,0,0,0-.12l-.05-.12a.5.5,0,0,1,0-.13,1.17,1.17,0,0,1-.05-.11.78.78,0,0,0,0-.14.49.49,0,0,0,0-.11c0-.05,0-.1,0-.15a.3.3,0,0,1,0-.1c0-.05,0-.11,0-.16l0-.09c0-.06,0-.12,0-.18l0-.07c0-.07,0-.13,0-.19V53.7a1.55,1.55,0,0,1,0-.21,16.46,16.46,0,0,1-.3-2.88c-.76-1.81-29.48,0-29.48,0a20,20,0,0,1-.59,2.84s0,.08,0,.12l-.06.21-.05.15s0,.1,0,.15,0,.09-.05.13,0,.09,0,.14a.69.69,0,0,0-.05.13.69.69,0,0,0-.05.13l-.06.13-.06.14a1.54,1.54,0,0,1-.08.19l-.07.16L27,55.3a.54.54,0,0,1-.07.13l-.06.12-.06.12a.75.75,0,0,0-.07.12.75.75,0,0,0-.07.12.61.61,0,0,0-.07.1c-.05.07-.09.14-.14.2l-.07.09a.44.44,0,0,1-.08.11l-.08.1-.09.09-.08.09-.11.12v0h0a2.84,2.84,0,0,0-.12.81c0,2.11,2.46,4,6.32,5.24a36.16,36.16,0,0,0,10.75,1.5c6.92,0,12.87-1.62,15.56-4l.05,0h0A3.73,3.73,0,0,0,60,57.67h0a2.62,2.62,0,0,0-.13-.83Z"/><path class="cls-3" d="M63.35,18.68C63,1.87,43.48,1.91,43,1.92s-20,0-20.39,16.76c-.25,11.71-.06,11.31.34,13.25s1.32,6.26,1.51,8.45,1.66,7.12,2.94,12.44c1.36,5.6,6,10.06,6.45,10.52s.85.55,1.3,1c.79.72,4,3.26,7.16,3.26h1.48a11.4,11.4,0,0,0,7.07-3.26c.4-.44,1.22-.83,1.65-1.29a36.74,36.74,0,0,0,5.59-8.31c2.21-4.41,3.25-12.12,3.44-14.31s1.11-6.52,1.51-8.45S63.61,30.39,63.35,18.68Z"/><path class="cls-2" d="M63.35,17.49C63,.68,43.48.72,43,.73s-20,0-20.39,16.76c-.25,11.71-.06,11.32.34,13.25s1.32,6.26,1.51,8.45.18,8.94,3,13.62A61.24,61.24,0,0,0,33.29,61c.43.46,1.37,1.68,1.82,2.07.82.75,4.21,3.42,7.48,3.25h.75c3.26.19,6.56-2.25,7.48-3.25.4-.44,1.39-1.61,1.81-2.07a60.84,60.84,0,0,0,5.86-8.22c2.83-4.68,2.82-11.43,3-13.62s1.11-6.52,1.51-8.45S63.61,29.2,63.35,17.49Z"/><path class="cls-4" d="M64.62,19.58a.7.7,0,0,0-.1-.45c-.07-.09-.16-.15-.19-.26-.14-.46.14-.89-.2-1.31-.08-.1.15-.24.2-.33s0-.41-.09-.55-.26-.53-.21-.8a.64.64,0,0,1,.17-.3c0-.12-.13-.2-.06-.34l-.1.19s0-.11,0-.16l0,0c-.09-.09-.37-.24-.34-.4a2.32,2.32,0,0,0,0-1.17c-.23-.8-.78-1.47-1-2.28.31,0,.37.4.68.4a17.75,17.75,0,0,0-1.61-3.52c.26,0,.36.29.59.34a4.45,4.45,0,0,0-2-2,7.05,7.05,0,0,0-1.11-.32.45.45,0,0,1-.28-.4c0-.31.41,0,.55,0A4.74,4.74,0,0,0,58.4,5c-.41-.24-.78-.56-1.17-.83a18.76,18.76,0,0,0-2.5-1.43A25.25,25.25,0,0,0,49.67,1,32.21,32.21,0,0,0,45.42.24c-.48,0-1-.09-1.44-.11S43.13,0,42.68,0a2.92,2.92,0,0,0-1.62.52c.25.13.54-.05.54.35A9.09,9.09,0,0,0,37.45.24,2.93,2.93,0,0,0,36,.72c-.12.13.19.14.25.14.41,0,.86-.1,1.21.2a16.22,16.22,0,0,1-4.29.1c-1-.07-2.56-.24-3.36.6a16,16,0,0,1,1.76.75c.05,0,.35.1.34.11a1.1,1.1,0,0,1-.44.15c-.27.06-3.18.63-3.16.72s.6.27.63.29c.42.27-.51.94-.75,1.06-.56.3-1.18.46-1.74.75S25.5,6.65,24.89,7c.1-.07.76-.37.67-.07a1.3,1.3,0,0,1-.57.59,8.46,8.46,0,0,0-1.72,1.24c.66,0,1.22-.54,1.89-.41-.21.15-.31.41-.54.54l-.73.43a3.7,3.7,0,0,0-1.23,1.13c.07-.07.89-.76.94-.43,0,.18-.32.44-.42.54a5.44,5.44,0,0,0-1.53,1.85c.08-.11.68-.7.82-.46s0,.33-.06.44A11.27,11.27,0,0,1,21.74,14a9.78,9.78,0,0,0-.5,1c-.18.55.87.9.85,1.48a3,3,0,0,0-.73,1.25,1.42,1.42,0,0,0,0,.68.42.42,0,0,1,.19,0c.22.1,0,.58-.07.72a11.85,11.85,0,0,0-.31,5.52,29.86,29.86,0,0,0,1,4.37,40.56,40.56,0,0,1,1.21,4,53.44,53.44,0,0,1,1.07,7,35,35,0,0,0,.24-7.23c-.07-.78-.32-1.55-.36-2.34a6,6,0,0,1,.83-3.13,10.65,10.65,0,0,1,.9-1.22,10.28,10.28,0,0,1,1-1.29c.55-.54,1.28-.8,1.76-1.42a4,4,0,0,0,.41-.65,5.19,5.19,0,0,0,2.3,1.64,5.23,5.23,0,0,0,1.35.39,3.16,3.16,0,0,1-.75,0A5.67,5.67,0,0,0,35,27.6a7.38,7.38,0,0,0,1.94.54,7.88,7.88,0,0,0,1.09.08c.2,0,.33.14.51.22,3,1.35,6.65.22,9.28-1.36.07.68-.35.81-1,.81,3.55,1.1,7.42-.46,10.53-2.14.31-.17.63-.35.93-.54.39.38.82.71,1.22,1.08a5.45,5.45,0,0,1,1.75,3.87,23.66,23.66,0,0,1-.17,3.26c-.07.88,0,1.75,0,2.63s.12,1.73.19,2.59c0,.49.08,1,.14,1.46A82.33,82.33,0,0,1,63,30.51c.12-.52.3-1,.43-1.53a16.63,16.63,0,0,0,.34-2.89c0-1.14,0-2.28,0-3.42a5.93,5.93,0,0,1,.23-1.62,5.63,5.63,0,0,1,.24-.69,1.87,1.87,0,0,0,.3-.78Z"/><path class="cls-5" d="M61.3,30.16a5.45,5.45,0,0,0-1.75-3.87c-.4-.37-.83-.7-1.22-1.08-.3.19-.62.37-.93.54-3.11,1.68-7,3.24-10.53,2.14.6,0,1-.13,1-.81-2.63,1.58-6.32,2.71-9.28,1.36-.18-.08-.31-.21-.51-.22a7.88,7.88,0,0,1-1.09-.08A7.38,7.38,0,0,1,35,27.6a5.67,5.67,0,0,1-2.87-2.76,4.51,4.51,0,0,0,.74,0,6.1,6.1,0,0,1-1.34-.4,5.19,5.19,0,0,1-2.3-1.64,4,4,0,0,1-.41.65c-.48.62-1.21.88-1.76,1.42a10.28,10.28,0,0,0-1,1.29,10.65,10.65,0,0,0-.9,1.22,6,6,0,0,0-.83,3.13,5,5,0,0,0,.08.66,6.66,6.66,0,0,1,.75-2,10.76,10.76,0,0,1,.9-1.23,12,12,0,0,1,1-1.29c.55-.53,1.28-.8,1.76-1.41a4.53,4.53,0,0,0,.41-.66,5.14,5.14,0,0,0,2.3,1.65,6.08,6.08,0,0,0,1.34.39h0a3.64,3.64,0,0,1-.74,0A5.75,5.75,0,0,0,35,29.37a7.38,7.38,0,0,0,1.94.54A9.81,9.81,0,0,0,38,30c.2,0,.33.13.51.22,3,1.35,6.65.21,9.28-1.37.07.68-.35.81-1,.81,3.55,1.1,7.42-.45,10.53-2.14.31-.17.63-.34.93-.54.39.39.82.71,1.22,1.08a5.41,5.41,0,0,1,1.73,3.61A12.51,12.51,0,0,0,61.3,30.16Z"/><path class="cls-6" d="M62.34,28.14c.58-2.22-3.25-5.44-3.25-5.44-1.46,3.67-11.15,5.44-11.15,5.44.45,0,.9.06,1.34.11,2.83,0,5.71-1.2,8.12-2.5.31-.17.63-.35.93-.54.39.38.82.71,1.22,1.08a5.45,5.45,0,0,1,1.75,3.87,23.66,23.66,0,0,1-.17,3.26,1.09,1.09,0,0,1,0,.18A10,10,0,0,0,62.34,28.14Z"/><path class="cls-6" d="M27.05,19.23c-.71.23-.53,1.84-.61,2.41-.26,1.83-1.69,2.86-2.29,4.49A8,8,0,0,0,23.82,30c.15,1,.14,1.36.1.57-.06-1.1.75-2.18,1.28-3.13a10.65,10.65,0,0,1,.9-1.22,10.28,10.28,0,0,1,1-1.29c.55-.54,1.28-.8,1.76-1.42a1.13,1.13,0,0,0,.1-.13l.31-.52C27,21.94,27.66,19,27.05,19.23Z"/><path class="cls-7" d="M58,7.41s5.32,15.46-8,17a3.2,3.2,0,0,0,.68-3.14S40.4,30.37,30.36,20.05c0,0,1.21,1.93,5-1.38,0,0-7.79-1-8-3.67a48.67,48.67,0,0,1,4.1-5.56C32.64,8,25,10.59,30.48,6.26,35,2.74,47.52,0,58,7.41Z"/><path class="cls-7" d="M26.48,13.84s-.29.27-.77,3.46c-.35,2.28.49,4.69-1.09,6.26a5.06,5.06,0,0,0-2,3.41C22.21,29.06,20.11,15.76,26.48,13.84Z"/><path class="cls-7" d="M59.65,11.53a19.13,19.13,0,0,0,.07,4.12c.18,2.3-.82,4.64.63,6.32a5.08,5.08,0,0,1,1.76,3.55C62.36,27.63,65.86,13.91,59.65,11.53Z"/></g></g></svg>