<svg xmlns="http://www.w3.org/2000/svg" viewBox="0 0 85.52 94.16"><defs><style>.cls-1{fill:#423030;}.cls-2{fill:#50abd7;}.cls-3{fill:#f5d3b8;}.cls-4{fill:#e4c5a9;}</style></defs><g id="Layer_2" data-name="Layer 2"><g id="Layer_1-2" data-name="Layer 1"><path class="cls-1" d="M43,0c3.08.11,19.23,1.4,24.41,16.51a85.66,85.66,0,0,1,4.48,26.91,32.7,32.7,0,0,1-.61,7.52,7.47,7.47,0,0,1-1.24,3.24c-1.78,3.14-5.24,5.18-11.87,5.18a8,8,0,0,1-4.42-1.47h0a3.13,3.13,0,0,1-1.55-1.21A16.12,16.12,0,0,1,51,55.52l.4-.34c-1.56-3.91-1.19-10.49-1.19-10.49L43.25,20,42.79,7.09,42.32,20l-7,24.68s.32,5.91-1,9.85c.2.18.4.36.61.52a18.86,18.86,0,0,1-1.68,1.67,3.1,3.1,0,0,1-1.49,1.14,8,8,0,0,1-4.46,1.49c-6.58,0-10-2-11.84-5.13h0a7.75,7.75,0,0,1-1.35-3.67,31.19,31.19,0,0,1-.53-6,85.18,85.18,0,0,1,4.47-28C23.31,1.4,39.46.11,42.53,0"/><path class="cls-2" d="M42.76,94.16A56.74,56.74,0,0,0,85.52,74.77c-.65-1.5-1.3-2.86-1.92-4-3.84-7-23.85-10.14-25.16-10.34v0h0a3.9,3.9,0,0,1,.12.9v0a4.37,4.37,0,0,1-1.37,3h0l0,.05c-2.49,2.55-8,4.32-14.4,4.32a28.86,28.86,0,0,1-9.95-1.64C29.23,65.73,27,63.67,27,61.36a3.28,3.28,0,0,1,.12-.88h0v0c-1.32.2-21.32,3.37-25.16,10.34-.62,1.13-1.26,2.49-1.91,4A56.72,56.72,0,0,0,42.76,94.16Z"/><path class="cls-3" d="M59.53,61.33h0l-.18-.11-.06,0a.44.44,0,0,1-.11-.09s0,0-.07-.06l-.1-.09L59,60.86l-.08-.1-.07-.08-.08-.11-.06-.09-.07-.11-.06-.1-.06-.11-.06-.11-.06-.12a.61.61,0,0,1,0-.12.54.54,0,0,1-.05-.11l-.06-.13s0-.07,0-.11l0-.14s0-.07,0-.11a.88.88,0,0,0-.05-.15l0-.1,0-.16,0-.09c0-.06,0-.12,0-.17l0-.08c0-.06,0-.13,0-.19v-.06a1.77,1.77,0,0,1,0-.2,16.39,16.39,0,0,1-.3-2.87c-.76-1.81-29.33,0-29.33,0a20,20,0,0,1-.59,2.83.56.56,0,0,1,0,.12l-.06.2s0,.1,0,.16l-.05.14c0,.05,0,.09,0,.13a.78.78,0,0,0,0,.14s0,.09-.05.13,0,.09-.05.13a.69.69,0,0,0-.05.13l-.06.14a1.08,1.08,0,0,0-.08.19s0,.11-.08.16l-.06.12-.06.13-.06.12-.07.11a.75.75,0,0,1-.07.12.75.75,0,0,1-.07.12l-.07.11a2.14,2.14,0,0,1-.13.19l-.07.09a1,1,0,0,1-.08.11l-.08.09-.09.1-.08.09-.11.12v0h0a2.77,2.77,0,0,0-.12.8c0,2.11,2.45,4,6.29,5.21a35.76,35.76,0,0,0,10.7,1.5c6.88,0,12.81-1.61,15.48-3.93,0,0,0,0,.05-.05h0a3.73,3.73,0,0,0,1.46-2.71v0a2.56,2.56,0,0,0-.13-.82Z"/><path class="cls-4" d="M63,23.29c-.37-16-19.77-16-20.28-16s-19.92,0-20.29,16c-.26,11.18-.06,10.8.34,12.65s1.31,6,1.5,8.07,1.65,6.8,2.93,11.87c1.35,5.35,6,9.6,6.41,10a13.73,13.73,0,0,0,1.29.91c.79.69,4,3.11,7.13,3.12h1.47a11.48,11.48,0,0,0,7-3.12c.4-.42,1.22-.79,1.64-1.23a35.1,35.1,0,0,0,5.57-7.94C60,53.45,61,46.1,61.19,44s1.11-6.23,1.5-8.07S63.29,34.47,63,23.29Z"/><path class="cls-3" d="M63,22.16c-.37-16-19.77-16-20.28-16s-19.92,0-20.29,16C22.2,33.34,22.4,33,22.8,34.8s1.31,6,1.5,8.07.18,8.53,3,13a57.54,57.54,0,0,0,5.83,7.85c.42.44,1.36,1.6,1.8,2,.82.71,4.2,3.26,7.45,3.1h.74c3.24.18,6.53-2.15,7.44-3.1.4-.42,1.38-1.54,1.8-2a56.63,56.63,0,0,0,5.83-7.85C61,51.4,61,45,61.19,42.87s1.11-6.22,1.5-8.07S63.29,33.34,63,22.16Z"/><path class="cls-1" d="M64.81,30.1c.74-.52,1.3-1,1.3-1s-2-14.25-3.52-16.67-11.38-8-21.14-8.13a25.58,25.58,0,0,0-19.1,8.13c-1.6,1.91-2.37,9.81-2.69,14.47l-.34.13c-3.39,1.16,1.44,10.49.27,10.91s1.82,3.47,1.82,3.47,0-2.59,6.17-4.63c4.84-1.59,12.34-6.61,14.79-8.7,1.57,1.38,7.48,6.26,13,8.06,6.17,2,8.76,2.68,8.76,2.68s1-1.1-.12-1.52C63.1,37,64.8,33.26,64.81,30.1Z"/><path class="cls-3" d="M21.07,39.17C20,41.29,21.79,47,24.8,47.28c.1.49.17.76.17.76-3.92.18-6.33-7.19-5-9.86s5.08-.29,5.08-.29c0,.27-.71.53-.74.8C23.61,38.24,21.93,37.49,21.07,39.17Z"/><path class="cls-4" d="M24.25,42.58a30,30,0,0,0,.55,4.7c-3-.29-4.81-6-3.73-8.11.86-1.68,2.54-.93,3.28-.48a1.49,1.49,0,0,1,0,.21A18.66,18.66,0,0,0,24.25,42.58Z"/><path class="cls-3" d="M64.46,39.17c1.08,2.12-.72,7.82-3.73,8.11-.1.49-.17.76-.17.76,3.91.18,6.33-7.19,5-9.86s-5.09-.29-5.09-.29c0,.27.72.53.75.8C61.91,38.24,63.59,37.49,64.46,39.17Z"/><path class="cls-4" d="M61.28,42.58a32.62,32.62,0,0,1-.55,4.7c3-.29,4.81-6,3.73-8.11-.87-1.68-2.55-.93-3.28-.48,0,.07,0,.14,0,.21A17.9,17.9,0,0,1,61.28,42.58Z"/></g></g></svg>