<svg xmlns="http://www.w3.org/2000/svg" viewBox="0 0 85.95 94.1"><defs><style>.cls-1{fill:#f5d3b8;}.cls-2{fill:#423030;}.cls-3{fill:#50abd7;}</style></defs><g id="Layer_2" data-name="Layer 2"><g id="Layer_1-2" data-name="Layer 1"><path class="cls-1" d="M59.83,61.1h.05L59.7,61l-.06,0-.12-.09-.06-.06-.1-.1-.07-.07-.09-.1-.06-.08a.76.76,0,0,1-.08-.11L59,60.25l-.07-.11-.06-.1-.06-.12-.06-.11-.06-.11a.61.61,0,0,0,0-.12l-.05-.12a.5.5,0,0,1,0-.13,1.17,1.17,0,0,1-.05-.11,1.21,1.21,0,0,0,0-.14.76.76,0,0,0,0-.11s0-.1,0-.15a.3.3,0,0,1,0-.1s0-.1,0-.16l0-.09c0-.06,0-.12,0-.17l0-.08c0-.07,0-.13,0-.19V58a1.55,1.55,0,0,1,0-.21c-.3-1.49-.29-9.66-.29-9.66-.76-1.82-30,0-30,0s.35,8.08-.08,9.58c0,0,0,.07,0,.11l-.06.21-.05.15c0,.05,0,.1,0,.15s0,.09-.05.13,0,.09,0,.14a.69.69,0,0,0-.05.13l-.06.13a.5.5,0,0,1,0,.13l-.06.14a1.08,1.08,0,0,1-.08.19c0,.06-.05.11-.07.17l-.06.12a.75.75,0,0,1-.07.12l-.06.12-.06.12a5240989182210.7,5240989182210.7,0,0,1-.14.24.61.61,0,0,0-.07.1c-.05.07-.09.14-.14.2l-.07.09a.44.44,0,0,1-.08.11l-.08.1-.09.09-.08.09-.11.12v.05h0a2.72,2.72,0,0,0-.12.8c0,2.12,2.46,3,6.32,4.24a36.16,36.16,0,0,0,10.75,1.5c6.92,0,12.87-1.62,15.56-4,0,0,0,1,.05,1h0A3.71,3.71,0,0,0,60,62v0a2.62,2.62,0,0,0-.13-.83Z"/><path class="cls-2" d="M67.73,16.57C62.54,1.41,46.39.11,43.32,0h-.51C39.73.11,23.58,1.41,18.39,16.57a86,86,0,0,0-4.46,28.12,30,30,0,0,0,.53,6.06,8,8,0,0,0,1.34,3.68h0c1.72,3,5,5,11,5.12,20.39,1.37,33.87-.07,33.87-.07h0c5.19-.41,8.07-2.32,9.65-5.11a7.31,7.31,0,0,0,1.23-3.25,32.36,32.36,0,0,0,.62-7.54A86.23,86.23,0,0,0,67.73,16.57Z"/><path class="cls-3" d="M84,70.6c-3.57-6.49-21.09-9.7-24.69-10.3h0l-.59-.49a61.51,61.51,0,0,1-31.88,0l-.8.58h0c-4.56.79-20.72,4-24.14,10.2C1.3,71.74.65,73.11,0,74.61a57.12,57.12,0,0,0,86,0C85.3,73.11,84.65,71.74,84,70.6Z"/></g></g></svg>