<svg xmlns="http://www.w3.org/2000/svg" viewBox="0 0 70.45 91.07"><defs><style>.cls-1{fill:#50abd7;}.cls-2{fill:#f5d3b8;}.cls-3{fill:#e4c5a9;}.cls-4{fill:#422e2b;}</style></defs><g id="Layer_2" data-name="Layer 2"><g id="Layer_1-2" data-name="Layer 1"><path class="cls-1" d="M70.45,71.56C67.91,65.28,58.38,63.87,53,62.07c-4.82-1.61-7.06-3.86-7.75-4.68a.37.37,0,0,0-.29-.13.43.43,0,0,0-.26.11C28.86,73,20,63.07,20,63.07a.48.48,0,0,0,0-.13c-.05-.19-.24-.35-1,1.13-1,2-3,1-10.41,3.43C2.68,69.43.61,80.83,0,85c8.15,4.48,17.51,6,27.47,6A57,57,0,0,0,70.45,71.56Z"/><path class="cls-2" d="M41,47.13c-3.42.65-8.9-2-8.9-3.25a9.33,9.33,0,0,1,2.74-7.15A8.56,8.56,0,0,0,37.41,28c-.88-2.6-5.28-1-6.64-.35s-4.79-4.75-6.16-4.1-2.05,3.65-2.2.49-2.59,1-3.27-.94a12,12,0,0,1-.49-2.7v-.13c-.19-2-.19-4.36-.19-5.62,0-2,0-2.6-3.94-2.9S8.19,13.33,6.82,14a1.45,1.45,0,0,1-1.33,0c-.87,2.34-2.66,7.43-2.6,9.43C3,26.07,4,27.07,3,32.07s2,26,8,27A12,12,0,0,0,19.81,57c.13,1,.21,2.07.25,3.27,0,.81,0,1.71-.11,2.66a.48.48,0,0,1,0,.13s8.89,9.88,24.7-5.7a.43.43,0,0,1,.26-.11,108.08,108.08,0,0,1-.7-11.86l-.18.33a.84.84,0,0,1,.05-.17A5.71,5.71,0,0,1,41,47.13Z"/><path class="cls-3" d="M19.8,57A48.63,48.63,0,0,0,28,49.07l3-4s-6.09,10-11,13Z"/><path class="cls-3" d="M28,37.7s0,3.5,2.34,2.34l3.14-1.57C31.64,39.25,28.76,40.05,28,37.7Z"/><path class="cls-3" d="M29,31.07s1.79,1.72.4,2.86L28,35.07S30,33.07,29,31.07Z"/><path class="cls-4" d="M54.12,22.51h0S50.88,6,35.56,1.47,12.88,4,7.68,7.12,4.88,15,4.88,15l2.7,1.37c4.65,5,15.8,16.35,20.4,13.84a12.83,12.83,0,0,0,3.89-3.14c2.25-.69,5.11-1.08,5.81,1.14,1.2,3.79-4.23,10.28-4.23,10.28L31,45.07a39.11,39.11,0,0,0-1.8,6.5,8,8,0,0,0,0,1.9,4.34,4.34,0,0,0,.72,2.88c2,2.38,11.68,5.32,19-1.37C57.42,47.15,56.14,30,54.12,22.51Z"/></g></g></svg>