<svg xmlns="http://www.w3.org/2000/svg" viewBox="0 0 85.95 89.82"><defs><style>.cls-1{fill:#f5d3b8;}.cls-2{fill:#423030;}.cls-3{fill:#382828;}.cls-4,.cls-6{fill:#493434;}.cls-5{fill:#50abd7;}.cls-6{opacity:0.47;}</style></defs><g id="Layer_2" data-name="Layer 2"><g id="Layer_1-2" data-name="Layer 1"><path class="cls-1" d="M59.83,56.83h.05l-.18-.11-.06,0-.12-.09-.06-.07-.1-.09-.07-.07-.09-.1-.06-.09a.39.39,0,0,1-.08-.1L59,56l-.07-.11-.06-.1-.06-.12-.06-.11-.06-.11a.61.61,0,0,0,0-.12l-.05-.12a.5.5,0,0,1,0-.13,1.17,1.17,0,0,1-.05-.11.78.78,0,0,0,0-.14.76.76,0,0,0,0-.11c0-.05,0-.1,0-.15a.3.3,0,0,1,0-.1c0-.05,0-.11,0-.16l0-.09c0-.06,0-.12,0-.17l0-.08c0-.07,0-.13,0-.19V53.7a1.55,1.55,0,0,1,0-.21c-.3-1.49-.29-9.67-.29-9.67-.76-1.81-30,0-30,0s.35,8.09-.08,9.58c0,0,0,.08,0,.12l-.06.21-.05.15s0,.1,0,.15,0,.09-.05.13,0,.09,0,.14a.69.69,0,0,0-.05.13l-.06.13a.5.5,0,0,1,0,.13l-.06.14a1.54,1.54,0,0,1-.08.19l-.07.16L27,55.3a.54.54,0,0,1-.07.13l-.06.12-.06.12a.75.75,0,0,0-.07.12.75.75,0,0,0-.07.12.61.61,0,0,0-.07.1c-.05.07-.09.14-.14.2l-.07.09a.44.44,0,0,1-.08.11l-.08.1-.09.09-.08.09-.11.12v0h0a2.84,2.84,0,0,0-.12.81c0,2.11,2.46,3,6.32,4.24a36.16,36.16,0,0,0,10.75,1.5c6.92,0,12.87-1.62,15.56-4,0,0,0,1,.05,1h0A3.73,3.73,0,0,0,60,57.67h0a2.62,2.62,0,0,0-.13-.83Z"/><path class="cls-1" d="M63.35,15.05C63,.69,43.48.73,43,.73s-20,0-20.39,14.32c-.25,10-.06,9.67.34,11.33a72.4,72.4,0,0,1,1.51,7.22c-.25-2.52,4.29,12,4,11.64,2.83,4,4.43,6.63,4.85,7S34.66,53.7,35.11,54c.82.63,4.21,2.92,7.48,2.77h.75A12.1,12.1,0,0,0,50.82,54c.4-.38,1.39-1.38,1.81-1.78s2-3,4.86-7,3.82-9.77,4-11.64A72.4,72.4,0,0,1,63,26.38C63.41,24.72,63.61,25.06,63.35,15.05Z"/><path class="cls-2" d="M58.33,25.21c.39.38.82.71,1.22,1.08a5,5,0,0,1,.62.69,5.5,5.5,0,0,1,3.62-.51c0-.13,0-.26,0-.38,0-1.14,0-2.28,0-3.42a6,6,0,0,1,.23-1.62,5.63,5.63,0,0,1,.24-.69,1.87,1.87,0,0,0,.3-.78.7.7,0,0,0-.1-.45c-.07-.09-.16-.15-.19-.26-.14-.46.14-.89-.2-1.31-.08-.1.15-.24.2-.33s0-.41-.09-.55-.26-.53-.21-.8a.64.64,0,0,1,.17-.3c0-.12-.13-.2-.06-.34l-.1.19s0-.11,0-.16-.31-.22-.29-.36a2.32,2.32,0,0,0,0-1.17c-.23-.8-.78-1.47-1-2.28.31,0,.37.4.68.4a17.75,17.75,0,0,0-1.61-3.52c.26,0,.36.29.59.34a4.45,4.45,0,0,0-2-2,7.05,7.05,0,0,0-1.11-.32.45.45,0,0,1-.28-.4c0-.31.41,0,.55,0A4.74,4.74,0,0,0,58.4,5c-.41-.24-.78-.56-1.17-.83a18.76,18.76,0,0,0-2.5-1.43A25.25,25.25,0,0,0,49.67,1,32.21,32.21,0,0,0,45.42.24c-.48,0-1-.09-1.44-.11S43.13,0,42.68,0a2.92,2.92,0,0,0-1.62.52c.25.13.54-.05.54.35A9.09,9.09,0,0,0,37.45.24,2.93,2.93,0,0,0,36,.72c-.12.13.19.14.25.14.41,0,.86-.1,1.21.2a16.22,16.22,0,0,1-4.29.1c-1-.07-2.56-.24-3.36.6a16,16,0,0,1,1.76.75c.05,0,.35.1.34.11a1.1,1.1,0,0,1-.44.15c-.27.06-3.18.63-3.16.72s.6.27.63.29c.42.27-.51.94-.75,1.06-.56.3-1.18.46-1.74.75S25.5,6.65,24.89,7c.1-.07.76-.37.67-.07a1.3,1.3,0,0,1-.57.59,8.46,8.46,0,0,0-1.72,1.24c.66,0,1.22-.54,1.89-.41-.21.15-.31.41-.54.54l-.73.43a3.7,3.7,0,0,0-1.23,1.13c.07-.07.89-.76.94-.43,0,.18-.32.44-.42.54a5.54,5.54,0,0,0-1.53,1.85c.08-.11.68-.7.82-.46s0,.33-.06.44A11.27,11.27,0,0,1,21.74,14a10.84,10.84,0,0,0-.5,1c-.18.55.87.9.85,1.48a3,3,0,0,0-.73,1.25,1.42,1.42,0,0,0,0,.68.42.42,0,0,1,.19,0c.22.1,0,.58-.07.72-.6,1.79.42,3.67.69,5.52,0,.32.1.63.16.94a5.14,5.14,0,0,1,4.34-.26,4.78,4.78,0,0,1,.39-.48c.55-.54,1.28-.8,1.76-1.42a4,4,0,0,0,.41-.65,5.19,5.19,0,0,0,2.3,1.64,5.23,5.23,0,0,0,1.35.39,3.13,3.13,0,0,1-.75,0A5.69,5.69,0,0,0,35,27.6a7.38,7.38,0,0,0,1.94.54,7.88,7.88,0,0,0,1.09.08c.2,0,.33.14.51.22,3,1.35,6.65.22,9.28-1.36.07.68-.35.81-1,.81,3.55,1.1,7.42-.46,10.53-2.14C57.71,25.58,58,25.4,58.33,25.21Z"/><path class="cls-3" d="M62.34,28.14c.58-2.22-3.25-5.44-3.25-5.44-1.46,3.67-11.15,5.44-11.15,5.44.45,0,.9.06,1.34.11,2.83,0,5.71-1.2,8.12-2.5.31-.17.63-.35.93-.54.39.38.82.71,1.22,1.08a5.45,5.45,0,0,1,1.75,3.87,23.66,23.66,0,0,1-.17,3.26,1.09,1.09,0,0,1,0,.18A10,10,0,0,0,62.34,28.14Z"/><path class="cls-4" d="M26.48,13.84s-.29.27-.77,3.46c-.35,2.28.49,4.69-1.09,6.26a12.28,12.28,0,0,0-1,3.41C23.21,29.06,20.11,15.76,26.48,13.84Z"/><path class="cls-5" d="M84,66.33c-3.57-6.49-21.09-9.7-24.69-10.3h0l-.59-.49a61.51,61.51,0,0,1-31.88,0l-.8.58h0c-4.56.79-20.72,4-24.14,10.2-.62,1.13-1.27,2.5-1.92,4a57.14,57.14,0,0,0,86,0C85.3,68.83,84.65,67.46,84,66.33Z"/><path class="cls-2" d="M22.33,25.63s2.75,17,6.11,19.61,14.74,12.41,29.05,0c0,0,6.33-9.89,6.32-19.15S34.32,13.14,32.06,16.48,22.33,25.63,22.33,25.63Z"/><path class="cls-6" d="M58,7.8s5.32,16.75-8,18.39a3.66,3.66,0,0,0,.68-3.4S40.4,32.68,30.36,21.5c0,0,1.21,2.08,5-1.5,0,0-7.79-1.06-8-4a52.53,52.53,0,0,1,4.1-6c1.24-1.55-6.43,1.25-.92-3.44C35,2.74,47.52-.23,58,7.8Z"/></g></g></svg>