<svg xmlns="http://www.w3.org/2000/svg" viewBox="0 0 70.45 90"><defs><style>.cls-1{fill:#50abd7;}.cls-2{fill:#f5d3b8;}.cls-3{fill:#423030;}.cls-4{fill:#e4c5a9;}</style></defs><g id="Layer_2" data-name="Layer 2"><g id="Layer_1-2" data-name="Layer 1"><path class="cls-1" d="M70.45,70.49C67.91,64.21,58.38,62.8,53,61c-4.83-1.61-7.07-3.86-7.76-4.68a.35.35,0,0,0-.28-.13.4.4,0,0,0-.27.11C28.86,71.87,20,62,20,62a.48.48,0,0,0,0-.13c-.05-.19-.24-.35-1,1.13-1,2-3,1-10.41,3.43C2.68,68.36.61,79.76,0,84c8.16,4.48,17.51,6,27.47,6A57,57,0,0,0,70.45,70.49Z"/><path class="cls-2" d="M41,46.05c-3.42.65-8.89-1.94-8.89-3.24a9.35,9.35,0,0,1,2.73-7.15,10.28,10.28,0,0,0,2.54-9.75c-.88-2.6-5.27,0-6.64.65s-4.79,3.25-6.16,3.9-2.05.65-2.19-2.51-2.6-4-3.28-5.94a12.62,12.62,0,0,1-.49-2.7v-.13c-.18-2-.18-4.36-.18-5.62,0-2,0-2.6-4-2.9s-6.32,1.6-7.68,2.25a1.44,1.44,0,0,1-1.34,0c-.87,2.35-2.65,7.44-2.59,9.44C3,25,4,26,3,31s2,26,8,27a12,12,0,0,0,8.83-2.07c.13,1,.21,2.08.25,3.28,0,.8,0,1.71-.1,2.66A.48.48,0,0,1,20,62s8.88,9.87,24.69-5.7a.4.4,0,0,1,.27-.11,108.08,108.08,0,0,1-.7-11.86l-.18.33c0-.06,0-.12,0-.18A5.54,5.54,0,0,1,41,46.05Z"/><path class="cls-3" d="M51.52,16.43c0-.42.07-.84.11-1.24.14.09.1.29.21.4a2.81,2.81,0,0,0-.38-1.81,5.48,5.48,0,0,0-.52-.56.27.27,0,0,1,0-.31c.12-.18.24.13.33.18a2.9,2.9,0,0,0-.34-.93c-.15-.28-.24-.58-.37-.86a11.79,11.79,0,0,0-.92-1.67,16.31,16.31,0,0,0-2.27-2.72A20.58,20.58,0,0,0,45.16,5c-.26-.2-.52-.39-.79-.57s-.44-.37-.71-.52a2.05,2.05,0,0,0-1.12-.28c.1.15.33.16.18.38a6.19,6.19,0,0,0-2.16-1.8,2.14,2.14,0,0,0-1-.26c-.12,0,.06.15.09.17.23.15.53.24.62.53a11.32,11.32,0,0,1-2.5-1.45c-.57-.4-1.39-1-2.16-.84a9.61,9.61,0,0,1,.74,1,1.83,1.83,0,0,1,.15.17.82.82,0,0,1-.31-.07C36,1.47,34.09.77,34.07.82l.25.38a.12.12,0,0,1,0,.17A29.82,29.82,0,0,0,31,.62C29.75.4,28.49.25,27.22.15L26,.08c-.39,0-.76-.09-1.16-.08a3.28,3.28,0,0,0-1.44.34c.22.08.48,0,.48.23A10.77,10.77,0,0,0,20.16.16a3.22,3.22,0,0,0-1.34.31c-.1.08.17.09.22.09a2.16,2.16,0,0,1,1.08.13,19.31,19.31,0,0,1-3.8.06c-.92,0-2.28-.15-3,.39.54.1,1.06.35,1.57.49l.29.07a1.18,1.18,0,0,1-.39.1c-.23,0-2.81.41-2.8.47s.53.17.57.19c.37.17-.46.61-.67.69s-.46.15-.7.22l-.39,0a2.15,2.15,0,0,0-1,.32c-.08.08.14.09.17.09H10a1.76,1.76,0,0,0-.3.24A16.86,16.86,0,0,1,7.85,4c-.71,0-1.75-.15-2.3.39.41.1.81.35,1.21.49L7,5a.76.76,0,0,1-.3.1c-.18,0-2.17.41-2.16.47L5,5.71c.28.17-.36.61-.52.69-.38.19-.81.3-1.19.48s-.62.69-1,.94c.07-.05.52-.25.46-.05s-.25.29-.39.39A5.7,5.7,0,0,0,1.11,9c.45,0,.84-.35,1.3-.26-.15.09-.22.26-.37.35l-.5.27a2.65,2.65,0,0,0-.85.74c.05,0,.61-.49.65-.28s-.22.29-.29.35a3.63,3.63,0,0,0-1,1.2c.05-.07.46-.45.57-.29s0,.21,0,.28-.09.24-.14.36c1.11-.16,2.22-.25,3.34-.3a1.72,1.72,0,0,0,1,.88,1.84,1.84,0,0,0,.72.68,1.44,1.44,0,0,0,1.34,0c1.36-.65,3.74-2.55,7.68-2.25s4,.95,4,2.9c0,1.26,0,3.59.18,5.62v.13a12.62,12.62,0,0,0,.49,2.7C19.82,24,22.27,24.8,22.42,28s.82,3.16,2.19,2.51,4.79-3.25,6.16-3.9,5.76-3.25,6.64-.65a10.28,10.28,0,0,1-2.54,9.75,9.35,9.35,0,0,0-2.73,7.15c0,1.3,5.47,3.89,8.89,3.24a5.54,5.54,0,0,0,3.07-1.57,4.36,4.36,0,0,0,1-1.67S52,26.56,52,21.36A26.52,26.52,0,0,0,51.52,16.43Z"/><path class="cls-4" d="M19.81,55.89A48.63,48.63,0,0,0,28,48l3-4s-6.1,10-11,13Z"/></g></g></svg>