<svg xmlns="http://www.w3.org/2000/svg" viewBox="0 0 132.02 145.37"><defs><style>.cls-1{fill:#423030;}.cls-2{fill:#50abd7;}.cls-3{fill:#f5d3b8;}.cls-4{fill:#e4c5a9;}</style></defs><g id="Layer_2" data-name="Layer 2"><g id="Layer_1-2" data-name="Layer 1"><path class="cls-1" d="M65.66,0C60.91.18,36,2.18,28,25.51a131.56,131.56,0,0,0-6.89,43.24,46.8,46.8,0,0,0,.82,9.32c.5,2.79,1.21,4.77,2.07,5.66h0c2.77,4.8,8.11,7.91,18.28,7.91a12.49,12.49,0,0,0,6.88-2.29,4.82,4.82,0,0,0,2.29-1.77A28.53,28.53,0,0,0,54,85c-.32-.26-.63-.53-.94-.8,2-6.1,1.49-15.22,1.49-15.22L65.33,30.9,66.05,11l.72,19.93L77.52,69S77,79.17,79.37,85.21c-.21.17-.41.35-.63.51A25.68,25.68,0,0,0,80.6,87.5,4.9,4.9,0,0,0,83,89.37H83a12.44,12.44,0,0,0,6.83,2.27c10.22,0,15.56-3.14,18.32-8a11.47,11.47,0,0,0,1.91-5,49.81,49.81,0,0,0,1-11.6,132.28,132.28,0,0,0-6.92-41.54C96.12,2.18,71.19.18,66.45,0"/><path class="cls-2" d="M66,145.37a87.55,87.55,0,0,0,66-29.93c-1-2.31-2-4.42-3-6.15-5.93-10.77-36.82-15.66-38.84-16v0h0a5.47,5.47,0,0,1,.18,1.39v0a6.74,6.74,0,0,1-2.1,4.59h0l-.07.08C84.4,103.37,75.89,106.1,66,106.1a44.44,44.44,0,0,1-15.36-2.53c-5.52-2.09-9-5.26-9-8.83a5.12,5.12,0,0,1,.19-1.35h0v-.07c-2,.31-32.91,5.2-38.84,16C2,111,1,113.13,0,115.44A87.54,87.54,0,0,0,66,145.37Z"/><path class="cls-3" d="M91.9,94.69H92a2.61,2.61,0,0,1-.28-.17l-.09-.07-.18-.14-.1-.09-.15-.14L91.07,94s-.09-.09-.13-.15a.64.64,0,0,1-.1-.13,1,1,0,0,1-.12-.16.71.71,0,0,1-.1-.14,1.63,1.63,0,0,1-.11-.17l-.09-.15a1.62,1.62,0,0,1-.1-.18l-.09-.17-.09-.17a1.54,1.54,0,0,1-.08-.19L90,92.18c0-.07-.06-.14-.08-.2a1.34,1.34,0,0,1-.07-.18l-.08-.21a1.09,1.09,0,0,1,0-.17,1.55,1.55,0,0,1-.08-.23s0-.1-.05-.15l-.07-.25c0-.05,0-.09,0-.14s0-.18-.07-.27l0-.12c0-.1,0-.19-.07-.29a.29.29,0,0,0,0-.09l-.06-.32a25.39,25.39,0,0,1-.46-4.43c-1.17-2.78-45.28-.07-45.28-.07a29.84,29.84,0,0,1-.91,4.37,1.21,1.21,0,0,0-.05.18c0,.1-.07.21-.1.31s0,.16-.08.24a1.55,1.55,0,0,1-.08.23,1.18,1.18,0,0,1-.07.2,1.72,1.72,0,0,1-.07.21A1.19,1.19,0,0,1,42,91c0,.07-.05.14-.07.21a1.19,1.19,0,0,0-.08.2l-.09.21c0,.1-.09.19-.13.29a2.72,2.72,0,0,0-.11.25l-.1.19-.09.19a1.74,1.74,0,0,0-.1.19l-.1.18-.11.18a1.74,1.74,0,0,1-.11.18l-.1.17-.21.3-.1.14c-.05.06-.09.12-.14.17l-.12.14-.13.15-.12.13-.18.2,0,.06h0A4.34,4.34,0,0,0,39.64,96c0,3.24,3.79,6.14,9.72,8a55.57,55.57,0,0,0,16.51,2.31c10.62,0,19.77-2.49,23.89-6.08l.08-.07h0A5.73,5.73,0,0,0,92.1,96v0a4.28,4.28,0,0,0-.2-1.28Z"/><path class="cls-4" d="M97.3,36C96.74,11.2,66.79,11.26,66,11.27S35.24,11.2,34.67,36c-.39,17.26-.09,16.67.52,19.52s2,9.24,2.32,12.46S40.05,78.45,42,86.28c2.09,8.25,9.25,14.82,9.9,15.5a21.86,21.86,0,0,0,2,1.41c1.23,1.06,6.15,4.8,11,4.81h2.27c4.79,0,9.5-3.4,10.84-4.81.62-.65,1.89-1.23,2.54-1.91A54.27,54.27,0,0,0,89.19,89c3.38-6.49,5-17.85,5.27-21.08s1.71-9.61,2.32-12.46S97.7,53.23,97.3,36Z"/><path class="cls-3" d="M97.3,34.22C96.74,9.45,66.79,9.51,66,9.52s-30.75-.07-31.32,24.7c-.39,17.26-.09,16.67.52,19.52s2,9.24,2.32,12.46.28,13.17,4.63,20.06a90,90,0,0,0,9,12.12c.65.68,2.1,2.47,2.78,3.06,1.27,1.09,6.48,5,11.5,4.79h1.15c5,.27,10.08-3.32,11.48-4.79.62-.65,2.14-2.38,2.79-3.06a90,90,0,0,0,9-12.12c4.35-6.89,4.33-16.83,4.62-20.06s1.71-9.61,2.32-12.46S97.7,51.48,97.3,34.22Z"/><path class="cls-1" d="M100.05,46.49c1.14-.8,2-1.49,2-1.49s-3-22-5.43-25.74S79.05,7,64,6.72,38.05,15,34.5,19.26c-2.47,3-3.65,15.15-4.15,22.35l-.53.19c-5.23,1.8,2.23,16.2.42,16.85S33.05,64,33.05,64s0-4,9.53-7.14c7.47-2.46,19.05-10.2,22.83-13.43,2.42,2.13,11.54,9.65,20,12.43C94.92,59,98.92,60,98.92,60s1.63-1.7-.18-2.35C97.41,57.18,100,51.37,100.05,46.49Z"/><path class="cls-3" d="M32.53,60.49C30.85,63.75,33.64,72.55,38.28,73c.15.75.26,1.18.26,1.18-6,.27-9.76-11.11-7.65-15.23s7.85-.44,7.85-.44c-.06.41-1.1.82-1.14,1.23C36.45,59.06,33.86,57.89,32.53,60.49Z"/><path class="cls-4" d="M37.43,65.75A49.88,49.88,0,0,0,38.28,73c-4.64-.45-7.43-9.25-5.75-12.51,1.33-2.6,3.92-1.43,5.07-.75,0,.11,0,.22,0,.33A28.78,28.78,0,0,0,37.43,65.75Z"/><path class="cls-3" d="M99.51,60.49c1.67,3.26-1.11,12.06-5.76,12.51-.15.75-.26,1.18-.26,1.18,6,.27,9.77-11.11,7.65-15.23s-7.84-.44-7.84-.44c0,.41,1.1.82,1.14,1.23C95.58,59.06,98.17,57.89,99.51,60.49Z"/><path class="cls-4" d="M94.6,65.75A47.18,47.18,0,0,1,93.75,73c4.65-.45,7.43-9.25,5.76-12.51-1.34-2.6-3.93-1.43-5.07-.75l0,.33A28.8,28.8,0,0,1,94.6,65.75Z"/><polygon class="cls-3" points="83.34 23.9 84.22 23.5 83.18 23.13 84.81 22.66 83.99 22.3 84.43 21.86 84.19 21.48 83.87 21.11 81.98 20.96 81.69 20.63 84.08 19.86 83.01 19.64 83.4 19.17 80.86 19.33 83.49 18.33 81.88 18.34 83.09 17.62 82.01 17.53 83.09 16.8 81.74 16.83 82.05 16.33 80.61 16.46 82.17 15.46 81.06 15.51 82.89 14.31 81.24 14.62 81.8 13.94 80.62 14.1 81.44 13.26 80.37 13.41 81.79 12.19 78.82 13.48 79.7 12.55 80.23 11.78 78.59 12.44 80.21 10.9 80.98 9.88 78.73 11.07 77.68 11.44 78.24 10.57 80.21 8.48 77.23 10.54 78.51 8.95 78.53 8.44 76.96 9.44 77.96 7.97 78.39 7 77.74 7.14 75.83 8.74 75.6 8.51 75.8 7.77 75.84 7.19 75.9 6.56 74.72 7.58 75.49 5.95 74.32 7.06 74.14 6.75 75.53 3.93 74.92 4.23 75.24 2.94 73.51 5.31 72.94 5.7 73.49 3.88 73.11 3.86 72.55 4.28 71.87 5.04 72.04 3.79 71.44 4.43 72.13 1.55 71.34 2.75 70.7 3.66 70.44 3.38 70.21 3.01 70.07 2.21 70.17 0.22 69.26 2.76 69.34 0.51 68.75 1.8 68.61 0.39 68.28 0 67.72 1.86 67.37 1.97 67.06 1.49 66.71 1.82 66.36 2.4 66.03 1.72 65.69 1.11 65.31 0.5 65.15 3.94 64.79 3.07 64.21 0.41 64.1 2.59 63.7 2.09 63.21 1.18 63.25 3.34 62.48 1.17 62.48 2.79 61.82 1.51 62.24 4.43 61.85 4.19 61.65 4.57 60.49 2.04 60.73 3.8 59.62 1.8 60.24 4.32 59.69 3.85 58.48 2 59.23 4.46 59.39 5.54 59.27 5.97 57.81 3.95 57.87 4.77 57.83 5.38 56.75 4.29 57.22 5.67 57.48 6.68 57.42 7.16 56.88 6.96 55.86 6.17 54.84 5.46 56.02 7.49 54.75 6.53 55.82 8.27 55.75 8.69 55.34 8.74 55.31 9.19 53.87 8.25 52.81 7.77 54.74 10.02 54.87 10.58 53.65 9.98 53.97 10.69 53.11 10.46 51.3 9.55 51.01 9.83 52.48 11.34 53.53 12.47 50.76 11.09 51.23 11.85 52.61 13.11 51.6 12.94 49.56 12.24 50.06 12.96 52.26 14.5 50.16 13.89 51.75 15.04 49.72 14.54 49.74 14.98 49.71 15.38 49.27 15.63 50.29 16.42 51.36 17.17 50.6 17.3 49.53 17.37 50.31 17.98 51.05 18.56 48.7 18.36 49.8 19.01 49.93 19.42 48.93 19.61 50.66 20.31 50.08 20.58 50.12 20.96 49.4 21.24 50.37 21.72 49.9 22.05 50.4 22.45 48.91 22.74 49.88 23.16 48.62 23.51 50.25 23.9 51.05 24.25 47.24 24.73 49.12 25.05 49.59 25.41 47.93 25.92 48.6 26.26 50.88 26.39 49.27 26.96 47.84 27.57 48.51 27.86 47.73 28.41 50.76 28.21 48.66 29.05 48.86 29.4 50.98 29.26 48.56 30.3 49.26 30.51 48.15 31.27 48.95 31.44 48.84 31.9 48.69 32.39 51.65 31.65 50.53 32.5 50.26 33.03 51.05 33.08 51.48 33.28 51.77 33.55 51.55 34.07 50.92 34.82 51.46 34.95 52.53 34.75 52.03 35.47 52.96 35.3 52.72 35.88 51.16 37.39 52.02 37.25 53.64 36.51 53.25 37.25 51.4 39.19 53.89 37.63 52.3 39.46 54.22 38.27 53.51 39.4 53.91 39.52 54.76 39.18 53.47 41.02 55.88 38.98 54.4 41.13 55.86 40.01 56.23 40.08 55.81 41.14 56.54 40.76 56.72 41.08 56.1 42.53 57.85 40.6 56.5 43.24 56.55 43.86 58.54 41.25 58.5 41.95 57.05 45.26 57.98 44.32 59.58 41.91 58.77 44.33 58.85 45.01 59.6 44.17 59.99 44.12 60.62 43.41 59.9 46.38 60.5 45.76 60.68 46.38 61.76 43.98 61.94 44.51 62.56 43.35 62.01 47.14 62.58 46.22 62.92 46.29 63.37 45.68 63.9 44.36 63.97 46.35 64.22 47.24 64.58 47.29 65.13 44.35 65.33 46.91 65.73 44.31 66.03 44.33 66.34 46.43 66.79 48 67.11 47.07 67.47 47.13 67.52 46 68.02 45.66 68.53 46.87 68.96 47.27 68.88 44.79 69.22 44.85 69.55 44.83 70.48 47.24 70.69 46.57 70.09 43.17 71.44 46.5 71.64 45.93 70.99 43.03 72.09 45.07 72.49 45.11 72.05 43.17 72.82 44.11 72.46 42.55 74.05 45.04 74.06 44.25 73.12 41.78 74.64 43.79 75.09 43.85 75.09 43.14 74.04 40.88 74.26 40.65 74.92 41.04 76.47 42.59 75.4 40.59 77.66 42.89 77 41.48 77.68 41.71 77.62 41.06 78.05 40.98 77.78 40.16 79.15 41.01 78.71 40.04 78.65 39.47 77.64 38.06 77.24 37.26 78.74 38.09 79.98 38.63 78.83 37.25 79.48 37.29 78.39 36.05 80.28 36.95 78.43 35.26 80.4 36.13 80.59 35.81 79.42 34.67 81.08 35.21 79.62 33.98 82.39 35.04 81.82 34.31 82.22 34.07 80.45 32.83 81.82 33.03 83.14 33.16 81.6 32.12 80.73 31.39 81.1 31.15 81.38 30.86 83.68 31.2 82.81 30.52 82.38 29.99 83.03 29.77 82.77 29.3 83.18 29 83.02 28.57 81.67 27.92 80.73 27.39 82.84 27.36 83.88 27.11 81.01 26.37 82.86 26.2 80.98 25.66 84.47 25.54 82.3 25.02 84.43 24.72 83.21 24.29 83.34 23.9"/></g></g></svg>