<svg xmlns="http://www.w3.org/2000/svg" viewBox="0 0 119.42 142.96"><defs><style>.cls-1{fill:none;}.cls-2{fill:#e2bda3;}.cls-3{fill:#e4c5a9;}.cls-4{fill:#f5d3b8;}.cls-5{fill:#3d3d3d;}.cls-6{fill:#50abd7;}.cls-7{fill:#423030;}.cls-8{fill:#493434;}</style></defs><g id="Layer_2" data-name="Layer 2"><g id="Layer_1-2" data-name="Layer 1"><polygon class="cls-1" points="79.54 103.06 79.54 103.06 79.54 103.06 79.54 103.06"/><path class="cls-2" d="M79.54,103.06l-.06.07Z"/><path class="cls-3" d="M81.25,97.71h0L77.56,82.5l0-.11-.4-.19-35.89.59L41,84.13a18.39,18.39,0,0,0,3,2.66s4.16,6.72,14.27,6.27,12.44-4.84,17.07-2.75,5.41,11.73,4.28,12.75A5.93,5.93,0,0,0,81.41,99v0A4.69,4.69,0,0,0,81.25,97.71Z"/><path class="cls-4" d="M80,100.92c0-3.25-1.28-9-4.74-10.61-4.63-2.09-7,2.3-17.07,2.75s-14.27-6.27-14.27-6.27A17.53,17.53,0,0,1,41,84.19v0a.41.41,0,0,1-.05-.09l-2.9,13.66h0A4.52,4.52,0,0,0,37.93,99c0,3.17,3.14,6,8,7.86C72.79,112.39,80,101,80,100.92Z"/><path class="cls-3" d="M79.48,103.13l.06-.07h0a3.42,3.42,0,0,0,.46-2.14s-7.21,11.47-34,5.89a39.58,39.58,0,0,0,13.69,2.26C68.48,109.07,76.06,106.63,79.48,103.13Z"/><path class="cls-4" d="M87.17,54.23A36.44,36.44,0,0,0,87,47.84,55.73,55.73,0,0,1,87.17,54.23Z"/><path class="cls-4" d="M77.49,82.19h-.35l.4.19Z"/><path class="cls-5" d="M31.53,49.66c0,.13,0,.27,0,.4C31.52,49.93,31.52,49.79,31.53,49.66Z"/><path class="cls-5" d="M31.53,49.62c.06-1.2.16-2.38.29-3.54-.06.47-.1.93-.15,1.39C31.61,48.2,31.56,48.92,31.53,49.62Z"/><path class="cls-5" d="M87.17,54.23c-.2,3.6-.75,7.13-1.11,9.47,0,0,.11-.48.26-1.33A60.78,60.78,0,0,0,87.17,54.23Z"/><path class="cls-4" d="M92.07,48.31C93.75,52,91,61.87,86.32,62.37c-.15.85-.26,1.33-.26,1.33,6,.3,9.76-12.48,7.65-17.11s-6.85-.51-6.85-.51c.06.47.11.93.15,1.39C88.15,46.7,90.74,45.39,92.07,48.31Z"/><path class="cls-3" d="M87.17,54.23a60.78,60.78,0,0,1-.85,8.14C91,61.87,93.75,52,92.07,48.31c-1.33-2.92-3.92-1.61-5.06-.84l0,.37A36.44,36.44,0,0,1,87.17,54.23Z"/><path class="cls-4" d="M26.61,48.31c1.33-2.92,3.92-1.61,5.06-.84,0-.46.09-.92.15-1.39,0,0-4.73-4.12-6.85.51s1.56,17.23,7.52,17.11c-.08-.44-.16-.89-.23-1.34C27.67,61.72,25,52,26.61,48.31Z"/><path class="cls-3" d="M26.61,48.31C25,52,27.67,61.72,32.26,62.36a60.33,60.33,0,0,1-.75-12.3c0-.13,0-.27,0-.4v0c0-.7.08-1.42.14-2.15C30.53,46.7,27.94,45.39,26.61,48.31Z"/><path class="cls-4" d="M44.7,86.67A23.14,23.14,0,0,0,57,91.76a20.82,20.82,0,0,0,15.35-4.33l0,0c9.13-7,13.38-20.09,13.94-23.7.36-2.34.9-5.87,1.11-9.47a53.64,53.64,0,0,0-.14-6.39C87.12,46.67,88.67,36,88.33,35c-6.66-7.66-18.53-.13-29-1.56S36.33,22,36.33,22C31,24.93,32.78,41.92,32.18,43.46c-.14.84-.26,1.72-.36,2.62-.13,1.16-.23,2.34-.29,3.54v0c0,.13,0,.27,0,.4a60.27,60.27,0,0,0,.85,12.31c.15.85.26,1.33.26,1.33h-.13c1.72,9.11,5.64,17.71,12.15,23"/><path class="cls-4" d="M32.36,62.37h-.1c.07.45.15.9.23,1.34h.13S32.51,63.22,32.36,62.37Z"/><path class="cls-4" d="M31.53,49.62v0Z"/><path class="cls-4" d="M32.26,62.36h.1a60.27,60.27,0,0,1-.85-12.31A60.33,60.33,0,0,0,32.26,62.36Z"/><path class="cls-6" d="M119.42,119.51a77.14,77.14,0,0,0-3.53-7.62c-5.28-9.59-32.81-14-34.61-14.22v0h0a4.76,4.76,0,0,1,.16,1.25v0a6,6,0,0,1-1.87,4.09h0a.19.19,0,0,0-.06.07c-3.42,3.5-11,5.93-19.81,5.93A39.59,39.59,0,0,1,46,106.8c-4.91-1.86-8.05-4.69-8.05-7.86a4.47,4.47,0,0,1,.16-1.21h0v-.06c-1.81.27-29.32,4.63-34.6,14.22A77.14,77.14,0,0,0,0,119.51a87.74,87.74,0,0,0,119.42,0Z"/><path class="cls-7" d="M92.33,26.57a.83.83,0,0,0-.16-.59c-.1-.12-.23-.19-.29-.34-.2-.6.22-1.16-.29-1.71-.12-.12.23-.31.3-.43s-.06-.54-.13-.72c-.12-.33-.4-.68-.31-1a.75.75,0,0,1,.25-.39c0-.16-.19-.27-.09-.44l-.15.24,0-.21.08.06c-.14-.13-.56-.32-.51-.52a2.7,2.7,0,0,0-.07-1.54c-.34-1-1.15-1.92-1.44-3,.46,0,.55.53,1,.53a21.89,21.89,0,0,0-2.39-4.6c.38,0,.53.38.88.45a6.29,6.29,0,0,0-2.92-2.67,11.73,11.73,0,0,0-1.65-.42A.59.59,0,0,1,84,8.73c0-.41.61,0,.83,0a7.15,7.15,0,0,0-1.76-1.24c-.62-.32-1.16-.73-1.75-1.08-1.18-.72-2.44-2.34-3.73-2.88a41.75,41.75,0,0,0-7.53-2.28A56.31,56.31,0,0,0,63.71.31C63,.25,62.29.2,61.57.16S60.29,0,59.62,0c-.85,0-1.71,1.24-2.41,1.68.37.16.81-1.06.81-.54-1.94-.57-4.13-.11-6.18.17A4.79,4.79,0,0,0,49.6,2c-.18.16.29.17.37.18.61,0,1.28-.13,1.8.26a27.86,27.86,0,0,1-6.39.13c-1.54-.1-3.81-.31-5,.77a26.79,26.79,0,0,1,2.63,1c.07,0,.51.13.5.14s-.48.15-.65.19c-.4.09-4.74.83-4.71.94l.94.39c.63.35-.77,1.22-1.12,1.39-.83.39-1.76.6-2.6,1S34,9.69,33.12,10.18c.15-.09,1.14-.49,1-.09s-.54.58-.85.77a12.71,12.71,0,0,0-2.57,1.62c1,0,1.82-.71,2.82-.53-.32.19-.46.54-.8.7l-1.09.56a5.34,5.34,0,0,0-1.83,1.48c.1-.09,1.32-1,1.4-.56,0,.23-.48.57-.63.71-.8.69-1.92,1.44-2.28,2.41.11-.14,1-.92,1.23-.6.1.15,0,.43-.09.57a15.41,15.41,0,0,1-1,2,11.11,11.11,0,0,0-.75,1.34c-.27.72,1.29,1.18,1.26,1.93a3.74,3.74,0,0,0-1.08,1.64,1.59,1.59,0,0,0,0,.89.66.66,0,0,1,.28,0c.33.13,0,.76-.1.94a13.71,13.71,0,0,0-.47,7.21A34.74,34.74,0,0,0,29.13,39a47.76,47.76,0,0,1,1.79,5.25,62.53,62.53,0,0,1,1.61,9.16,39.79,39.79,0,0,0,.35-9.44c-.1-1-.47-2-.53-3a6.92,6.92,0,0,1,1.23-4.09,13.52,13.52,0,0,1,1.34-1.6,14.45,14.45,0,0,1,1.44-1.69c.81-.7,1.9-1,2.62-1.85a5,5,0,0,0,.6-.85A7.82,7.82,0,0,0,43,33a9.35,9.35,0,0,0,2,.51,5.26,5.26,0,0,1-1.12,0c.88,1.62,2.41.8,4.28,1.52a12.73,12.73,0,0,0,2.89.71,14.35,14.35,0,0,0,1.61.1,2,2,0,0,1,.78.29c4.4,1.76,9.89.28,13.82-1.79.11.89-.53,1.06-1.41,1.06,5.28,1.44,11.05-.6,15.68-2.79.47-.23,1-.45,1.39-.71.58.5,1.23,3,1.82,3.49a6.83,6.83,0,0,1,2.61,5.06,29,29,0,0,1-.25,4.26c-.11,1.15-.06,2.29-.06,3.44s.18,2.26.29,3.38c.06.63.11,1.27.21,1.9A96.5,96.5,0,0,1,90,40.85c.17-.68.45-1.33.64-2a18.66,18.66,0,0,0,.5-3.78c.08-1.49.08-3,.07-4.46a6.66,6.66,0,0,1,.34-2.11,5.94,5.94,0,0,1,.36-.91c.18-.35.45-.62.45-1Z"/><path class="cls-8" d="M82.42,8.18s7.92,12-12,13.16c0,0,1.87-.91,1-2.43,0,0-15.26,7.07-30.22-.93,0,0,1.81,1.5,7.38-1.07,0,0-11.6-.76-11.94-2.84a52.62,52.62,0,0,1,6.12-4.31c1.84-1.11-9.58.89-1.37-2.46C48.13,4.57,66.84,2.44,82.42,8.18Z"/><path class="cls-8" d="M35.48,19.08s-.43.35-1.15,4.52c-.51,3,.74,6.12-1.61,8.18a6.63,6.63,0,0,0-3,4.45C29.13,39,26,21.59,35.48,19.08Z"/><path class="cls-8" d="M84.92,16.06a21.81,21.81,0,0,0,.1,5.38c.27,3-1.23,6.06,1,8.26a6.44,6.44,0,0,1,2.61,4.63C89,37.09,94.17,19.16,84.92,16.06Z"/></g></g></svg>