<svg xmlns="http://www.w3.org/2000/svg" viewBox="0 0 131.79 138.21"><defs><style>.cls-1{fill:#50abd7;}.cls-2{fill:#f5d3b8;}.cls-3{fill:#e4c5a9;}.cls-4{fill:#423030;}.cls-5{fill:#edbc94;}.cls-6{fill:#493434;}</style></defs><g id="Layer_2" data-name="Layer 2"><g id="Layer_1-2" data-name="Layer 1"><path class="cls-1" d="M87.78,135.43a87.64,87.64,0,0,0,44-27,1,1,0,0,0,0-.1A87.76,87.76,0,0,1,87.78,135.43Z"/><path class="cls-1" d="M131.75,108.33c-.9-2-1.79-3.9-2.65-5.47-6-10.82-37-15.74-39-16v0h0a5.14,5.14,0,0,1,.19,1.4v0a6.75,6.75,0,0,1-2.11,4.61h0l-.07.08c-3.86,4-12.42,6.7-22.35,6.7a44.45,44.45,0,0,1-15.45-2.55c-5.54-2.09-9.09-5.28-9.09-8.87a5.25,5.25,0,0,1,.19-1.36h0v-.07c-2,.32-33.08,5.24-39,16-.76,1.37-1.54,3.79-2.32,5.69A87.54,87.54,0,0,0,64.92,138.2h1.49l1.89,0,.33,0q1.05,0,2.1-.09l.27,0c.71,0,1.42-.09,2.12-.15l.29,0,2.07-.2.34,0,2-.25.45-.06,1.8-.28.59-.09,1.59-.29.79-.15,1.29-.27,1.06-.23.85-.2,1.48-.37.09,0A87.76,87.76,0,0,0,131.75,108.33Z"/><path class="cls-2" d="M91.74,88.19h.08a2.61,2.61,0,0,1-.28-.17L91.45,88l-.18-.14-.11-.09s-.1-.09-.15-.15a.52.52,0,0,1-.1-.11l-.14-.15-.1-.13L90.55,87l-.1-.15-.11-.16-.09-.16a1.62,1.62,0,0,1-.1-.18l-.09-.17L90,86l-.09-.19-.07-.18-.09-.2-.06-.17a1.43,1.43,0,0,1-.08-.22l-.06-.16c0-.08,0-.16-.07-.24a.88.88,0,0,1,0-.15,2.33,2.33,0,0,1-.07-.25.74.74,0,0,1,0-.14,2.68,2.68,0,0,1-.07-.27l0-.12c0-.1,0-.2-.07-.29a.36.36,0,0,1,0-.1c0-.1,0-.21-.07-.31a25.76,25.76,0,0,1-.46-4.46c-1.18-2.79-45.52-.07-45.52-.07a29.39,29.39,0,0,1-.92,4.39,1.21,1.21,0,0,1-.05.18c0,.11-.06.21-.1.32s0,.16-.07.24a2.09,2.09,0,0,0-.08.23c0,.07,0,.14-.07.2l-.08.21c0,.07,0,.14-.07.2l-.08.21-.08.2-.09.22c0,.09-.08.19-.13.28s-.07.18-.11.26-.07.12-.1.19l-.09.19a1.74,1.74,0,0,0-.1.19,1.62,1.62,0,0,0-.1.18l-.11.18a1.74,1.74,0,0,1-.11.18l-.1.17-.21.31a1.71,1.71,0,0,0-.11.14l-.13.17-.12.14-.13.15-.13.13-.18.2v.06h0a4.39,4.39,0,0,0-.19,1.24c0,3.27,3.81,6.18,9.77,8.09a55.81,55.81,0,0,0,16.6,2.32c10.68,0,19.87-2.5,24-6.11l.08-.07h0a5.78,5.78,0,0,0,2.27-4.2v0a4.33,4.33,0,0,0-.2-1.28Z"/><path class="cls-3" d="M97.17,29.28C96.6,3.32,66.49,3.39,65.69,3.39S34.78,3.32,34.21,29.28c-.4,18.08-.1,17.47.52,20.45s2,9.68,2.33,13.06,2.56,11,4.55,19.21c2.09,8.64,9.3,15.53,10,16.24s1.32.86,2,1.47c1.23,1.11,6.18,5,11.07,5h2a1.47,1.47,0,0,0,.21,0h.1c4.82,0,9.56-3.56,10.91-5,.62-.68,1.89-1.29,2.55-2A56.72,56.72,0,0,0,89,84.88c3.4-6.81,5-18.71,5.31-22.09S96,52.72,96.65,49.73,97.57,47.36,97.17,29.28Z"/><path class="cls-2" d="M97.17,27.44C96.6,1.49,66.49,1.55,65.69,1.56S34.78,1.49,34.21,27.44c-.4,18.09-.1,17.48.52,20.46s2,9.68,2.33,13.06.28,13.79,4.65,21a94.33,94.33,0,0,0,9,12.69c.65.71,2.12,2.59,2.8,3.21,1.27,1.15,6.51,5.28,11.56,5h1.15c5,.28,10.14-3.48,11.55-5,.62-.68,2.14-2.5,2.8-3.21a93.74,93.74,0,0,0,9-12.69C94,74.75,94,64.34,94.32,61S96,50.89,96.65,47.9,97.57,45.53,97.17,27.44Z"/><path class="cls-4" d="M84.33,3.86a39.23,39.23,0,0,0-7.81-2.7C73.14.36,61,.11,59.45,0c-.58,0-3.3.19-2,1.3-1.3-1.07-5.71.06-7.14.41-.6.14-3.29,1.5-1.46,2.05-1.27.05-4.06.53-5,1.26,2.52,2.43-8.74,5.65-5.37,7.75-.3-.19-3.92,4.91-4.2,5.39A9.47,9.47,0,0,0,33,21.42c-.17,1.09.29,2.11.25,3.19s-.61,2.05-.49,3.14c.3,2.55-.64,5-.53,7.6a37.68,37.68,0,0,0,1.88,9.22A64.37,64.37,0,0,1,36,50.79a82.33,82.33,0,0,1,1.66,10.83A53.44,53.44,0,0,0,38,50.46c-.11-1.22-.49-2.41-.56-3.62A9.16,9.16,0,0,1,38.73,42a15.06,15.06,0,0,1,1.39-1.89,16.22,16.22,0,0,1,1.49-2c.84-.83.67-2.49,1.41-3.44.24-.31.7-4.82,2.36-4.88,3.06-.11,5.58,9.61,7.31,8.18s4.4,2.57,6.11,3a22,22,0,0,0,16.37-3c.12,1.05.45,1.68,1.79,1.58,8.47-.64,9.45-10.15,12.29-10s3.77,8.41,4.39,9c1.73,1.6.71,5.42.84,7.76a38.5,38.5,0,0,1-.26,5c-.11,1.37-.06,2.71-.06,4.07s.19,2.67.3,4c.06.75.12,1.51.21,2.26a130,130,0,0,1,2.49-14.81c.18-.8.47-1.57.66-2.37A23.93,23.93,0,0,0,98.35,40c.1-2.17-.22-4.38.24-6.52.25-1.2.82-2.32,1-3.54l0-.16c.31-2.56-1-5-1.44-7.47-.26-1.47,0-4-1.46-4.88a3.85,3.85,0,0,0,.83.43c.19-1.89-1.62-3.48-2.2-5.16a4.29,4.29,0,0,0-1.95-2.29c-.74-.31-2.46-.7-2.33-1.73.21.06-.32-.86-.69-1.13Z"/><path class="cls-5" d="M93.64,38.5c-.62-.57-1.55-8.88-4.39-9s-3.82,9.4-12.29,10c-1.34.1-1.67-.53-1.79-1.58a22,22,0,0,1-16.37,3c-1.71-.38-4.37-4.37-6.11-3s-4.25-8.29-7.31-8.18c-1.66.06-2.12,4.57-2.36,4.88-.74,1-.57,2.61-1.41,3.44a16.22,16.22,0,0,0-1.49,2A15.06,15.06,0,0,0,38.73,42a9.16,9.16,0,0,0-1.28,4.83c0,.15,0,.29,0,.43a9.9,9.9,0,0,1,1.24-3.69,15.06,15.06,0,0,1,1.39-1.89,16.22,16.22,0,0,1,1.49-2c.84-.82.67-2.49,1.41-3.44.24-.31.7-4.82,2.36-4.88,3.06-.11,5.58,9.61,7.31,8.19s4.4,2.56,6.11,2.94a22,22,0,0,0,16.37-2.94c.12,1,.45,1.68,1.79,1.57,8.47-.64,9.45-10.15,12.29-10s3.77,8.41,4.39,9a3.86,3.86,0,0,1,1,2.66C94.72,41.06,94.63,39.42,93.64,38.5Z"/><path class="cls-6" d="M86.51,11.17S93.9,32.66,75.35,34.76a4.44,4.44,0,0,0,1-4.37S62.08,43.07,48.13,28.74c0,0,1.68,2.67,6.88-1.92,0,0-10.82-1.36-11.13-5.1A69,69,0,0,1,49.58,14c1.72-2-8.94,1.6-1.28-4.41C54.53,4.68,72,.87,86.51,11.17Z"/><path class="cls-6" d="M91.19,18A26.73,26.73,0,0,1,90,27s2,5.6,4.67,8.39,2-1.32,2.18-2.06S96.34,14.79,91.19,18Z"/><path class="cls-6" d="M43,17.64s-3.22,6-1.79,9.81c0,0-.81,5.15-3.49,7.94s-2-1.32-2.18-2.06S34.5,14.35,43,17.64Z"/></g></g></svg>