<svg xmlns="http://www.w3.org/2000/svg" viewBox="0 0 132.02 137.08"><defs><style>.cls-1{fill:#50abd7;}.cls-2{fill:#f5d3b8;}.cls-3{fill:#e4c5a9;}.cls-4{fill:#d8b49a;}.cls-5{fill:#423030;}</style></defs><g id="Layer_2" data-name="Layer 2"><g id="Layer_1-2" data-name="Layer 1"><path class="cls-1" d="M66,137.08a87.55,87.55,0,0,0,66-29.93c-1-2.31-2-4.42-3-6.15-5.93-10.77-36.82-15.66-38.84-16v0h0a5.47,5.47,0,0,1,.18,1.39v0a6.74,6.74,0,0,1-2.1,4.59h0l-.07.08C84.4,95.08,75.89,97.81,66,97.81a44.44,44.44,0,0,1-15.36-2.53c-5.52-2.09-9-5.26-9-8.83a5.12,5.12,0,0,1,.19-1.35h0V85c-2,.31-32.91,5.2-38.84,16C2,102.73,1,104.84,0,107.15A87.54,87.54,0,0,0,66,137.08Z"/><path class="cls-2" d="M91.9,86.4H92a2.61,2.61,0,0,1-.28-.17l-.09-.07L91.43,86l-.1-.09-.15-.14-.11-.12s-.09-.09-.13-.15a.64.64,0,0,1-.1-.13,1,1,0,0,1-.12-.16.71.71,0,0,1-.1-.14,1,1,0,0,1-.11-.17l-.09-.15a1.62,1.62,0,0,1-.1-.18l-.09-.17-.09-.17a1.54,1.54,0,0,1-.08-.19,1.3,1.3,0,0,1-.08-.17c0-.07-.06-.14-.08-.2a1.34,1.34,0,0,1-.07-.18l-.08-.21a1.09,1.09,0,0,1,0-.17,1.55,1.55,0,0,1-.08-.23c0-.05,0-.1-.05-.15l-.07-.25s0-.09,0-.14,0-.18-.07-.27l0-.12c0-.1,0-.19-.07-.29a.29.29,0,0,0,0-.09l-.06-.32a25.39,25.39,0,0,1-.46-4.43c-1.17-2.78-45.28-.07-45.28-.07a29.84,29.84,0,0,1-.91,4.37,1.21,1.21,0,0,0-.05.18c0,.1-.07.21-.1.31s0,.16-.08.24a1.55,1.55,0,0,1-.08.23,1.18,1.18,0,0,1-.07.2,1.72,1.72,0,0,1-.07.21,1.19,1.19,0,0,1-.08.2c0,.07-.05.14-.07.21a1.19,1.19,0,0,0-.08.2l-.09.21c0,.1-.09.19-.13.29a2.72,2.72,0,0,0-.11.25c0,.07-.07.13-.1.19l-.09.19a1.74,1.74,0,0,0-.1.19l-.1.18-.11.18a1.74,1.74,0,0,1-.11.18l-.1.17-.21.3-.1.14c-.05.06-.09.12-.14.17l-.12.14-.13.15-.12.13-.18.2,0,.06h0a4.34,4.34,0,0,0-.19,1.24c0,3.24,3.79,6.14,9.72,8A55.57,55.57,0,0,0,65.87,98C76.49,98,85.64,95.54,89.76,92l.08-.07h0A5.73,5.73,0,0,0,92.1,87.7v0a4.28,4.28,0,0,0-.2-1.28Z"/><path class="cls-3" d="M97.27,27.65C96.7,1.76,66.66,1.82,65.86,1.83S35,1.76,34.44,27.65c-.39,18.05-.09,17.44.53,20.42s2,9.65,2.32,13,2.55,11,4.54,19.16c2.09,8.63,9.28,15.5,9.93,16.21s1.31.85,2,1.47c1.23,1.11,6.17,5,11,5h2.28c4.8,0,9.53-3.55,10.88-5,.62-.68,1.89-1.29,2.54-2a56.46,56.46,0,0,0,8.63-12.8c3.39-6.8,5-18.67,5.29-22s1.71-10.05,2.33-13S97.67,45.7,97.27,27.65Z"/><path class="cls-2" d="M97.27,25.82C96.7-.07,66.66,0,65.86,0S35-.07,34.44,25.82c-.39,18-.09,17.44.53,20.42s2,9.65,2.32,13,.28,13.76,4.65,21a94.15,94.15,0,0,0,9,12.67c.65.71,2.11,2.59,2.79,3.2,1.27,1.14,6.5,5.27,11.54,5v0h1.16c5,.28,10.11-3.47,11.52-5,.62-.68,2.14-2.49,2.79-3.2a93.74,93.74,0,0,0,9-12.67c4.36-7.21,4.35-17.6,4.64-21s1.71-10.05,2.33-13S97.67,43.87,97.27,25.82Z"/><path class="cls-4" d="M87.48,6.71a35.31,35.31,0,0,0-6-3.37C80.21,2.9,76.91,7.58,65.83,8.1h0c-11.07-.52-14.9-5.58-16.12-5-2.08.92-3,1.88-5.5,3l0,0c.4,3.81,2.47,10.55,4.06,14.73.24-3.55,4.13-5.73,7.81-3.6,2.39,1.39.54,4.07.44,8.81-.11,4.55,2.24,9,9.35,9.32,7.1-.28,9.45-4.77,9.35-9.32-.11-4.74-2-7.42.44-8.81,3.67-2.13,8-.24,9,2.31A36.46,36.46,0,0,0,87.48,6.71Z"/><path class="cls-5" d="M99.16,29.2l0,.15.06.16A.8.8,0,0,0,99.16,29.2Z"/><path class="cls-5" d="M99.16,29.2l0,.15.06.16A.8.8,0,0,0,99.16,29.2Z"/><path class="cls-5" d="M98,21.9c-.69-2.64-1.12-5.39-2.41-7.83a10.36,10.36,0,0,0-.89-1.44c-4.26-5.57-5.36-4.88-7.19-5.92-.29,4.9-3.15,12.44-2.82,13s2.49,5.51,3.42,6.57a17.1,17.1,0,0,1,3.77,6.38,21.34,21.34,0,0,1,.77,4.67A10.07,10.07,0,0,1,94.36,42c.11,1.28-.43,2.53-.36,3.8a38.44,38.44,0,0,1-.26,5c-.11,1.36-.06,2.7-.06,4.06s.19,2.66.3,4c.06.75.22,4.08.22,4.17,0-4.09,2-8,3-18,.39-3.86,1.1-7.63,1.47-11.48A31.7,31.7,0,0,0,98,21.9Z"/><path class="cls-5" d="M37.93,10c-2.6,2.39-4.23,6-5.32,9.26-.86,2.61-.21,5.33-.41,8-.64,8.34,1.08,15,2.71,23,.73,3.57,2,7.07,2.29,10.72a52.34,52.34,0,0,0-.11-11c-.11-1.22-.49-2.4-.56-3.61-.16-3.13,2.53-5.9,3.2-8.89.41-1.85,1-2.43,1.87-4.14.69-1.34,1.41-3.79,2-5.2a7.49,7.49,0,0,1,2.07-2.78,14.18,14.18,0,0,0,2.58-4.58c.23-1.11.06-1.2-.53-2.16-1.59-4.18-3.13-8.76-3.53-12.57C42.41,6.85,41.9,6.38,37.93,10Z"/></g></g></svg>