<svg xmlns="http://www.w3.org/2000/svg" viewBox="0 0 132.02 137.97"><defs><style>.cls-1{fill:#50abd7;}.cls-2{fill:#f5d3b8;}.cls-3{fill:#e4c5a9;}.cls-4{fill:#423030;}.cls-5{fill:#edbc94;}.cls-6{fill:#382828;}.cls-7{fill:#493434;}</style></defs><g id="Layer_2" data-name="Layer 2"><g id="Layer_1-2" data-name="Layer 1"><path class="cls-1" d="M66,138A87.55,87.55,0,0,0,132,108c-1-2.31-2-4.41-3-6.15-5.93-10.77-36.82-15.66-38.84-16v0h0a5.49,5.49,0,0,1,.18,1.4v0A6.74,6.74,0,0,1,88.31,92h0l-.07.08C84.4,96,75.89,98.7,66,98.7a44.44,44.44,0,0,1-15.36-2.53c-5.52-2.08-9-5.26-9-8.82A5.19,5.19,0,0,1,41.79,86h0v-.07c-2,.31-32.91,5.21-38.84,16C2,103.63,1,105.73,0,108A87.54,87.54,0,0,0,66,138Z"/><path class="cls-2" d="M91.9,87.3H92a2.61,2.61,0,0,1-.28-.17l-.09-.07-.18-.13-.1-.1-.15-.14-.11-.12a1,1,0,0,1-.13-.15.64.64,0,0,1-.1-.13,1.58,1.58,0,0,1-.12-.15l-.1-.15a1,1,0,0,1-.11-.17l-.09-.15a1.62,1.62,0,0,1-.1-.18l-.09-.17-.09-.17a1.54,1.54,0,0,1-.08-.19,1.3,1.3,0,0,1-.08-.17c0-.07-.06-.14-.08-.2s-.05-.12-.07-.17,0-.15-.08-.22a.84.84,0,0,1,0-.17,1.55,1.55,0,0,1-.08-.23c0-.05,0-.1-.05-.15l-.07-.25s0-.09,0-.14,0-.18-.07-.27l0-.12c0-.09,0-.19-.07-.29a.29.29,0,0,0,0-.09l-.06-.32a25.39,25.39,0,0,1-.46-4.43c-1.17-2.78-45.28-.06-45.28-.06A29.86,29.86,0,0,1,42.56,82a1.21,1.21,0,0,0-.05.18c0,.11-.07.21-.1.31s0,.16-.08.25a2,2,0,0,1-.08.22,1.18,1.18,0,0,1-.07.2,1.72,1.72,0,0,1-.07.21,1.19,1.19,0,0,1-.08.2c0,.07-.05.14-.07.21a1.19,1.19,0,0,0-.08.2l-.09.21c0,.1-.09.2-.13.29s-.08.17-.11.25-.07.13-.1.19l-.09.19-.1.19-.1.18-.11.18a1.74,1.74,0,0,1-.11.18l-.1.17-.21.3-.1.14c-.05.06-.09.12-.14.17l-.12.14-.13.15-.12.13-.18.2,0,.06h0a4.39,4.39,0,0,0-.19,1.24c0,3.24,3.79,6.14,9.72,8a55.57,55.57,0,0,0,16.51,2.31c10.62,0,19.77-2.49,23.89-6.08l.08-.07h0a5.72,5.72,0,0,0,2.26-4.18v0a4.33,4.33,0,0,0-.2-1.28Z"/><path class="cls-3" d="M97.3,28.69C96.74,2.87,66.79,2.94,66,2.94S35.24,2.87,34.67,28.69c-.39,18-.09,17.38.52,20.35s2,9.62,2.32,13S40.05,73,42,81.13c2.09,8.6,9.25,15.45,9.9,16.16a22.5,22.5,0,0,0,2,1.46c1.23,1.11,6.15,5,11,5h2.27c4.79,0,9.5-3.54,10.84-5,.62-.67,1.89-1.28,2.54-2A56.28,56.28,0,0,0,89.19,84c3.38-6.77,5-18.61,5.27-22s1.71-10,2.32-13S97.7,46.68,97.3,28.69Z"/><path class="cls-2" d="M97.3,26.86C96.74,1.05,66.79,1.11,66,1.12S35.24,1.05,34.67,26.86c-.39,18-.09,17.39.52,20.36s2,9.62,2.32,13,.28,13.72,4.63,20.91a93.64,93.64,0,0,0,9,12.63c.65.71,2.1,2.58,2.78,3.19,1.27,1.14,6.48,5.25,11.5,5h1.15c5,.29,10.08-3.45,11.48-5,.62-.68,2.14-2.48,2.79-3.19a93.64,93.64,0,0,0,9-12.63c4.35-7.19,4.33-17.54,4.62-20.91s1.71-10,2.32-13S97.7,44.85,97.3,26.86Z"/><path class="cls-4" d="M99.26,30.07a1.11,1.11,0,0,0-.16-.69c-.1-.14-.24-.22-.29-.4-.22-.7.21-1.37-.31-2-.12-.15.24-.36.31-.5s-.06-.64-.13-.86c-.13-.38-.41-.8-.32-1.22a.85.85,0,0,1,.26-.46c0-.19-.2-.31-.1-.52l-.16.29a2.11,2.11,0,0,0,0-.25l.08.07c-.15-.15-.57-.37-.52-.61a3.82,3.82,0,0,0-.07-1.81c-.36-1.22-1.2-2.26-1.49-3.5.47,0,.56.62,1,.62a27.22,27.22,0,0,0-2.47-5.41c.39,0,.55.44.91.53a6.9,6.9,0,0,0-3-3.15,12.26,12.26,0,0,0-1.7-.49.68.68,0,0,1-.44-.6c0-.49.63,0,.85,0a7,7,0,0,0-1.81-1.45c-.64-.38-1.2-.86-1.8-1.28a28.83,28.83,0,0,0-3.85-2.21A38.5,38.5,0,0,0,76.3,1.46,51.75,51.75,0,0,0,69.77.36C69,.29,68.3.23,67.56.19S66.24,0,65.55,0a4.49,4.49,0,0,0-2.48.8c.38.19.83-.07.83.54a13.94,13.94,0,0,0-6.37-1,4.52,4.52,0,0,0-2.31.74c-.18.19.3.21.38.21.64,0,1.33-.15,1.86.31a24.58,24.58,0,0,1-6.58.15c-1.6-.11-3.94-.36-5.17.92a23.74,23.74,0,0,1,2.71,1.16,3.34,3.34,0,0,1,.51.17c-.14.14-.49.17-.67.22-.41.1-4.88,1-4.85,1.11,0,0,.91.41,1,.45.65.41-.79,1.44-1.16,1.63-.86.46-1.81.7-2.67,1.15s-1.39,1.63-2.31,2.21c.15-.11,1.17-.58,1-.11s-.56.69-.88.91a12.74,12.74,0,0,0-2.64,1.9c1,0,1.88-.83,2.91-.62-.33.22-.48.63-.83.83s-.75.42-1.12.65a5.8,5.8,0,0,0-1.89,1.73c.1-.1,1.36-1.16,1.44-.65,0,.27-.49.68-.64.83-.83.82-2,1.7-2.36,2.84.12-.17,1-1.08,1.27-.7.1.17,0,.51-.09.67a20.39,20.39,0,0,1-1,2.4,12,12,0,0,0-.77,1.57c-.28.85,1.33,1.39,1.3,2.28a4.45,4.45,0,0,0-1.12,1.92,2.15,2.15,0,0,0,0,1,.79.79,0,0,1,.3.05c.33.15,0,.9-.12,1.11a18.28,18.28,0,0,0-.47,8.48,44.25,44.25,0,0,0,1.6,6.71A64.4,64.4,0,0,1,36,50.82a83.63,83.63,0,0,1,1.65,10.77A53.52,53.52,0,0,0,38,50.49c-.11-1.21-.49-2.39-.55-3.59a9.06,9.06,0,0,1,1.27-4.81,15.93,15.93,0,0,1,1.38-1.88,17.11,17.11,0,0,1,1.48-2c.84-.82,2-1.22,2.7-2.17a5.74,5.74,0,0,0,.62-1,8.12,8.12,0,0,0,3.53,2.53,8.94,8.94,0,0,0,2.09.59,4.93,4.93,0,0,1-1.15,0,8.72,8.72,0,0,0,4.4,4.23,11.47,11.47,0,0,0,3,.84,15.26,15.26,0,0,0,1.66.12c.31,0,.51.2.8.34,4.53,2.07,10.2.33,14.24-2.1.12,1-.54,1.25-1.45,1.25,5.44,1.69,11.39-.71,16.17-3.29.48-.27,1-.53,1.43-.83.59.59,1.26,1.09,1.87,1.66a8.37,8.37,0,0,1,2.69,5.94,36.4,36.4,0,0,1-.26,5c-.11,1.36-.05,2.69-.05,4.05s.18,2.66.29,4c.06.75.12,1.5.22,2.24a129.66,129.66,0,0,1,2.47-14.73c.18-.79.47-1.56.66-2.35A24.57,24.57,0,0,0,98,40.07c.08-1.75.08-3.5.07-5.25a8.74,8.74,0,0,1,.35-2.48,8,8,0,0,1,.37-1.07,2.76,2.76,0,0,0,.46-1.2Z"/><path class="cls-5" d="M94.16,46.32a8.37,8.37,0,0,0-2.69-5.94c-.61-.57-1.28-1.07-1.87-1.66-.46.3-.95.56-1.43.83-4.78,2.58-10.73,5-16.17,3.29.91,0,1.57-.21,1.45-1.25-4,2.43-9.71,4.17-14.24,2.1-.29-.14-.49-.34-.8-.34a15.26,15.26,0,0,1-1.66-.12,11.47,11.47,0,0,1-3-.84,8.72,8.72,0,0,1-4.4-4.23,6,6,0,0,0,1.13,0,10.27,10.27,0,0,1-2.07-.6,8.12,8.12,0,0,1-3.53-2.53,5.74,5.74,0,0,1-.62,1c-.73,1-1.86,1.35-2.7,2.17a17.11,17.11,0,0,0-1.48,2,15.93,15.93,0,0,0-1.38,1.88,9.06,9.06,0,0,0-1.27,4.81c0,.34.06.67.11,1a10.26,10.26,0,0,1,1.16-3.11,16.8,16.8,0,0,1,1.38-1.88,17,17,0,0,1,1.48-2c.84-.83,2-1.23,2.7-2.18a5.74,5.74,0,0,0,.62-1,8.12,8.12,0,0,0,3.53,2.53,9.68,9.68,0,0,0,2.07.61h0a6,6,0,0,1-1.13,0,8.76,8.76,0,0,0,4.4,4.23,11.08,11.08,0,0,0,3,.83,11.48,11.48,0,0,0,1.66.12c.31,0,.51.21.8.34,4.53,2.07,10.2.33,14.24-2.1.12,1.05-.54,1.25-1.45,1.25,5.44,1.69,11.39-.71,16.17-3.29.48-.26,1-.52,1.43-.83.59.59,1.26,1.09,1.87,1.66a8.31,8.31,0,0,1,2.66,5.53A19.59,19.59,0,0,0,94.16,46.32Z"/><path class="cls-6" d="M95.76,43.22c.88-3.4-5-8.35-5-8.35-2.25,5.63-17.14,8.35-17.14,8.35q1.05.06,2.07.18c4.34.05,8.76-1.85,12.47-3.85.48-.27,1-.53,1.43-.83.59.59,1.26,1.09,1.87,1.66a8.37,8.37,0,0,1,2.69,5.94,36.4,36.4,0,0,1-.26,5c0,.1,0,.19,0,.28A15.29,15.29,0,0,0,95.76,43.22Z"/><path class="cls-6" d="M41.55,29.54c-1.09.35-.82,2.83-.94,3.7-.39,2.81-2.6,4.39-3.51,6.9A12,12,0,0,0,36.6,46c.21,1.5.21,2.08.14.88-.09-1.69,1.16-3.35,2-4.81a15.93,15.93,0,0,1,1.38-1.88,17.11,17.11,0,0,1,1.48-2c.84-.82,2-1.22,2.7-2.17l.15-.2.47-.8C41.46,33.71,42.49,29.24,41.55,29.54Z"/><path class="cls-7" d="M89.05,11.38s8.16,23.75-12.33,26.07a4.88,4.88,0,0,0,1-4.82s-15.72,14-31.14-1.83c0,0,1.86,3,7.6-2.12,0,0-11.95-1.51-12.3-5.64a76.07,76.07,0,0,1,6.3-8.54c1.9-2.19-9.87,1.77-1.41-4.88C53.71,4.21,73,0,89.05,11.38Z"/><path class="cls-7" d="M40.67,21.26s-.45.42-1.18,5.32c-.53,3.49.75,7.19-1.67,9.61,0,0-2.33,1.38-3.08,5.24C34.12,44.64,30.89,24.21,40.67,21.26Z"/><path class="cls-7" d="M91.62,17.71A29.94,29.94,0,0,0,91.73,24c.28,3.52-1.26,7.12,1,9.71,0,0,2.22,1.54,2.69,5.45C95.79,42.44,101.17,21.36,91.62,17.71Z"/></g></g></svg>