<svg xmlns="http://www.w3.org/2000/svg" viewBox="0 0 132.02 138.03"><defs><style>.cls-1{fill:#50abd7;}.cls-2{fill:#f5d3b8;}.cls-3{fill:#e4c5a9;}.cls-4{fill:#423030;}.cls-5{fill:#493434;}</style></defs><g id="Layer_2" data-name="Layer 2"><g id="Layer_1-2" data-name="Layer 1"><path class="cls-1" d="M66,138a87.58,87.58,0,0,0,66-29.92c-1-2.32-2-4.42-3-6.16-5.93-10.77-36.82-15.66-38.84-16v0h0a5.49,5.49,0,0,1,.18,1.4v0A6.74,6.74,0,0,1,88.31,92h0l-.07.08C84.4,96,75.89,98.76,66,98.76a44.44,44.44,0,0,1-15.36-2.53c-5.52-2.08-9-5.26-9-8.82a5.19,5.19,0,0,1,.19-1.36h0V86c-2,.31-32.91,5.21-38.84,16C2,103.69,1,105.79,0,108.11A87.56,87.56,0,0,0,66,138Z"/><path class="cls-2" d="M92,87.36h.08a2.61,2.61,0,0,1-.28-.17l-.09-.07L91.57,87l-.1-.1-.16-.14a.52.52,0,0,0-.1-.11s-.09-.1-.13-.16L91,86.34l-.12-.15L90.76,86a1,1,0,0,1-.11-.17l-.1-.15-.09-.18-.09-.17-.09-.17L90.19,85c0-.06,0-.11-.07-.17s-.06-.14-.08-.2-.05-.12-.07-.17,0-.15-.08-.22l-.06-.17c0-.07,0-.15-.07-.23s0-.1-.05-.15l-.07-.25a.74.74,0,0,1,0-.14c0-.09,0-.18-.07-.27l0-.12c0-.09,0-.19-.07-.29s0-.06,0-.09l-.06-.31a25.54,25.54,0,0,1-.46-4.44c-1.17-2.78-45.28-.06-45.28-.06a29.86,29.86,0,0,1-.91,4.36l-.06.18-.09.31c0,.08,0,.16-.08.25s0,.15-.08.22a1.18,1.18,0,0,1-.07.2l-.07.21c0,.07,0,.14-.08.2a1.8,1.8,0,0,1-.08.21c0,.06-.05.13-.07.2l-.1.21-.12.29-.12.25-.09.19-.09.19-.1.19a1.62,1.62,0,0,0-.1.18l-.11.18a1.74,1.74,0,0,1-.11.18l-.1.17-.21.3-.11.14a1.09,1.09,0,0,1-.13.17l-.12.14-.13.15-.12.13-.18.2,0,.06h0a4.39,4.39,0,0,0-.19,1.24c0,3.24,3.79,6.14,9.72,8A55.2,55.2,0,0,0,66,99c10.62,0,19.77-2.49,23.89-6.08l.08-.06h0a5.75,5.75,0,0,0,2.26-4.18v0a4.33,4.33,0,0,0-.2-1.28Z"/><path class="cls-3" d="M97.56,27.81c-.57-26-30.79-26-31.59-26s-31-.07-31.59,26c-.4,18.15-.1,17.54.52,20.53s2.05,9.71,2.34,13.1,2.56,11,4.56,19.28c2.1,8.67,9.33,15.58,10,16.29s1.32.87,2,1.48c1.23,1.12,6.2,5.05,11.11,5.06h2a1.47,1.47,0,0,0,.21,0h.11c4.83,0,9.58-3.57,10.94-5.06.62-.68,1.9-1.29,2.56-2a57.09,57.09,0,0,0,8.67-12.88c3.42-6.83,5-18.77,5.32-22.17s1.72-10.1,2.34-13.1S98,46,97.56,27.81Z"/><path class="cls-2" d="M97.56,26C97-.07,66.77,0,66,0S35-.07,34.38,26c-.4,18.15-.1,17.54.52,20.53S37,56.21,37.24,59.61s.28,13.83,4.67,21.09A94.65,94.65,0,0,0,51,93.44c.65.71,2.12,2.6,2.81,3.21,1.27,1.16,6.53,5.3,11.6,5h1.15c5,.29,10.17-3.48,11.59-5,.62-.68,2.15-2.5,2.81-3.21A95.66,95.66,0,0,0,90,80.7c4.38-7.26,4.37-17.7,4.66-21.09S96.41,49.5,97,46.5,98,44.12,97.56,26Z"/><path class="cls-4" d="M99.74,29l0,.15.06.16A.54.54,0,0,0,99.74,29Z"/><path class="cls-4" d="M95.22,12.31c-4.82-6.3-5.62-4.62-8-6.43a17.3,17.3,0,0,0-3.76-2.11c-.44-.22-5-2-5.18-1.66C76,6,69,5.43,65.84,5.48,63.36,5.52,55,4.82,54,2c-2.87.5-6.73,3-9.53,3.79-1.88.55-2.27.18-6.29,3.87-2.62,2.4-4.26,6-5.35,9.32-.87,2.62-.21,5.35-.42,8-.64,8.39,1.09,15.11,2.73,23.17a82,82,0,0,1,1.82,10.86,53.12,53.12,0,0,0,.37-11.2c-.11-1.21-.49-2.41-.56-3.62-.17-3.15,2.54-5.94,3.21-9,.42-1.85,1-2.44,1.89-4.16.69-1.35,1.42-3.81,2-5.22a7.4,7.4,0,0,1,2.08-2.8c1.57-1.27,3-2.05,4.73-.58A12.58,12.58,0,0,1,54,29.26c1.21,3,2.31,5.89,4.94,7.94a12.89,12.89,0,0,0,11.05,2c3.82-1,6.53-3.82,8.51-7.12,1.1-1.82,2-4.21,3.42-5.81,2.72-3.05,4.81-2.43,6.69-.31a17.37,17.37,0,0,1,3.79,6.42,21.85,21.85,0,0,1,.78,4.7,10.31,10.31,0,0,1,1.75,4.75c.11,1.29-.44,2.55-.37,3.83a35.53,35.53,0,0,1-.26,5.05c-.11,1.37-.06,2.72-.06,4.08s.19,2.68.3,4c.07.75.12,1.51.22,2.26a160.39,160.39,0,0,1,3-16.15,84.63,84.63,0,0,0,1.47-11.55,31.86,31.86,0,0,0-.7-11.75c-.7-2.65-1.13-5.42-2.43-7.88A10.18,10.18,0,0,0,95.22,12.31Z"/><path class="cls-4" d="M99.74,29l0,.15.06.16A.54.54,0,0,0,99.74,29Z"/><path class="cls-5" d="M87.58,6.11l-.33-.23,0,0c-.46-.33-.93-.65-1.41-.94-.66-.38-1.28-.61-2.32-1.14S81,2.85,79.89,2.43c-.84-.27-1.51-.44-1.58-.32C76,6,69,5.43,65.84,5.48c-2.41,0-9.69-1.19-11.12-3.84a34.46,34.46,0,0,0-8.83,3.41s-1,.49-1.46.78c.41,5.53,3.41,12.87,5.58,18.29l.3.2h0l.14.11a.39.39,0,0,1,.1.08l.06,0A12.58,12.58,0,0,1,54,29.26c1.21,3,2.31,5.89,4.94,7.94a12.89,12.89,0,0,0,11.05,2c3.82-1,6.53-3.82,8.51-7.12,1.1-1.82,2-4.21,3.42-5.81l.23-.25.09-.1.14-.14.11-.11.11-.1a.69.69,0,0,1,.13-.11.6.6,0,0,1,.08-.08l.14-.12,0,0c.2-.15.38-.29.57-.42h0c1.75-5,4.33-12.26,4.58-18.33Z"/></g></g></svg>