<svg xmlns="http://www.w3.org/2000/svg" viewBox="0 0 132.02 145.37"><defs><style>.cls-1{fill:#423030;}.cls-2{fill:#50abd7;}.cls-3{fill:#f5d3b8;}.cls-4{fill:#e4c5a9;}</style></defs><g id="Layer_2" data-name="Layer 2"><g id="Layer_1-2" data-name="Layer 1"><path class="cls-1" d="M65.66,0C60.91.18,36,2.18,28,25.51a131.56,131.56,0,0,0-6.89,43.24,46.8,46.8,0,0,0,.82,9.32c.5,2.79,1.21,4.77,2.07,5.66h0c2.77,4.8,8.11,7.91,18.28,7.91a12.49,12.49,0,0,0,6.88-2.29,4.82,4.82,0,0,0,2.29-1.77A28.53,28.53,0,0,0,54,85c-.32-.26-.63-.53-.94-.8,2-6.1,1.49-15.22,1.49-15.22L65.33,30.9,66.05,11l.72,19.93L77.52,69S77,79.17,79.37,85.21c-.21.17-.41.35-.63.51A25.68,25.68,0,0,0,80.6,87.5,4.9,4.9,0,0,0,83,89.37H83a12.44,12.44,0,0,0,6.83,2.27c10.22,0,15.56-3.14,18.32-8a11.47,11.47,0,0,0,1.91-5,49.81,49.81,0,0,0,1-11.6,132.28,132.28,0,0,0-6.92-41.54C96.12,2.18,71.19.18,66.45,0"/><path class="cls-2" d="M66,145.37a87.55,87.55,0,0,0,66-29.93c-1-2.31-2-4.42-3-6.15-5.93-10.77-36.82-15.66-38.84-16v0h0a5.47,5.47,0,0,1,.18,1.39v0a6.74,6.74,0,0,1-2.1,4.59h0l-.07.08C84.4,103.37,75.89,106.1,66,106.1a44.44,44.44,0,0,1-15.36-2.53c-5.52-2.09-9-5.26-9-8.83a5.12,5.12,0,0,1,.19-1.35h0v-.07c-2,.31-32.91,5.2-38.84,16C2,111,1,113.13,0,115.44A87.54,87.54,0,0,0,66,145.37Z"/><path class="cls-3" d="M91.9,94.69H92a2.61,2.61,0,0,1-.28-.17l-.09-.07-.18-.14-.1-.09-.15-.14L91.07,94s-.09-.09-.13-.15a.64.64,0,0,1-.1-.13,1,1,0,0,1-.12-.16.71.71,0,0,1-.1-.14,1.63,1.63,0,0,1-.11-.17l-.09-.15a1.62,1.62,0,0,1-.1-.18l-.09-.17-.09-.17a1.54,1.54,0,0,1-.08-.19L90,92.18c0-.07-.06-.14-.08-.2a1.34,1.34,0,0,1-.07-.18l-.08-.21a1.09,1.09,0,0,1,0-.17,1.55,1.55,0,0,1-.08-.23s0-.1-.05-.15l-.07-.25c0-.05,0-.09,0-.14s0-.18-.07-.27l0-.12c0-.1,0-.19-.07-.29a.29.29,0,0,0,0-.09l-.06-.32a25.39,25.39,0,0,1-.46-4.43c-1.17-2.78-45.28-.07-45.28-.07a29.84,29.84,0,0,1-.91,4.37,1.21,1.21,0,0,0-.05.18c0,.1-.07.21-.1.31s0,.16-.08.24a1.55,1.55,0,0,1-.08.23,1.18,1.18,0,0,1-.07.2,1.72,1.72,0,0,1-.07.21A1.19,1.19,0,0,1,42,91c0,.07-.05.14-.07.21a1.19,1.19,0,0,0-.08.2l-.09.21c0,.1-.09.19-.13.29a2.72,2.72,0,0,0-.11.25l-.1.19-.09.19a1.74,1.74,0,0,0-.1.19l-.1.18-.11.18a1.74,1.74,0,0,1-.11.18l-.1.17-.21.3-.1.14c-.05.06-.09.12-.14.17l-.12.14-.13.15-.12.13-.18.2,0,.06h0A4.34,4.34,0,0,0,39.64,96c0,3.24,3.79,6.14,9.72,8a55.57,55.57,0,0,0,16.51,2.31c10.62,0,19.77-2.49,23.89-6.08l.08-.07h0A5.73,5.73,0,0,0,92.1,96v0a4.28,4.28,0,0,0-.2-1.28Z"/><path class="cls-4" d="M97.3,36C96.74,11.2,66.79,11.26,66,11.27S35.24,11.2,34.67,36c-.39,17.26-.09,16.67.52,19.52s2,9.24,2.32,12.46S40.05,78.45,42,86.28c2.09,8.25,9.25,14.82,9.9,15.5a21.86,21.86,0,0,0,2,1.41c1.23,1.06,6.15,4.8,11,4.81h2.27c4.79,0,9.5-3.4,10.84-4.81.62-.65,1.89-1.23,2.54-1.91A54.27,54.27,0,0,0,89.19,89c3.38-6.49,5-17.85,5.27-21.08s1.71-9.61,2.32-12.46S97.7,53.23,97.3,36Z"/><path class="cls-3" d="M97.3,34.22C96.74,9.45,66.79,9.51,66,9.52s-30.75-.07-31.32,24.7c-.39,17.26-.09,16.67.52,19.52s2,9.24,2.32,12.46.28,13.17,4.63,20.06a90,90,0,0,0,9,12.12c.65.68,2.1,2.47,2.78,3.06,1.27,1.09,6.48,5,11.5,4.79h1.15c5,.27,10.08-3.32,11.48-4.79.62-.65,2.14-2.38,2.79-3.06a90,90,0,0,0,9-12.12c4.35-6.89,4.33-16.83,4.62-20.06s1.71-9.61,2.32-12.46S97.7,51.48,97.3,34.22Z"/><path class="cls-1" d="M100.05,46.49c1.14-.8,2-1.49,2-1.49s-3-22-5.43-25.74S79.05,7,64,6.72,38.05,15,34.5,19.26c-2.47,3-3.65,15.15-4.15,22.35l-.53.19c-5.23,1.8,2.23,16.2.42,16.85S33.05,64,33.05,64s0-4,9.53-7.14c7.47-2.46,19.05-10.2,22.83-13.43,2.42,2.13,11.54,9.65,20,12.43C94.92,59,98.92,60,98.92,60s1.63-1.7-.18-2.35C97.41,57.18,100,51.37,100.05,46.49Z"/><path class="cls-3" d="M32.53,60.49C30.85,63.75,33.64,72.55,38.28,73c.15.75.26,1.18.26,1.18-6,.27-9.76-11.11-7.65-15.23s7.85-.44,7.85-.44c-.06.41-1.1.82-1.14,1.23C36.45,59.06,33.86,57.89,32.53,60.49Z"/><path class="cls-4" d="M37.43,65.75A49.88,49.88,0,0,0,38.28,73c-4.64-.45-7.43-9.25-5.75-12.51,1.33-2.6,3.92-1.43,5.07-.75,0,.11,0,.22,0,.33A28.78,28.78,0,0,0,37.43,65.75Z"/><path class="cls-3" d="M99.51,60.49c1.67,3.26-1.11,12.06-5.76,12.51-.15.75-.26,1.18-.26,1.18,6,.27,9.77-11.11,7.65-15.23s-7.84-.44-7.84-.44c0,.41,1.1.82,1.14,1.23C95.58,59.06,98.17,57.89,99.51,60.49Z"/><path class="cls-4" d="M94.6,65.75A47.18,47.18,0,0,1,93.75,73c4.65-.45,7.43-9.25,5.76-12.51-1.34-2.6-3.93-1.43-5.07-.75l0,.33A28.8,28.8,0,0,1,94.6,65.75Z"/><polygon class="cls-3" points="70.1 21.68 69.56 21.33 69.63 20.97 69.75 20.62 69.72 20.26 69.46 19.91 69.46 19.56 69.94 19.19 69.71 18.84 69.5 18.5 70.4 18.11 69.21 17.8 70.71 17.39 70.13 17.05 69.27 16.73 70.34 16.31 69.35 16 69.14 15.66 69.77 15.25 70.32 14.85 70.6 14.47 69.5 14.19 69.84 13.8 69.07 13.51 69.31 13.12 70.22 12.67 69.87 12.34 69.04 12.06 68.93 11.71 69.08 11.34 69.68 10.9 70.06 10.49 70.19 10.1 68.85 9.92 68.73 9.59 69.49 9.11 69.87 8.69 68.71 8.52 68.98 8.12 68.24 7.89 68.52 7.48 68.89 7.05 68.67 6.74 68.52 6.38 68.17 6.07 68.91 5.5 69.05 5.07 67.45 5.09 67.65 4.65 67.98 4.16 68.63 3.58 66.97 3.77 67.75 3.12 67.02 3.04 66.65 2.84 67.65 1.99 67.67 1.51 66.97 1.46 67 0.93 65.91 1.41 65.71 1.26 65.62 0.94 65.39 0 65.11 0.79 64.31 0.15 64.76 1.29 64.31 1.35 64.54 1.93 63.06 1.48 63.49 2.17 63.59 2.6 63.64 2.99 62.34 2.86 62.88 3.45 62.8 3.79 63.21 4.29 62.05 4.34 63.34 5.1 62.8 5.34 63.09 5.8 61.48 5.81 62.73 6.48 61.8 6.68 62.77 7.23 61.17 7.28 61.67 7.73 61.52 8.07 61.23 8.38 61.69 8.81 60.87 9.04 60.94 9.42 61.4 9.85 61.18 10.18 61.22 10.55 61.94 11.01 61.38 11.3 60.96 11.62 61.42 12.03 60.51 12.3 61.91 12.8 60.45 13.03 60.68 13.42 60.37 13.76 60.14 14.1 61.07 14.54 61.25 14.91 60.18 15.2 61.31 15.63 60.41 15.94 60.97 16.34 61.57 16.73 60.65 17.05 59.99 17.39 60.09 17.75 61.16 18.14 60.21 18.46 60.62 18.83 60.39 19.18 60.2 19.53 60.91 19.9 60.2 20.25 59.89 20.6 59.98 20.96 61.28 21.32 61.08 21.68 61.44 22.04 60.95 22.39 60.64 22.75 61.54 23.09 59.9 23.48 59.99 23.83 60.08 24.19 61.36 24.51 61.26 24.87 60.32 25.25 60.47 25.6 61.26 25.92 61.66 26.27 60.3 26.69 61.43 27 61.62 27.35 60.63 27.77 60.29 28.16 60.54 28.5 61.33 28.81 61.02 29.19 60.75 29.58 61.88 29.84 60.39 30.34 61.75 30.57 61.02 31.01 61.83 31.29 61.9 31.64 60.53 32.16 61.73 32.38 61.29 32.8 61.27 33.17 62.05 33.42 60.93 33.94 61.76 34.18 62.04 34.49 61.94 34.87 60.93 35.4 61.48 35.66 62.41 35.85 62.84 36.12 62.09 36.63 62.91 36.84 62.45 37.33 61.61 37.92 62.26 38.16 62.59 38.47 62.08 39.01 61.98 39.45 62.16 39.78 62.27 40.13 63.16 40.19 62.61 40.79 62.72 41.15 63.85 41.02 63.94 41.38 64.3 41.59 63.66 42.53 63.86 42.98 64.94 42.29 65.21 42.29 65.39 42.8 65.56 42.24 65.72 42.11 66.94 43 67.03 42.45 66.42 41.55 66.58 41.24 66.62 40.87 67.94 41.1 67.7 40.6 67.64 40.2 68.15 40.01 67.59 39.44 67.57 39.07 67.95 38.8 68.18 38.47 69.16 38.33 68.48 37.76 67.87 37.22 68.22 36.91 68.39 36.56 67.98 36.12 68.87 35.94 68.38 35.5 68.85 35.22 68.38 34.79 68.88 34.52 69.93 34.32 68.84 33.8 68.72 33.42 69.27 33.13 68.87 32.72 69.12 32.39 69.11 32.03 69.42 31.7 69.03 31.3 68.95 30.93 69.52 30.62 68.84 30.2 70.18 29.95 69.6 29.54 69.65 29.18 69.55 28.82 69.91 28.48 69.24 28.07 70.15 27.77 69.45 27.37 69.24 27 70.49 26.7 70.02 26.31 70.62 25.97 70.84 25.62 70.44 25.25 69.39 24.86 70.63 24.54 69.94 24.17 70.33 23.82 70.39 23.47 69.63 23.1 70.35 22.76 69.26 22.39 69.77 22.04 70.1 21.68"/></g></g></svg>