<svg xmlns="http://www.w3.org/2000/svg" viewBox="0 0 132.02 145.37"><defs><style>.cls-1{fill:#423030;}.cls-2{fill:#50abd7;}.cls-3{fill:#f5d3b8;}.cls-4{fill:#e4c5a9;}</style></defs><g id="Layer_2" data-name="Layer 2"><g id="Layer_1-2" data-name="Layer 1"><path class="cls-1" d="M65.66,0C60.91.18,36,2.18,28,25.51a131.56,131.56,0,0,0-6.89,43.24,46.8,46.8,0,0,0,.82,9.32c.5,2.79,1.21,4.77,2.07,5.66h0c2.77,4.8,8.11,7.91,18.28,7.91a12.49,12.49,0,0,0,6.88-2.29,4.82,4.82,0,0,0,2.29-1.77A28.53,28.53,0,0,0,54,85c-.32-.26-.63-.53-.94-.8,2-6.1,1.49-15.22,1.49-15.22L65.33,30.9,66.05,11l.72,19.93L77.52,69S77,79.17,79.37,85.21c-.21.17-.41.35-.63.51A25.68,25.68,0,0,0,80.6,87.5,4.9,4.9,0,0,0,83,89.37H83a12.44,12.44,0,0,0,6.83,2.27c10.22,0,15.56-3.14,18.32-8a11.47,11.47,0,0,0,1.91-5,49.81,49.81,0,0,0,1-11.6,132.28,132.28,0,0,0-6.92-41.54C96.12,2.18,71.19.18,66.45,0"/><path class="cls-2" d="M66,145.37a87.55,87.55,0,0,0,66-29.93c-1-2.31-2-4.42-3-6.15-5.93-10.77-36.82-15.66-38.84-16v0h0a5.47,5.47,0,0,1,.18,1.39v0a6.74,6.74,0,0,1-2.1,4.59h0l-.07.08C84.4,103.37,75.89,106.1,66,106.1a44.44,44.44,0,0,1-15.36-2.53c-5.52-2.09-9-5.26-9-8.83a5.12,5.12,0,0,1,.19-1.35h0v-.07c-2,.31-32.91,5.2-38.84,16C2,111,1,113.13,0,115.44A87.54,87.54,0,0,0,66,145.37Z"/><path class="cls-3" d="M91.9,94.69H92a2.61,2.61,0,0,1-.28-.17l-.09-.07-.18-.14-.1-.09-.15-.14L91.07,94s-.09-.09-.13-.15a.64.64,0,0,1-.1-.13,1,1,0,0,1-.12-.16.71.71,0,0,1-.1-.14,1.63,1.63,0,0,1-.11-.17l-.09-.15a1.62,1.62,0,0,1-.1-.18l-.09-.17-.09-.17a1.54,1.54,0,0,1-.08-.19L90,92.18c0-.07-.06-.14-.08-.2a1.34,1.34,0,0,1-.07-.18l-.08-.21a1.09,1.09,0,0,1,0-.17,1.55,1.55,0,0,1-.08-.23s0-.1-.05-.15l-.07-.25c0-.05,0-.09,0-.14s0-.18-.07-.27l0-.12c0-.1,0-.19-.07-.29a.29.29,0,0,0,0-.09l-.06-.32a25.39,25.39,0,0,1-.46-4.43c-1.17-2.78-45.28-.07-45.28-.07a29.84,29.84,0,0,1-.91,4.37,1.21,1.21,0,0,0-.05.18c0,.1-.07.21-.1.31s0,.16-.08.24a1.55,1.55,0,0,1-.08.23,1.18,1.18,0,0,1-.07.2,1.72,1.72,0,0,1-.07.21A1.19,1.19,0,0,1,42,91c0,.07-.05.14-.07.21a1.19,1.19,0,0,0-.08.2l-.09.21c0,.1-.09.19-.13.29a2.72,2.72,0,0,0-.11.25l-.1.19-.09.19a1.74,1.74,0,0,0-.1.19l-.1.18-.11.18a1.74,1.74,0,0,1-.11.18l-.1.17-.21.3-.1.14c-.05.06-.09.12-.14.17l-.12.14-.13.15-.12.13-.18.2,0,.06h0A4.34,4.34,0,0,0,39.64,96c0,3.24,3.79,6.14,9.72,8a55.57,55.57,0,0,0,16.51,2.31c10.62,0,19.77-2.49,23.89-6.08l.08-.07h0A5.73,5.73,0,0,0,92.1,96v0a4.28,4.28,0,0,0-.2-1.28Z"/><path class="cls-4" d="M97.3,36C96.74,11.2,66.79,11.26,66,11.27S35.24,11.2,34.67,36c-.39,17.26-.09,16.67.52,19.52s2,9.24,2.32,12.46S40.05,78.45,42,86.28c2.09,8.25,9.25,14.82,9.9,15.5a21.86,21.86,0,0,0,2,1.41c1.23,1.06,6.15,4.8,11,4.81h2.27c4.79,0,9.5-3.4,10.84-4.81.62-.65,1.89-1.23,2.54-1.91A54.27,54.27,0,0,0,89.19,89c3.38-6.49,5-17.85,5.27-21.08s1.71-9.61,2.32-12.46S97.7,53.23,97.3,36Z"/><path class="cls-3" d="M97.3,34.22C96.74,9.45,66.79,9.51,66,9.52s-30.75-.07-31.32,24.7c-.39,17.26-.09,16.67.52,19.52s2,9.24,2.32,12.46.28,13.17,4.63,20.06a90,90,0,0,0,9,12.12c.65.68,2.1,2.47,2.78,3.06,1.27,1.09,6.48,5,11.5,4.79h1.15c5,.27,10.08-3.32,11.48-4.79.62-.65,2.14-2.38,2.79-3.06a90,90,0,0,0,9-12.12c4.35-6.89,4.33-16.83,4.62-20.06s1.71-9.61,2.32-12.46S97.7,51.48,97.3,34.22Z"/><path class="cls-1" d="M100.05,46.49c1.14-.8,2-1.49,2-1.49s-3-22-5.43-25.74S79.05,7,64,6.72,38.05,15,34.5,19.26c-2.47,3-3.65,15.15-4.15,22.35l-.53.19c-5.23,1.8,2.23,16.2.42,16.85S33.05,64,33.05,64s0-4,9.53-7.14c7.47-2.46,19.05-10.2,22.83-13.43,2.42,2.13,11.54,9.65,20,12.43C94.92,59,98.92,60,98.92,60s1.63-1.7-.18-2.35C97.41,57.18,100,51.37,100.05,46.49Z"/><path class="cls-3" d="M32.53,60.49C30.85,63.75,33.64,72.55,38.28,73c.15.75.26,1.18.26,1.18-6,.27-9.76-11.11-7.65-15.23s7.85-.44,7.85-.44c-.06.41-1.1.82-1.14,1.23C36.45,59.06,33.86,57.89,32.53,60.49Z"/><path class="cls-4" d="M37.43,65.75A49.88,49.88,0,0,0,38.28,73c-4.64-.45-7.43-9.25-5.75-12.51,1.33-2.6,3.92-1.43,5.07-.75,0,.11,0,.22,0,.33A28.78,28.78,0,0,0,37.43,65.75Z"/><path class="cls-3" d="M99.51,60.49c1.67,3.26-1.11,12.06-5.76,12.51-.15.75-.26,1.18-.26,1.18,6,.27,9.77-11.11,7.65-15.23s-7.84-.44-7.84-.44c0,.41,1.1.82,1.14,1.23C95.58,59.06,98.17,57.89,99.51,60.49Z"/><path class="cls-4" d="M94.6,65.75A47.18,47.18,0,0,1,93.75,73c4.65-.45,7.43-9.25,5.76-12.51-1.34-2.6-3.93-1.43-5.07-.75l0,.33A28.8,28.8,0,0,1,94.6,65.75Z"/><polygon class="cls-3" points="67 21.64 66.5 21.27 66.97 20.89 67.26 20.51 65.56 20.14 67.08 19.76 66.39 19.39 65.63 19.01 66.1 18.64 66.25 18.26 65.97 17.88 66.21 17.51 65.74 17.14 65.56 16.76 66.05 16.38 67.16 15.99 65.8 15.63 66.44 15.25 66.43 14.87 66.05 14.5 67.09 14.11 66.94 13.73 66.9 13.36 66.65 12.99 66.84 12.61 66.82 12.23 66.73 11.86 66.99 11.47 65.66 11.14 66.25 10.74 66.13 10.37 66.32 9.99 66.38 9.61 67.02 9.22 66.45 8.86 65.9 8.51 66.18 8.12 66.82 7.72 65.29 7.41 66.18 7 65.85 6.64 65.98 6.26 66.03 5.89 65.28 5.55 66.15 5.13 66.81 4.71 66.33 4.37 66.33 3.99 66.27 3.62 65.48 3.31 66.22 2.87 65.43 2.57 65.92 2.14 65.77 1.78 65.62 1.43 66.39 0.93 65.05 0.79 65.53 0.3 65.28 0 64.59 0.18 65.78 0.85 65.4 1.13 64.7 1.41 64.21 1.73 64.78 2.17 65.28 2.59 65.17 2.96 65.02 3.31 65.01 3.69 65.24 4.08 65.21 4.45 64.69 4.79 64.89 5.18 65.06 5.56 64.13 5.88 65.28 6.32 63.75 6.62 64.29 7.02 65.12 7.43 64.01 7.76 64.97 8.17 65.14 8.55 64.47 8.89 63.87 9.24 63.55 9.61 64.61 10.02 64.23 10.38 64.96 10.77 64.67 11.14 63.71 11.49 64.01 11.87 64.8 12.27 64.85 12.64 64.65 13.01 63.99 13.37 63.55 13.73 63.35 14.1 64.65 14.5 64.71 14.88 63.88 15.24 63.43 15.61 64.54 16 64.19 16.37 64.87 16.75 64.52 17.12 64.06 17.49 64.21 17.87 64.27 18.25 64.54 18.62 63.67 19 63.42 19.37 64.98 19.75 64.65 20.13 64.19 20.5 63.38 20.88 65.01 21.26 64.04 21.64 64.69 22.02 64.94 22.39 63.66 22.77 63.4 23.15 63.98 23.52 63.63 23.9 64.78 24.27 64.78 24.65 64.53 25.02 63.6 25.41 64.37 25.78 63.42 26.16 64.63 26.53 64.35 26.91 64.89 27.27 63.39 27.67 64.11 28.04 64.41 28.41 64.62 28.78 63.37 29.18 64.1 29.54 64.15 29.92 64.71 30.28 63.62 30.68 65.09 31.02 64.64 31.41 65.05 31.77 63.51 32.19 64.89 32.52 64.04 32.92 65.12 33.26 63.57 33.69 64.16 34.05 64.09 34.42 63.88 34.81 64.43 35.16 63.66 35.57 63.81 35.94 64.35 36.29 64.2 36.67 64.31 37.04 65.11 37.37 64.61 37.77 64.26 38.16 64.79 38.5 63.93 38.94 65.41 39.21 64 39.69 64.31 40.04 64.06 40.44 63.9 40.84 64.9 41.11 65.15 41.46 64.15 41.96 65.36 42.17 64.56 42.69 65.22 42.92 65.28 42.52 65.61 43 66.33 42.75 66.29 42.33 65.27 41.8 66.25 41.55 65.88 41.13 66.14 40.77 66.35 40.42 65.66 39.98 66.4 39.66 66.73 39.31 66.67 38.92 65.39 38.47 65.62 38.1 65.28 37.71 65.8 37.37 66.12 37.01 65.25 36.59 66.91 36.3 66.85 35.91 66.78 35.54 65.53 35.12 65.65 34.75 66.63 34.41 66.5 34.03 65.74 33.63 65.37 33.25 66.76 32.92 65.66 32.51 65.5 32.13 66.54 31.79 66.91 31.42 66.7 31.04 65.94 30.65 66.29 30.28 66.6 29.92 65.51 29.52 67.05 29.18 65.72 28.78 66.5 28.42 65.73 28.03 65.71 27.66 67.14 27.3 65.98 26.91 66.48 26.54 66.55 26.17 65.83 25.79 67.02 25.42 66.24 25.04 66.02 24.66 66.18 24.29 67.28 23.92 66.78 23.54 65.9 23.16 65.54 22.78 66.39 22.4 65.63 22.02 67 21.64"/></g></g></svg>