<svg xmlns="http://www.w3.org/2000/svg" viewBox="0 0 132.02 145.37"><defs><style>.cls-1{fill:#423030;}.cls-2{fill:#50abd7;}.cls-3{fill:#f5d3b8;}.cls-4{fill:#e4c5a9;}</style></defs><g id="Layer_2" data-name="Layer 2"><g id="Layer_1-2" data-name="Layer 1"><path class="cls-1" d="M65.66,0C60.91.18,36,2.18,28,25.51a131.56,131.56,0,0,0-6.89,43.24,46.8,46.8,0,0,0,.82,9.32c.5,2.79,1.21,4.77,2.07,5.66h0c2.77,4.8,8.11,7.91,18.28,7.91a12.49,12.49,0,0,0,6.88-2.29,4.82,4.82,0,0,0,2.29-1.77A28.53,28.53,0,0,0,54,85c-.32-.26-.63-.53-.94-.8,2-6.1,1.49-15.22,1.49-15.22L65.33,30.9,66.05,11l.72,19.93L77.52,69S77,79.17,79.37,85.21c-.21.17-.41.35-.63.51A25.68,25.68,0,0,0,80.6,87.5,4.9,4.9,0,0,0,83,89.37H83a12.44,12.44,0,0,0,6.83,2.27c10.22,0,15.56-3.14,18.32-8a11.47,11.47,0,0,0,1.91-5,49.81,49.81,0,0,0,1-11.6,132.28,132.28,0,0,0-6.92-41.54C96.12,2.18,71.19.18,66.45,0"/><path class="cls-2" d="M66,145.37a87.55,87.55,0,0,0,66-29.93c-1-2.31-2-4.42-3-6.15-5.93-10.77-36.82-15.66-38.84-16v0h0a5.47,5.47,0,0,1,.18,1.39v0a6.74,6.74,0,0,1-2.1,4.59h0l-.07.08C84.4,103.37,75.89,106.1,66,106.1a44.44,44.44,0,0,1-15.36-2.53c-5.52-2.09-9-5.26-9-8.83a5.12,5.12,0,0,1,.19-1.35h0v-.07c-2,.31-32.91,5.2-38.84,16C2,111,1,113.13,0,115.44A87.54,87.54,0,0,0,66,145.37Z"/><path class="cls-3" d="M91.9,94.69H92a2.61,2.61,0,0,1-.28-.17l-.09-.07-.18-.14-.1-.09-.15-.14L91.07,94s-.09-.09-.13-.15a.64.64,0,0,1-.1-.13,1,1,0,0,1-.12-.16.71.71,0,0,1-.1-.14,1.63,1.63,0,0,1-.11-.17l-.09-.15a1.62,1.62,0,0,1-.1-.18l-.09-.17-.09-.17a1.54,1.54,0,0,1-.08-.19L90,92.18c0-.07-.06-.14-.08-.2a1.34,1.34,0,0,1-.07-.18l-.08-.21a1.09,1.09,0,0,1,0-.17,1.55,1.55,0,0,1-.08-.23s0-.1-.05-.15l-.07-.25c0-.05,0-.09,0-.14s0-.18-.07-.27l0-.12c0-.1,0-.19-.07-.29a.29.29,0,0,0,0-.09l-.06-.32a25.39,25.39,0,0,1-.46-4.43c-1.17-2.78-45.28-.07-45.28-.07a29.84,29.84,0,0,1-.91,4.37,1.21,1.21,0,0,0-.05.18c0,.1-.07.21-.1.31s0,.16-.08.24a1.55,1.55,0,0,1-.08.23,1.18,1.18,0,0,1-.07.2,1.72,1.72,0,0,1-.07.21A1.19,1.19,0,0,1,42,91c0,.07-.05.14-.07.21a1.19,1.19,0,0,0-.08.2l-.09.21c0,.1-.09.19-.13.29a2.72,2.72,0,0,0-.11.25l-.1.19-.09.19a1.74,1.74,0,0,0-.1.19l-.1.18-.11.18a1.74,1.74,0,0,1-.11.18l-.1.17-.21.3-.1.14c-.05.06-.09.12-.14.17l-.12.14-.13.15-.12.13-.18.2,0,.06h0A4.34,4.34,0,0,0,39.64,96c0,3.24,3.79,6.14,9.72,8a55.57,55.57,0,0,0,16.51,2.31c10.62,0,19.77-2.49,23.89-6.08l.08-.07h0A5.73,5.73,0,0,0,92.1,96v0a4.28,4.28,0,0,0-.2-1.28Z"/><path class="cls-4" d="M97.3,36C96.74,11.2,66.79,11.26,66,11.27S35.24,11.2,34.67,36c-.39,17.26-.09,16.67.52,19.52s2,9.24,2.32,12.46S40.05,78.45,42,86.28c2.09,8.25,9.25,14.82,9.9,15.5a21.86,21.86,0,0,0,2,1.41c1.23,1.06,6.15,4.8,11,4.81h2.27c4.79,0,9.5-3.4,10.84-4.81.62-.65,1.89-1.23,2.54-1.91A54.27,54.27,0,0,0,89.19,89c3.38-6.49,5-17.85,5.27-21.08s1.71-9.61,2.32-12.46S97.7,53.23,97.3,36Z"/><path class="cls-3" d="M97.3,34.22C96.74,9.45,66.79,9.51,66,9.52s-30.75-.07-31.32,24.7c-.39,17.26-.09,16.67.52,19.52s2,9.24,2.32,12.46.28,13.17,4.63,20.06a90,90,0,0,0,9,12.12c.65.68,2.1,2.47,2.78,3.06,1.27,1.09,6.48,5,11.5,4.79h1.15c5,.27,10.08-3.32,11.48-4.79.62-.65,2.14-2.38,2.79-3.06a90,90,0,0,0,9-12.12c4.35-6.89,4.33-16.83,4.62-20.06s1.71-9.61,2.32-12.46S97.7,51.48,97.3,34.22Z"/><path class="cls-1" d="M100.05,46.49c1.14-.8,2-1.49,2-1.49s-3-22-5.43-25.74S79.05,7,64,6.72,38.05,15,34.5,19.26c-2.47,3-3.65,15.15-4.15,22.35l-.53.19c-5.23,1.8,2.23,16.2.42,16.85S33.05,64,33.05,64s0-4,9.53-7.14c7.47-2.46,19.05-10.2,22.83-13.43,2.42,2.13,11.54,9.65,20,12.43C94.92,59,98.92,60,98.92,60s1.63-1.7-.18-2.35C97.41,57.18,100,51.37,100.05,46.49Z"/><path class="cls-3" d="M32.53,60.49C30.85,63.75,33.64,72.55,38.28,73c.15.75.26,1.18.26,1.18-6,.27-9.76-11.11-7.65-15.23s7.85-.44,7.85-.44c-.06.41-1.1.82-1.14,1.23C36.45,59.06,33.86,57.89,32.53,60.49Z"/><path class="cls-4" d="M37.43,65.75A49.88,49.88,0,0,0,38.28,73c-4.64-.45-7.43-9.25-5.75-12.51,1.33-2.6,3.92-1.43,5.07-.75,0,.11,0,.22,0,.33A28.78,28.78,0,0,0,37.43,65.75Z"/><path class="cls-3" d="M99.51,60.49c1.67,3.26-1.11,12.06-5.76,12.51-.15.75-.26,1.18-.26,1.18,6,.27,9.77-11.11,7.65-15.23s-7.84-.44-7.84-.44c0,.41,1.1.82,1.14,1.23C95.58,59.06,98.17,57.89,99.51,60.49Z"/><path class="cls-4" d="M94.6,65.75A47.18,47.18,0,0,1,93.75,73c4.65-.45,7.43-9.25,5.76-12.51-1.34-2.6-3.93-1.43-5.07-.75l0,.33A28.8,28.8,0,0,1,94.6,65.75Z"/><polygon class="cls-3" points="67.28 22.32 66.9 21.93 68.27 21.55 67.17 21.17 67 20.79 68.01 20.4 68.37 20.01 68.14 19.63 67.38 19.25 67.71 18.87 68 18.48 66.9 18.11 68.42 17.7 67.08 17.35 67.84 16.95 67.07 16.59 67.03 16.2 68.43 15.78 67.26 15.44 67.75 15.04 67.8 14.65 67.06 14.3 68.23 13.87 67.43 13.52 67.2 13.15 67.34 12.76 68.41 12.32 67.89 11.96 67 11.63 66.63 11.27 67.44 10.84 66.67 10.51 67.21 10.09 68.14 9.65 67.55 9.3 67.29 8.94 67.91 8.51 68.11 8.11 68.01 7.74 68 7.36 67.16 7.05 67.87 6.61 67.88 6.22 66.78 5.96 66.83 5.57 66.6 5.22 67.64 4.72 67.76 4.31 66.49 4.1 66.32 3.75 66.75 3.3 66.15 3.03 66.04 2.67 67.42 2.01 67.04 1.7 65.93 1.58 65.81 1.25 65.56 1 66.53 0.06 65.74 0 65.47 0.42 64.93 0.6 65.48 1.2 65.51 1.58 65.16 1.87 64.96 2.2 64 2.4 64.73 2.92 65.38 3.41 65.06 3.73 64.92 4.09 65.37 4.53 64.5 4.79 65.02 5.23 64.57 5.56 65.06 5.99 64.58 6.32 63.55 6.6 64.67 7.09 64.81 7.48 64.29 7.82 64.71 8.23 64.48 8.59 64.51 8.98 64.21 9.33 64.62 9.74 64.72 10.13 64.16 10.47 64.86 10.89 63.53 11.2 64.13 11.61 64.08 11.99 64.19 12.38 63.85 12.75 64.52 13.16 63.63 13.5 64.34 13.91 64.55 14.3 63.32 14.63 63.79 15.03 63.2 15.4 62.98 15.77 63.38 16.17 64.43 16.58 63.2 16.93 63.89 17.33 63.51 17.7 63.44 18.08 64.2 18.48 63.48 18.85 64.56 19.25 64.05 19.63 63.94 20.01 63.84 20.39 63.35 20.77 62.85 21.15 62.93 21.54 62.84 21.93 63.99 22.32 63.1 22.7 63.9 23.08 62.86 23.47 63.16 23.85 63.12 24.24 64.36 24.61 64.2 24.99 63.51 25.39 64.5 25.75 64.04 26.14 63.92 26.53 64.39 26.9 63.76 27.3 64.55 27.66 64.36 28.05 63.53 28.45 63.4 28.84 64.03 29.2 63.15 29.61 64.03 29.96 64.45 30.33 64.16 30.72 63.92 31.12 64.5 31.48 64.17 31.87 64.45 32.24 63.9 32.65 63.31 33.07 64.36 33.39 64.65 33.76 64.39 34.15 63.52 34.59 63.79 34.95 64.06 35.32 64.01 35.7 64.23 36.07 64.29 36.44 64.79 36.78 64.81 37.16 64.9 37.53 64.11 37.98 64.17 38.35 65.18 38.62 64.77 39.04 64.7 39.43 64.28 39.86 64.58 40.2 65.05 40.52 64.34 41 64.62 41.34 64.15 41.81 64.62 42.11 64.88 42.45 64.24 42.98 65.75 42.99 65.36 43.47 65.15 43.95 65.36 44.29 65.74 43.92 65.61 43.95 66.9 44.19 66.13 43.48 66.42 43.18 66.57 42.83 66.33 42.39 65.82 41.92 66.45 41.66 67.46 41.44 66.96 40.98 67.27 40.64 66.64 40.17 67.42 39.89 67.46 39.52 66.89 39.07 67.57 38.76 67.64 38.39 67.7 38.01 67.18 37.58 66.65 37.15 67.05 36.8 66.68 36.39 66.82 36.02 67.8 35.72 67.46 35.31 67.5 34.93 67.11 34.53 67.89 34.19 66.88 33.75 67.76 33.42 67.66 33.03 67.14 32.63 67.32 32.25 67.8 31.89 66.92 31.47 67.9 31.13 67.27 30.73 68.11 30.38 68.48 30.01 67.3 29.59 68.48 29.24 67.68 28.84 66.92 28.43 67.31 28.06 67.35 27.68 67.37 27.3 67.88 26.93 67.66 26.54 67.51 26.16 67.61 25.77 67.72 25.39 66.96 25 68.07 24.63 68 24.25 68.08 23.86 67.04 23.47 67.91 23.09 68.55 22.7 67.28 22.32"/></g></g></svg>