<svg xmlns="http://www.w3.org/2000/svg" viewBox="0 0 132.02 145.35"><defs><style>.cls-1{fill:#423030;}.cls-2{fill:#50abd7;}.cls-3{fill:#f5d3b8;}.cls-4{fill:#e4c5a9;}</style></defs><g id="Layer_2" data-name="Layer 2"><g id="Layer_1-2" data-name="Layer 1"><path class="cls-1" d="M65.66,0C60.91.17,36,2.17,28,25.49a131.57,131.57,0,0,0-6.89,43.25,46.8,46.8,0,0,0,.82,9.32c.5,2.79,1.21,4.76,2.07,5.66h0c2.77,4.81,8.11,7.91,18.28,7.91a12.49,12.49,0,0,0,6.88-2.29,4.8,4.8,0,0,0,2.29-1.76A30,30,0,0,0,54,85c-.32-.25-.63-.52-.94-.8,2-6.09,1.49-15.21,1.49-15.21L65.33,30.88,66.05,11l.72,19.93L77.52,69S77,79.15,79.37,85.19c-.21.17-.41.35-.63.52.61.64,1.23,1.22,1.86,1.77A4.84,4.84,0,0,0,83,89.35l.05,0a12.5,12.5,0,0,0,6.83,2.26c10.22,0,15.56-3.14,18.32-8a11.47,11.47,0,0,0,1.91-5,49.77,49.77,0,0,0,1-11.59,132.34,132.34,0,0,0-6.92-41.55C96.12,2.17,71.19.17,66.45,0"/><path class="cls-2" d="M66,145.35a87.58,87.58,0,0,0,66-29.92c-1-2.32-2-4.42-3-6.16-5.93-10.77-36.82-15.66-38.84-16v0h0a5.54,5.54,0,0,1,.18,1.4v0a6.72,6.72,0,0,1-2.1,4.59h0l-.07.08c-3.84,3.93-12.35,6.66-22.23,6.66a44.44,44.44,0,0,1-15.36-2.53c-5.52-2.08-9-5.26-9-8.82a5.25,5.25,0,0,1,.19-1.36h0V93.3c-2,.31-32.91,5.21-38.84,16C2,111,1,113.11,0,115.43A87.56,87.56,0,0,0,66,145.35Z"/><path class="cls-3" d="M91.9,94.68H92l-.28-.16-.09-.07-.18-.14-.1-.1-.15-.14a1.14,1.14,0,0,1-.11-.11l-.13-.15a1.13,1.13,0,0,1-.1-.13l-.12-.16-.1-.15-.11-.16L90.42,93l-.1-.17-.09-.17-.09-.18a1.08,1.08,0,0,1-.08-.19.89.89,0,0,1-.08-.17,1.67,1.67,0,0,1-.08-.2,1.22,1.22,0,0,1-.07-.17c0-.07,0-.14-.08-.22a1,1,0,0,1,0-.16c0-.08-.06-.16-.08-.23s0-.11-.05-.16,0-.16-.07-.25,0-.09,0-.14,0-.17-.07-.26l0-.13a2.86,2.86,0,0,0-.07-.28.3.3,0,0,0,0-.1l-.06-.31a25.39,25.39,0,0,1-.46-4.43c-1.17-2.78-45.28-.07-45.28-.07a29.86,29.86,0,0,1-.91,4.36,1.21,1.21,0,0,0-.05.18c0,.11-.07.21-.1.32l-.08.24c0,.07,0,.15-.08.23s0,.13-.07.2a1.59,1.59,0,0,1-.07.2A1.8,1.8,0,0,1,42,91c0,.07-.05.13-.07.2a1.67,1.67,0,0,0-.08.2l-.09.22-.13.28c0,.09-.08.17-.11.26l-.1.18-.09.2a1.62,1.62,0,0,0-.1.18l-.1.18-.11.18a1.18,1.18,0,0,1-.11.19l-.1.16-.21.31-.1.13-.14.18-.12.14a.86.86,0,0,1-.13.14l-.12.14-.18.19,0,.06h0A4.39,4.39,0,0,0,39.64,96c0,3.25,3.79,6.15,9.72,8a55.25,55.25,0,0,0,16.51,2.31c10.62,0,19.77-2.49,23.89-6.07l.08-.07h0A5.75,5.75,0,0,0,92.1,96v0a4.21,4.21,0,0,0-.2-1.27Z"/><path class="cls-4" d="M97.3,36C96.74,11.18,66.79,11.25,66,11.25S35.24,11.18,34.67,36c-.39,17.26-.09,16.68.52,19.53s2,9.23,2.32,12.46S40.05,78.43,42,86.27c2.09,8.25,9.25,14.82,9.9,15.49a20.06,20.06,0,0,0,2,1.41c1.23,1.06,6.15,4.8,11,4.81h2.27c4.79,0,9.5-3.4,10.84-4.81.62-.64,1.89-1.23,2.54-1.9A54.27,54.27,0,0,0,89.19,89c3.38-6.5,5-17.86,5.27-21.08s1.71-9.62,2.32-12.46S97.7,53.21,97.3,36Z"/><path class="cls-3" d="M97.3,34.2C96.74,9.43,66.79,9.5,66,9.5S35.24,9.43,34.67,34.2c-.39,17.26-.09,16.68.52,19.53s2,9.23,2.32,12.46.28,13.16,4.63,20.06a88.79,88.79,0,0,0,9,12.11c.65.68,2.1,2.48,2.78,3.06,1.27,1.1,6.48,5,11.5,4.79h1.15c5,.28,10.08-3.31,11.48-4.79.62-.64,2.14-2.38,2.79-3.06a88.79,88.79,0,0,0,9-12.11c4.35-6.9,4.33-16.84,4.62-20.06s1.71-9.61,2.32-12.46S97.7,51.46,97.3,34.2Z"/><path class="cls-1" d="M100.05,46.47c1.14-.8,2-1.49,2-1.49s-3-22-5.43-25.73S79.05,7,64,6.7,38.05,15,34.5,19.25C32,22.2,30.85,34.39,30.35,41.59l-.53.19c-5.23,1.8,2.23,16.2.42,16.86S33.05,64,33.05,64s0-4,9.53-7.13c7.47-2.46,19.05-10.21,22.83-13.43,2.42,2.13,11.54,9.65,20,12.43C94.92,59,98.92,60,98.92,60s1.63-1.69-.18-2.34C97.41,57.16,100,51.35,100.05,46.47Z"/><path class="cls-3" d="M32.53,60.47C30.85,63.74,33.64,72.54,38.28,73c.15.76.26,1.18.26,1.18-6,.27-9.76-11.1-7.65-15.22s7.85-.45,7.85-.45c-.06.42-1.1.83-1.14,1.24C36.45,59,33.86,57.88,32.53,60.47Z"/><path class="cls-4" d="M37.43,65.74A49.89,49.89,0,0,0,38.28,73c-4.64-.44-7.43-9.24-5.75-12.51,1.33-2.59,3.92-1.43,5.07-.74,0,.11,0,.21,0,.32A28.9,28.9,0,0,0,37.43,65.74Z"/><path class="cls-3" d="M99.51,60.47c1.67,3.27-1.11,12.07-5.76,12.51-.15.76-.26,1.18-.26,1.18,6,.27,9.77-11.1,7.65-15.22s-7.84-.45-7.84-.45c0,.42,1.1.83,1.14,1.24C95.58,59,98.17,57.88,99.51,60.47Z"/><path class="cls-4" d="M94.6,65.74A47.18,47.18,0,0,1,93.75,73c4.65-.44,7.43-9.24,5.76-12.51-1.34-2.59-3.93-1.43-5.07-.74l0,.32A28.93,28.93,0,0,1,94.6,65.74Z"/><polygon class="cls-3" points="72.86 22.3 71.98 21.93 72.09 21.57 72.28 21.21 72.25 20.85 71.82 20.49 71.81 20.13 72.59 19.75 72.22 19.4 71.89 19.04 73.33 18.65 71.42 18.34 73.83 17.91 72.9 17.57 71.51 17.24 73.23 16.81 71.64 16.5 71.3 16.14 72.31 15.73 73.21 15.32 73.66 14.93 71.89 14.65 72.43 14.25 71.19 13.95 71.58 13.56 73.04 13.1 72.48 12.76 71.13 12.48 70.96 12.12 71.2 11.73 72.17 11.29 72.78 10.87 73 10.47 70.84 10.29 70.64 9.95 71.86 9.46 72.47 9.03 70.6 8.86 71.04 8.45 69.85 8.22 70.3 7.8 70.91 7.36 70.54 7.04 70.3 6.68 69.73 6.36 70.93 5.78 71.16 5.33 68.57 5.36 68.9 4.91 69.42 4.41 70.47 3.81 67.8 4.01 69.06 3.35 67.88 3.26 67.28 3.06 68.89 2.19 68.93 1.71 67.8 1.65 67.85 1.11 66.08 1.6 65.77 1.44 65.62 1.12 65.25 0.16 64.79 0.97 63.5 0.31 64.23 1.48 63.51 1.54 63.87 2.13 61.48 1.68 62.18 2.37 62.35 2.81 62.41 3.21 60.31 3.08 61.2 3.68 61.06 4.03 61.73 4.54 59.85 4.59 61.94 5.36 61.06 5.61 61.52 6.08 58.94 6.09 60.95 6.78 59.45 6.98 61.02 7.54 58.44 7.59 59.24 8.05 59 8.39 58.54 8.71 59.28 9.16 57.94 9.39 58.06 9.77 58.81 10.21 58.44 10.56 58.51 10.93 59.68 11.39 58.78 11.7 58.1 12.02 58.84 12.44 57.37 12.71 59.63 13.23 57.27 13.46 57.65 13.86 57.14 14.2 56.77 14.56 58.27 15 58.57 15.38 56.83 15.68 58.67 16.12 57.21 16.44 58.12 16.84 59.07 17.24 57.59 17.56 56.53 17.91 56.7 18.28 58.41 18.68 56.88 19.01 57.54 19.39 57.17 19.74 56.88 20.1 58.02 20.48 56.87 20.83 56.37 21.19 56.52 21.56 58.61 21.93 58.28 22.3 58.87 22.66 58.07 23.02 57.58 23.39 59.02 23.74 56.39 24.13 56.53 24.49 56.68 24.86 58.73 25.18 58.59 25.55 57.06 25.94 57.31 26.3 58.58 26.63 59.23 26.98 57.04 27.41 58.85 27.72 59.16 28.08 57.55 28.51 57.01 28.91 57.41 29.26 58.69 29.57 58.19 29.97 57.75 30.36 59.57 30.62 57.18 31.13 59.37 31.38 58.2 31.82 59.5 32.1 59.61 32.47 57.4 33 59.35 33.22 58.62 33.65 58.6 34.03 59.85 34.28 58.04 34.81 59.38 35.06 59.83 35.38 59.67 35.76 58.04 36.3 58.94 36.57 60.44 36.76 61.13 37.04 59.91 37.55 61.25 37.77 60.5 38.27 59.15 38.88 60.2 39.12 60.73 39.44 59.9 39.99 59.73 40.44 60.04 40.77 60.21 41.13 61.65 41.19 60.75 41.81 60.93 42.18 62.76 42.04 62.91 42.41 63.49 42.62 62.45 43.58 62.78 44.05 64.52 43.34 64.95 43.34 65.25 43.86 65.51 43.28 65.77 43.15 67.74 44.06 67.89 43.5 66.9 42.58 67.17 42.27 67.23 41.88 69.36 42.12 68.98 41.61 68.88 41.2 69.71 41 68.8 40.43 68.77 40.05 69.38 39.77 69.76 39.43 71.34 39.29 70.24 38.71 69.25 38.16 69.82 37.85 70.09 37.49 69.42 37.04 70.86 36.86 70.07 36.4 70.83 36.12 70.08 35.68 70.89 35.4 72.58 35.2 70.81 34.67 70.63 34.28 71.51 33.99 70.86 33.57 71.26 33.23 71.24 32.86 71.76 32.53 71.12 32.11 70.99 31.74 71.92 31.43 70.81 30.99 72.99 30.74 72.04 30.32 72.13 29.96 71.97 29.58 72.55 29.24 71.47 28.82 72.93 28.51 71.8 28.1 71.46 27.72 73.48 27.42 72.72 27.02 73.69 26.67 74.05 26.32 73.4 25.94 71.7 25.54 73.7 25.22 72.59 24.84 73.21 24.48 73.32 24.12 72.09 23.75 73.25 23.39 71.49 23.02 72.31 22.66 72.86 22.3"/></g></g></svg>